<?xml version="1.0" encoding="UTF-8"?>
<svg width="204px" height="59px" viewBox="0 0 204 59" version="1.1" xmlns="http://www.w3.org/2000/svg" xmlns:xlink="http://www.w3.org/1999/xlink">
    <!-- Generator: Sketch 48 (47235) - http://www.bohemiancoding.com/sketch -->
    <title>Logo/outlined</title>
    <desc>Created with Sketch.</desc>
    <defs></defs>
    <g id="Symbols" stroke="none" stroke-width="1" fill="none" fill-rule="evenodd">
        <g id="Logo/outlined">
            <g id="Group-2">
                <path d="M73.6697752,27 L70.5496581,27 L70.5496581,11.8570318 L73.6697752,11.8570318 L73.6697752,27 Z M88.8751458,27 L85.7550287,27 L79.6812008,17.0364261 L79.6812008,27 L76.5610837,27 L76.5610837,11.8570318 L79.6812008,11.8570318 L85.7654291,21.8414064 L85.7654291,11.8570318 L88.8751458,11.8570318 L88.8751458,27 Z M102.998876,14.3843266 L98.3603017,14.3843266 L98.3603017,27 L95.2401846,27 L95.2401846,14.3843266 L90.6640129,14.3843266 L90.6640129,11.8570318 L102.998876,11.8570318 L102.998876,14.3843266 Z M113.888084,20.4373538 L107.89746,20.4373538 L107.89746,24.4935059 L114.928123,24.4935059 L114.928123,27 L104.777342,27 L104.777342,11.8570318 L114.907323,11.8570318 L114.907323,14.3843266 L107.89746,14.3843266 L107.89746,17.993262 L113.888084,17.993262 L113.888084,20.4373538 Z M122.364402,21.456592 L119.878709,21.456592 L119.878709,27 L116.758592,27 L116.758592,11.8570318 L122.385203,11.8570318 C124.174079,11.8570318 125.553851,12.2557094 126.524558,13.0530767 C127.495266,13.8504439 127.980613,14.9771416 127.980613,16.4332035 C127.980613,17.4663141 127.757007,18.3278045 127.309788,19.0177005 C126.862569,19.7075965 126.184817,20.2570783 125.276512,20.6661623 L128.552635,26.8543945 L128.552635,27 L125.203709,27 L122.364402,21.456592 Z M119.878709,18.9292972 L122.395604,18.9292972 C123.179104,18.9292972 123.785787,18.7299583 124.215672,18.3312747 C124.645557,17.9325911 124.860496,17.3831093 124.860496,16.6828129 C124.860496,15.9686492 124.65769,15.4070337 124.252073,14.9979496 C123.846456,14.5888656 123.224172,14.3843266 122.385203,14.3843266 L119.878709,14.3843266 L119.878709,18.9292972 Z M138.901023,23.8798829 L133.430418,23.8798829 L132.390379,27 L129.072654,27 L134.709666,11.8570318 L137.600974,11.8570318 L143.269187,27 L139.951462,27 L138.901023,23.8798829 Z M134.272849,21.3525881 L138.058591,21.3525881 L136.15532,15.6843754 L134.272849,21.3525881 Z M155.871286,21.9558107 C155.753414,23.5852133 155.151931,24.8679153 154.066818,25.8039551 C152.981705,26.7399949 151.551666,27.2080078 149.776657,27.2080078 C147.835241,27.2080078 146.308133,26.5545232 145.195285,25.2475342 C144.082438,23.9405453 143.526023,22.146496 143.526023,19.8653323 L143.526023,18.9396976 C143.526023,17.4836356 143.782563,16.2009337 144.295652,15.0915532 C144.80874,13.9821727 145.54196,13.1310826 146.495334,12.5382574 C147.448708,11.9454321 148.556338,11.649024 149.818259,11.649024 C151.565533,11.649024 152.973039,12.1170369 154.040817,13.0530767 C155.108596,13.9891165 155.72568,15.3030193 155.892087,16.9948246 L152.77197,16.9948246 C152.6957,16.017183 152.423559,15.3082302 151.955539,14.8679448 C151.487519,14.4276594 150.775099,14.20752 149.818259,14.20752 C148.778215,14.20752 147.999926,14.5801969 147.483371,15.3255619 C146.966816,16.070927 146.701609,17.2270921 146.687741,18.7940921 L146.687741,19.938135 C146.687741,21.5744713 146.935615,22.7705042 147.431369,23.5262697 C147.927124,24.2820351 148.708878,24.6599122 149.776657,24.6599122 C150.740432,24.6599122 151.459785,24.4397728 151.934738,23.9994874 C152.409692,23.559202 152.681833,22.8779833 152.751169,21.9558107 L155.871286,21.9558107 Z M168.618991,14.3843266 L163.980416,14.3843266 L163.980416,27 L160.860299,27 L160.860299,14.3843266 L156.284128,14.3843266 L156.284128,11.8570318 L168.618991,11.8570318 L168.618991,14.3843266 Z M173.715182,27 L170.595065,27 L170.595065,11.8570318 L173.715182,11.8570318 L173.715182,27 Z M182.2019,23.2454591 L185.634029,11.8570318 L189.107759,11.8570318 L183.834761,27 L180.579439,27 L175.327242,11.8570318 L178.790572,11.8570318 L182.2019,23.2454591 Z M199.643355,20.4373538 L193.65273,20.4373538 L193.65273,24.4935059 L200.683394,24.4935059 L200.683394,27 L190.532613,27 L190.532613,11.8570318 L200.662593,11.8570318 L200.662593,14.3843266 L193.65273,14.3843266 L193.65273,17.993262 L199.643355,17.993262 L199.643355,20.4373538 Z M74.0390625,43.9882812 L74.0390625,50 L70.5234375,50 L70.5234375,32.9375 L77.1796875,32.9375 C78.4609439,32.9375 79.5878858,33.1718727 80.5605469,33.640625 C81.533208,34.1093773 82.2812474,34.7753863 82.8046875,35.6386719 C83.3281276,36.5019574 83.5898438,37.4843695 83.5898438,38.5859375 C83.5898438,40.2578209 83.0175838,41.5761671 81.8730469,42.5410156 C80.7285099,43.5058642 79.1445414,43.9882812 77.1210938,43.9882812 L74.0390625,43.9882812 Z M74.0390625,41.140625 L77.1796875,41.140625 C78.1093796,41.140625 78.8183569,40.9218772 79.3066406,40.484375 C79.7949243,40.0468728 80.0390625,39.4218791 80.0390625,38.609375 C80.0390625,37.7734333 79.7929712,37.0976588 79.3007812,36.5820312 C78.8085913,36.0664037 78.1289106,35.8007813 77.2617188,35.7851562 L74.0390625,35.7851562 L74.0390625,41.140625 Z M92.3203125,43.7539062 L89.5195312,43.7539062 L89.5195312,50 L86.0039062,50 L86.0039062,32.9375 L92.34375,32.9375 C94.3593851,32.9375 95.914057,33.3867143 97.0078125,34.2851562 C98.101568,35.1835982 98.6484375,36.4531168 98.6484375,38.09375 C98.6484375,39.2578183 98.3964869,40.2285117 97.8925781,41.0058594 C97.3886694,41.783207 96.6250051,42.4023414 95.6015625,42.8632812 L99.2929688,49.8359375 L99.2929688,50 L95.5195312,50 L92.3203125,43.7539062 Z M89.5195312,40.90625 L92.3554688,40.90625 C93.2382857,40.90625 93.9218726,40.6816429 94.40625,40.2324219 C94.8906274,39.7832009 95.1328125,39.1640664 95.1328125,38.375 C95.1328125,37.5703085 94.9042992,36.9375023 94.4472656,36.4765625 C93.9902321,36.0156227 93.2890672,35.7851562 92.34375,35.7851562 L89.5195312,35.7851562 L89.5195312,40.90625 Z M105.058594,50 L101.542969,50 L101.542969,32.9375 L105.058594,32.9375 L105.058594,50 Z M122.191406,50 L118.675781,50 L111.832031,38.7734375 L111.832031,50 L108.316406,50 L108.316406,32.9375 L111.832031,32.9375 L118.6875,44.1875 L118.6875,32.9375 L122.191406,32.9375 L122.191406,50 Z M138.65625,44.3164062 C138.523437,46.1523529 137.845709,47.597651 136.623047,48.6523438 C135.400385,49.7070365 133.789073,50.234375 131.789062,50.234375 C129.601552,50.234375 127.880866,49.4980542 126.626953,48.0253906 C125.373041,46.552727 124.746094,44.5312629 124.746094,41.9609375 L124.746094,40.9179688 C124.746094,39.2773355 125.035153,37.8320375 125.613281,36.5820312 C126.191409,35.332025 127.017573,34.3730502 128.091797,33.7050781 C129.166021,33.037106 130.414055,32.703125 131.835938,32.703125 C133.804697,32.703125 135.390619,33.2304635 136.59375,34.2851562 C137.796881,35.339849 138.492187,36.820303 138.679688,38.7265625 L135.164062,38.7265625 C135.078125,37.6249945 134.771487,36.8261744 134.244141,36.3300781 C133.716794,35.8339819 132.914068,35.5859375 131.835938,35.5859375 C130.664057,35.5859375 129.787112,36.0058552 129.205078,36.8457031 C128.623044,37.6855511 128.324219,38.9882724 128.308594,40.7539062 L128.308594,42.0429688 C128.308594,43.886728 128.587888,45.2343707 129.146484,46.0859375 C129.705081,46.9375043 130.585931,47.3632812 131.789062,47.3632812 C132.875005,47.3632812 133.685544,47.1152369 134.220703,46.6191406 C134.755862,46.1230444 135.0625,45.3554739 135.140625,44.3164062 L138.65625,44.3164062 Z M144.703125,50 L141.1875,50 L141.1875,32.9375 L144.703125,32.9375 L144.703125,50 Z M151.476562,43.9882812 L151.476562,50 L147.960938,50 L147.960938,32.9375 L154.617188,32.9375 C155.898444,32.9375 157.025386,33.1718727 157.998047,33.640625 C158.970708,34.1093773 159.718747,34.7753863 160.242188,35.6386719 C160.765628,36.5019574 161.027344,37.4843695 161.027344,38.5859375 C161.027344,40.2578209 160.455084,41.5761671 159.310547,42.5410156 C158.16601,43.5058642 156.582041,43.9882812 154.558594,43.9882812 L151.476562,43.9882812 Z M151.476562,41.140625 L154.617188,41.140625 C155.54688,41.140625 156.255857,40.9218772 156.744141,40.484375 C157.232424,40.0468728 157.476562,39.4218791 157.476562,38.609375 C157.476562,37.7734333 157.230471,37.0976588 156.738281,36.5820312 C156.246091,36.0664037 155.566411,35.8007813 154.699219,35.7851562 L151.476562,35.7851562 L151.476562,41.140625 Z M166.957031,47.1757812 L174.421875,47.1757812 L174.421875,50 L163.441406,50 L163.441406,32.9375 L166.957031,32.9375 L166.957031,47.1757812 Z M186.703125,42.6054688 L179.953125,42.6054688 L179.953125,47.1757812 L187.875,47.1757812 L187.875,50 L176.4375,50 L176.4375,32.9375 L187.851562,32.9375 L187.851562,35.7851562 L179.953125,35.7851562 L179.953125,39.8515625 L186.703125,39.8515625 L186.703125,42.6054688 Z M198.785156,45.5234375 C198.785156,44.8593717 198.550784,44.3496112 198.082031,43.9941406 C197.613279,43.6386701 196.769537,43.2636738 195.550781,42.8691406 C194.332025,42.4746074 193.367191,42.0859394 192.65625,41.703125 C190.71874,40.6562448 189.75,39.2461026 189.75,37.4726562 C189.75,36.5507766 190.009763,35.7285192 190.529297,35.0058594 C191.048831,34.2831995 191.794917,33.718752 192.767578,33.3125 C193.740239,32.906248 194.832025,32.703125 196.042969,32.703125 C197.261725,32.703125 198.347651,32.9238259 199.300781,33.3652344 C200.253911,33.8066428 200.994138,34.4296835 201.521484,35.234375 C202.048831,36.0390665 202.3125,36.9531199 202.3125,37.9765625 L198.796875,37.9765625 C198.796875,37.1953086 198.550784,36.5878928 198.058594,36.1542969 C197.566404,35.720701 196.875004,35.5039062 195.984375,35.5039062 C195.124996,35.5039062 194.457034,35.6855451 193.980469,36.0488281 C193.503904,36.4121112 193.265625,36.890622 193.265625,37.484375 C193.265625,38.0390653 193.544919,38.5039044 194.103516,38.8789062 C194.662112,39.2539081 195.48437,39.6054671 196.570312,39.9335938 C198.570322,40.5351593 200.027339,41.2812455 200.941406,42.171875 C201.855473,43.0625045 202.3125,44.1718684 202.3125,45.5 C202.3125,46.9765699 201.753912,48.1347614 200.636719,48.9746094 C199.519526,49.8144573 198.015634,50.234375 196.125,50.234375 C194.812493,50.234375 193.617193,49.994143 192.539062,49.5136719 C191.460932,49.0332007 190.638675,48.3750042 190.072266,47.5390625 C189.505857,46.7031208 189.222656,45.7343805 189.222656,44.6328125 L192.75,44.6328125 C192.75,46.5156344 193.874989,47.4570312 196.125,47.4570312 C196.960942,47.4570312 197.613279,47.2871111 198.082031,46.9472656 C198.550784,46.6074202 198.785156,46.1328155 198.785156,45.5234375 Z" id="INTERACTIVE-PRINCIPL" fill="#2A2E3E"></path>
                <g id="Group-4">
                    <circle id="Oval" fill="#FFFFFF" cx="29.5" cy="29.5" r="29.5"></circle>
                    <g id="Group" transform="translate(29.500000, 30.000000) scale(1, -1) translate(-29.500000, -30.000000) translate(11.000000, 11.000000)">
                        <g id="Color/Mid/Green" transform="translate(0.000000, 12.000000)" fill="#B2DBB8">
                            <rect id="Rectangle-4" x="0" y="0" width="19" height="26"></rect>
                        </g>
                        <g id="Color/Mid/Red" transform="translate(8.000000, 5.000000)" fill="#F0BBAC">
                            <rect id="Rectangle-4" x="0" y="0" width="19" height="26"></rect>
                        </g>
                        <g id="Color/Mid/Blue" transform="translate(18.000000, 0.000000)" fill="#AFDFDE">
                            <rect id="Rectangle-4" x="0" y="0" width="19" height="26"></rect>
                        </g>
                    </g>
                </g>
            </g>
        </g>
    </g>
</svg>