<?xml version="1.0" standalone="no"?><!DOCTYPE svg PUBLIC "-//W3C//DTD SVG 1.1//EN" "http://www.w3.org/Graphics/SVG/1.1/DTD/svg11.dtd"><svg class="icon" width="200px" height="200.00px" viewBox="0 0 1024 1024" version="1.1" xmlns="http://www.w3.org/2000/svg"><path d="M760.779034 16.242759v46.998069h-125.316413c-50.14069 0-109.656276 59.533241-109.656276 109.656275v93.996138H886.113103c68.925793 0 125.334069 56.390621 125.334069 125.334069V893.528276c0 68.925793-56.408276 125.316414-125.334069 125.316414h-31.337931c-56.390621 0-100.263724-31.320276-119.048827-81.460966l-62.675862-156.654345c-18.785103-50.14069-68.925793-81.460966-119.048828-81.460965h-81.460965c-56.408276 0-100.281379 31.337931-119.066483 81.460965l-62.675862 156.654345c-18.785103 50.14069-68.908138 81.460966-119.048828 81.460966h-37.605517C65.235862 1018.84469 8.827586 962.454069 8.827586 893.528276V392.22731c0-68.943448 56.390621-125.334069 125.334069-125.334069h344.628966V172.897103c0-87.728552 68.943448-156.654345 156.672-156.654344h125.316413z m125.334069 297.648551H134.161655a78.424276 78.424276 0 0 0-78.336 78.336V893.528276a78.424276 78.424276 0 0 0 78.336 78.336h37.605517c32.926897 0 63.788138-20.974345 75.034483-50.970483l0.176552-0.47669 0.176552-0.476689 62.49931-156.212966c26.023724-68.766897 88.399448-111.457103 162.886621-111.457103h81.460965c72.22731 0 137.604414 44.755862 162.868966 111.457103l62.49931 156.212966 0.176552 0.476689 0.176551 0.47669c12.340966 32.873931 38.982621 50.970483 75.052138 50.970483h31.337931a78.424276 78.424276 0 0 0 78.336-78.336V392.22731a78.424276 78.424276 0 0 0-78.336-78.336zM251.639172 380.468966c66.789517 0 121.414621 54.625103 121.414621 121.41462s-54.642759 121.414621-121.414621 121.414621c-66.754207 0-121.396966-54.625103-121.396965-121.414621s54.642759-121.414621 121.396965-121.41462z m0 46.998068a74.504828 74.504828 0 0 0-74.398896 74.416552 74.504828 74.504828 0 0 0 74.398896 74.416552 74.504828 74.504828 0 0 0 74.416552-74.416552 74.504828 74.504828 0 0 0-74.416552-74.416552z m394.593104 13.718069a30.366897 30.366897 0 1 1 60.733793 0 30.366897 30.366897 0 0 1-60.733793 0z m121.414621 0a30.366897 30.366897 0 1 1 60.733793 0 30.366897 30.366897 0 0 1-60.733793 0z m-121.414621 121.396966a30.366897 30.366897 0 1 1 60.733793 0 30.366897 30.366897 0 0 1-60.733793 0z m121.414621 0a30.366897 30.366897 0 1 1 60.733793 0 30.366897 30.366897 0 0 1-60.733793 0z" /></svg>