<?xml version="1.0" standalone="no"?><!DOCTYPE svg PUBLIC "-//W3C//DTD SVG 1.1//EN" "http://www.w3.org/Graphics/SVG/1.1/DTD/svg11.dtd"><svg class="icon" width="200px" height="199.80px" viewBox="0 0 1025 1024" version="1.1" xmlns="http://www.w3.org/2000/svg"><path d="M510.110701 512m-510.110701 0a510.110701 510.110701 0 1 0 1020.221402 0 510.110701 510.110701 0 1 0-1020.221402 0Z" fill="#FFE3DC" /><path d="M799.929151 574.346863c-18.892989-165.502583-52.900369-284.150554-159.834686-284.150553-54.033948 0-81.995572 55.545387-130.361624 60.079705-49.877491-4.534317-76.327675-60.079705-130.361623-60.079705-106.934317 0-140.563838 118.64797-158.323248 282.639114-10.202214 88.041328-1.511439 161.346125 52.900369 161.346126 76.327675 0 78.972694-68.77048 133.384502-101.266421 20.404428-10.202214 66.125461-14.736531 103.911439-16.24797 38.163838 1.511439 83.507011 6.045756 103.91144 16.24797 54.033948 32.118081 57.056827 101.266421 133.384501 101.266421 52.900369 1.511439 60.079705-71.793358 51.38893-159.834687z" fill="#FE7252" /><path d="M380.882657 483.660517m-76.327675 0a76.327675 76.327675 0 1 0 152.65535 0 76.327675 76.327675 0 1 0-152.65535 0Z" fill="#FFFFFF" /><path d="M722.090037 498.019188h-60.079705v60.079705h-29.095203v-60.079705h-60.079705v-29.095203h60.079705v-58.568265h29.095203v58.568265h60.079705z" fill="#FFFFFF" /><path d="M337.050923 483.660517c0 11.713653 4.534317 21.915867 13.225092 30.606642 7.179336 7.179336 18.892989 13.225092 30.606642 13.225092s21.915867-4.534317 30.606642-13.225092c7.179336-7.179336 13.225092-18.892989 13.225092-30.606642 0-11.713653-4.534317-21.915867-13.225092-30.606642-7.179336-7.179336-18.892989-13.225092-30.606642-13.225093s-21.915867 4.534317-30.606642 13.225093c-9.068635 7.179336-13.225092 18.892989-13.225092 30.606642z" fill="#FE7252" /></svg>