<?xml version="1.0" standalone="no"?><!DOCTYPE svg PUBLIC "-//W3C//DTD SVG 1.1//EN" "http://www.w3.org/Graphics/SVG/1.1/DTD/svg11.dtd"><svg class="icon" width="200px" height="200.00px" viewBox="0 0 1024 1024" version="1.1" xmlns="http://www.w3.org/2000/svg"><path d="M979.572227 370.353216L537.766799 173.206508a63.284199 63.284199 0 0 0-25.757589-5.487981 63.207451 63.207451 0 0 0-25.755542 5.487981L44.427773 370.353216c-22.776704 10.159364-37.450885 32.773362-37.450885 57.706168 0 22.579206 12.088292 43.149666 31.258872 54.408058 5.798041 6.686269 12.377887 11.849862 17.802422 16.006524 11.955262 9.095127 15.180717 12.504777 15.180717 19.056993 0 6.53789-3.225455 9.94754-15.180717 19.04983-12.625527 9.636455-31.738802 24.20626-31.738802 52.541552 0 28.333245 19.113275 42.904073 31.738802 52.554855 8.658176 6.607475 12.694088 10.214622 14.300676 14.188112-19.669952 1.620914-35.851461 16.597993-38.373906 36.493072l-11.130479 87.216213a42.072127 42.072127 0 0 0 10.172666 33.195987 42.138642 42.138642 0 0 0 31.624192 14.287373h60.586769c12.095455 0 23.607627-5.214758 31.610888-14.287373a42.178551 42.178551 0 0 0 10.17983-33.195987l-11.123316-87.216213c-2.635008-20.740329-20.113043-36.324228-40.966959-36.718199-2.183731-24.91234-19.479618-38.438374-31.293664-47.45573-11.948099-9.101267-15.18174-12.510917-15.18174-19.06211 0-6.53789 3.233641-9.934237 15.160251-19.04983 12.652133-9.651805 31.758244-24.220586 31.758244-52.541552 0-0.36532-0.083911-0.626262-0.083911-0.964976l74.824 33.428277c-0.33769 2.592029-0.69073 5.199408-0.69073 7.863069v165.64122c0 119.849382 229.885278 132.783947 328.740552 132.783947 98.826622 0 328.71804-12.934564 328.71804-132.783947V554.615501c0-2.874461-0.281409-5.721294-0.661055-8.524123l135.319695-60.284894c22.811496-10.145037 37.493864-32.766199 37.493864-57.712308 0.001023-24.953272-14.667018-47.581597-37.449862-57.74096zM62.632354 784.929544l11.130479-87.244866h38.324787l11.131503 87.244866H62.632354z m719.031826-131.627613c-11.159132 14.145133-38.578567 30.7288-84.961874 43.987752-8.340952 2.395555-17.302027 4.649894-26.629444 6.763017-11.356629 2.550074-18.487013 13.808466-15.935915 25.165096 2.21136 9.806324 10.892049 16.456777 20.529528 16.456777 1.521653 0 3.099588-0.168845 4.634544-0.521885a513.685382 513.685382 0 0 0 28.983044-7.340161c29.646145-8.483191 54.2474-18.769445 73.381141-30.491393v16.175368c0 38.438374-118.89157 69.576496-265.511612 69.576496-146.661998 0-265.539241-31.139145-265.539242-69.576496v-17.358308c57.86785 36.633265 162.704337 55.54188 266.778463 55.54188 24.306544 0 48.38489-1.014094 71.634361-3.015678 11.580733-0.985442 20.177511-11.187784 19.204349-22.796146-1.000791-11.581756-11.21439-20.23277-22.811497-19.191046-22.036855 1.901299-44.918959 2.845809-68.027213 2.845808-147.809122 0-247.622209-38.071008-266.778463-69.462909v-72.113267l234.921981 104.969517a63.162426 63.162426 0 0 0 25.770892 5.495143 63.191078 63.191078 0 0 0 25.727913-5.466491l244.631091-108.971659v79.328585h-0.002047z m-270.35798-28.096862L70.183315 428.07371l441.825895-197.153871 441.805428 197.153871-442.508438 197.131359z" /></svg>