<svg width="350" height="350" viewBox="0 0 350 350" fill="none" xmlns="http://www.w3.org/2000/svg">
<g clip-path="url(#clip0)">
<path d="M113.113 207.402C112.107 206.684 111.065 206.02 109.951 205.5C109.861 205.482 109.772 205.446 109.682 205.41C108.838 204.997 107.993 204.584 107.113 204.243C105.478 203.615 103.808 203.13 102.101 202.753C100.736 202.448 99.3704 202.286 97.9872 202.107C96.6579 201.945 95.3285 202.017 93.9992 201.999C93.1728 201.999 92.4722 202.268 91.8615 202.789C91.071 203.471 90.7477 204.979 91.2327 205.912C91.7896 207.008 92.6698 207.582 93.8914 207.564C95.9213 207.546 97.9513 207.636 99.9633 208.013C101.688 208.336 103.358 208.785 105.011 209.395C107.059 210.167 108.945 211.208 110.652 212.555C112.089 213.686 113.346 215.014 114.442 216.486C115.323 217.671 116.041 218.964 116.652 220.328C117.065 221.226 117.442 222.141 117.712 223.075C118.071 224.296 118.412 225.517 118.628 226.755C118.826 227.904 119.059 229.035 119.095 230.202C119.113 231.243 119.311 232.285 119.293 233.326C119.293 233.451 119.329 233.595 119.382 233.721C119.598 234.457 119.975 235.121 120.299 235.803C121.125 237.563 122.005 239.322 122.849 241.081C123.748 242.93 124.61 244.797 125.508 246.665C125.796 247.257 125.76 247.329 125.113 247.329C123.119 247.329 121.125 247.329 119.149 247.329C118.646 247.329 118.143 247.365 117.64 247.49C116.185 247.831 115.358 249.375 115.646 250.794C115.79 251.458 115.969 252.104 116.041 252.768C116.275 255.048 116.221 257.328 115.574 259.554C115.143 261.062 114.478 262.481 113.526 263.701C111.838 265.856 109.646 267.31 107.113 268.297C105.838 268.8 104.544 269.177 103.215 269.482C101.993 269.769 100.754 269.949 99.4962 270.092C97.6639 270.29 95.8315 270.451 93.9992 270.38C92.4363 270.362 90.9633 271.708 90.9992 273.306C91.0351 274.67 92.5441 275.999 93.7297 275.999C95.8136 275.999 97.8794 275.873 99.9453 275.676C100.843 275.586 101.76 275.442 102.64 275.281C104.023 275.029 105.388 274.724 106.736 274.293C107.867 273.934 108.981 273.593 110.059 273.073C110.239 272.983 110.418 272.929 110.58 272.929C112.646 272.157 114.263 270.613 115.969 269.249C116.059 269.105 116.239 268.926 116.472 268.674C118.143 267.041 119.329 265.102 120.227 262.947C120.891 261.35 121.323 259.68 121.52 257.975C121.682 256.61 121.79 255.21 121.61 253.81C121.52 253.091 121.628 252.966 122.364 252.966C123.64 252.966 124.915 252.966 126.173 252.966C127.394 252.966 128.634 252.984 129.855 252.966C131.113 252.948 132.155 252.535 132.712 251.332C133.089 250.542 133.071 249.716 132.73 248.944C132.011 247.347 131.239 245.785 130.466 244.223C129.766 242.751 129.047 241.297 128.346 239.825C127.34 237.724 126.37 235.606 125.329 233.523C124.861 232.608 124.79 231.674 124.7 230.669C124.556 229.035 124.43 227.402 124.071 225.786C123.873 224.906 123.694 224.009 123.478 223.129C122.957 221.01 122.185 218.964 121.215 217.007C119.939 214.458 118.305 212.178 116.311 210.149C116.005 209.844 115.664 209.575 115.358 209.27" fill="#5EA67D"/>
<path d="M108.856 234.548C107.293 234.62 105.749 233.201 105.766 231.424C105.784 229.701 107.222 228.318 108.928 228.336C110.617 228.354 112.018 229.719 112 231.532C111.982 233.112 110.599 234.602 108.856 234.548Z" fill="#5EA67D"/>
</g>
<rect x="221" y="181" width="28" height="100" rx="5" fill="#5EA67D"/>
<path d="M238.316 208.648H239.928V210.924H238.316V214H235.494V210.924H229.664L229.537 209.146L235.465 199.781H238.316V208.648ZM232.35 208.648H235.494V203.629L235.309 203.951L232.35 208.648Z" fill="white" fill-opacity="0.95"/>
<path d="M83.0445 114.426C84.646 107.785 86.9147 101.5 91.7192 96.4193C96.3901 91.4272 102.04 88.0844 108.668 86.6135C110.714 86.1678 111.471 85.4546 111.693 83.3598C113.473 69.0969 123.126 58.3106 136.916 54.9231C149.995 51.714 163.697 57.018 171.704 68.562C172.905 70.3003 173.973 71.0135 176.153 70.6569C189.365 68.6066 199.997 73.242 208.049 83.8055C209.428 85.5884 210.584 86.1232 212.853 85.8558C229.313 84.0729 246.707 96.0181 248.842 116.12C250.577 132.478 237.81 149.147 221.083 151.421C218.414 151.777 215.7 151.955 212.987 151.955C182.114 152 151.285 152 120.412 152C99.4596 152 88.6941 143.71 83.4004 123.563C83.3114 123.207 83.1335 122.895 83 122.583C83.0445 119.819 83.0445 117.1 83.0445 114.426Z" fill="#C1DCCD"/>
<ellipse cx="123.5" cy="184" rx="9.5" ry="9" fill="#C1DCCD"/>
<ellipse cx="149" cy="171.5" rx="13" ry="12.5" fill="#C1DCCD"/>
<path d="M176.5 105L235.5 173" stroke="#5EA67D" stroke-width="4" stroke-miterlimit="3.15484" stroke-linejoin="round" stroke-dasharray="4 2"/>
<rect x="151" y="77" width="18.2" height="65" rx="5" fill="#5EA67D"/>
<path d="M158.038 96.3906H159.542C160.258 96.3906 160.789 96.2116 161.134 95.8535C161.479 95.4954 161.651 95.0202 161.651 94.4277C161.651 93.8548 161.479 93.4089 161.134 93.0898C160.795 92.7708 160.326 92.6113 159.727 92.6113C159.187 92.6113 158.735 92.7611 158.37 93.0605C158.005 93.3535 157.823 93.7376 157.823 94.2129H155.001C155.001 93.4707 155.199 92.8066 155.596 92.2207C156 91.6283 156.56 91.166 157.276 90.834C157.999 90.502 158.793 90.3359 159.659 90.3359C161.163 90.3359 162.341 90.6973 163.194 91.4199C164.047 92.1361 164.473 93.1257 164.473 94.3887C164.473 95.0397 164.275 95.6387 163.878 96.1855C163.481 96.7324 162.96 97.1523 162.315 97.4453C163.116 97.7318 163.712 98.1615 164.102 98.7344C164.499 99.3073 164.698 99.9844 164.698 100.766C164.698 102.029 164.236 103.041 163.311 103.803C162.393 104.564 161.176 104.945 159.659 104.945C158.24 104.945 157.078 104.571 156.173 103.822C155.274 103.074 154.825 102.084 154.825 100.854H157.647C157.647 101.387 157.846 101.824 158.243 102.162C158.647 102.501 159.141 102.67 159.727 102.67C160.398 102.67 160.922 102.494 161.3 102.143C161.684 101.785 161.876 101.312 161.876 100.727C161.876 99.3073 161.095 98.5977 159.532 98.5977H158.038V96.3906Z" fill="white" fill-opacity="0.95"/>
<defs>
<clipPath id="clip0">
<rect width="42" height="74" fill="white" transform="translate(91 202)"/>
</clipPath>
</defs>
</svg>
