<svg width="350" height="350" viewBox="0 0 350 350" fill="none" xmlns="http://www.w3.org/2000/svg">
<path d="M110.373 97.2969H112.479C113.481 97.2969 114.224 97.0462 114.707 96.5449C115.19 96.0436 115.432 95.3783 115.432 94.5488C115.432 93.7467 115.19 93.1224 114.707 92.6758C114.233 92.2292 113.577 92.0059 112.738 92.0059C111.982 92.0059 111.348 92.2155 110.838 92.6348C110.327 93.0449 110.072 93.5827 110.072 94.248H106.121C106.121 93.209 106.399 92.2793 106.955 91.459C107.52 90.6296 108.304 89.9824 109.307 89.5176C110.318 89.0527 111.43 88.8203 112.643 88.8203C114.748 88.8203 116.398 89.3262 117.592 90.3379C118.786 91.3405 119.383 92.7259 119.383 94.4941C119.383 95.4056 119.105 96.2441 118.549 97.0098C117.993 97.7754 117.264 98.3633 116.361 98.7734C117.482 99.1745 118.316 99.776 118.863 100.578C119.419 101.38 119.697 102.328 119.697 103.422C119.697 105.19 119.05 106.607 117.756 107.674C116.471 108.74 114.766 109.273 112.643 109.273C110.656 109.273 109.029 108.749 107.762 107.701C106.504 106.653 105.875 105.268 105.875 103.545H109.826C109.826 104.292 110.104 104.903 110.66 105.377C111.225 105.851 111.918 106.088 112.738 106.088C113.677 106.088 114.411 105.842 114.939 105.35C115.477 104.848 115.746 104.188 115.746 103.367C115.746 101.38 114.652 100.387 112.465 100.387H110.373V97.2969ZM128.229 98.623L130.717 94.207H134.941L130.73 101.453L135.119 109H130.881L128.242 104.352L125.617 109H121.365L125.754 101.453L121.557 94.207H125.795L128.229 98.623ZM151.785 97.8574H156.721V101.426H151.785V107.004H148.025V101.426H143.076V97.8574H148.025V92.5117H151.785V97.8574ZM166.496 99.2109L167.645 89.0938H178.801V92.3887H170.885L170.393 96.668C171.331 96.1667 172.329 95.916 173.387 95.916C175.283 95.916 176.768 96.5039 177.844 97.6797C178.919 98.8555 179.457 100.501 179.457 102.615C179.457 103.9 179.184 105.053 178.637 106.074C178.099 107.086 177.324 107.874 176.312 108.439C175.301 108.995 174.107 109.273 172.73 109.273C171.527 109.273 170.411 109.032 169.381 108.549C168.351 108.057 167.535 107.368 166.934 106.484C166.341 105.6 166.027 104.593 165.99 103.463H169.9C169.982 104.292 170.27 104.939 170.762 105.404C171.263 105.86 171.915 106.088 172.717 106.088C173.61 106.088 174.298 105.769 174.781 105.131C175.264 104.484 175.506 103.572 175.506 102.396C175.506 101.266 175.228 100.4 174.672 99.7988C174.116 99.1973 173.327 98.8965 172.307 98.8965C171.368 98.8965 170.607 99.1426 170.023 99.6348L169.641 99.9902L166.496 99.2109ZM201.688 98.8008H189.465V95.5742H201.688V98.8008ZM201.688 104.721H189.465V101.494H201.688V104.721ZM215.975 97.2969H218.08C219.083 97.2969 219.826 97.0462 220.309 96.5449C220.792 96.0436 221.033 95.3783 221.033 94.5488C221.033 93.7467 220.792 93.1224 220.309 92.6758C219.835 92.2292 219.178 92.0059 218.34 92.0059C217.583 92.0059 216.95 92.2155 216.439 92.6348C215.929 93.0449 215.674 93.5827 215.674 94.248H211.723C211.723 93.209 212.001 92.2793 212.557 91.459C213.122 90.6296 213.906 89.9824 214.908 89.5176C215.92 89.0527 217.032 88.8203 218.244 88.8203C220.35 88.8203 221.999 89.3262 223.193 90.3379C224.387 91.3405 224.984 92.7259 224.984 94.4941C224.984 95.4056 224.706 96.2441 224.15 97.0098C223.594 97.7754 222.865 98.3633 221.963 98.7734C223.084 99.1745 223.918 99.776 224.465 100.578C225.021 101.38 225.299 102.328 225.299 103.422C225.299 105.19 224.652 106.607 223.357 107.674C222.072 108.74 220.368 109.273 218.244 109.273C216.257 109.273 214.63 108.749 213.363 107.701C212.105 106.653 211.477 105.268 211.477 103.545H215.428C215.428 104.292 215.706 104.903 216.262 105.377C216.827 105.851 217.52 106.088 218.34 106.088C219.279 106.088 220.012 105.842 220.541 105.35C221.079 104.848 221.348 104.188 221.348 103.367C221.348 101.38 220.254 100.387 218.066 100.387H215.975V97.2969ZM228.621 99.2109L229.77 89.0938H240.926V92.3887H233.01L232.518 96.668C233.456 96.1667 234.454 95.916 235.512 95.916C237.408 95.916 238.893 96.5039 239.969 97.6797C241.044 98.8555 241.582 100.501 241.582 102.615C241.582 103.9 241.309 105.053 240.762 106.074C240.224 107.086 239.449 107.874 238.438 108.439C237.426 108.995 236.232 109.273 234.855 109.273C233.652 109.273 232.536 109.032 231.506 108.549C230.476 108.057 229.66 107.368 229.059 106.484C228.466 105.6 228.152 104.593 228.115 103.463H232.025C232.107 104.292 232.395 104.939 232.887 105.404C233.388 105.86 234.04 106.088 234.842 106.088C235.735 106.088 236.423 105.769 236.906 105.131C237.389 104.484 237.631 103.572 237.631 102.396C237.631 101.266 237.353 100.4 236.797 99.7988C236.241 99.1973 235.452 98.8965 234.432 98.8965C233.493 98.8965 232.732 99.1426 232.148 99.6348L231.766 99.9902L228.621 99.2109ZM166.688 138.906H160.139V137.525H166.688V138.906ZM172.99 136.158H174.686C175.624 136.158 176.445 135.994 177.146 135.666C177.848 135.329 178.382 134.873 178.746 134.299C179.12 133.715 179.307 133.046 179.307 132.289C179.307 131.013 178.947 130.015 178.227 129.295C177.507 128.575 176.472 128.215 175.123 128.215C173.847 128.215 172.799 128.593 171.979 129.35C171.167 130.097 170.762 131.086 170.762 132.316H169.121C169.121 131.286 169.381 130.348 169.9 129.5C170.42 128.643 171.14 127.982 172.061 127.518C172.981 127.053 174.002 126.82 175.123 126.82C176.928 126.82 178.35 127.312 179.389 128.297C180.428 129.281 180.947 130.63 180.947 132.344C180.947 133.301 180.642 134.185 180.031 134.996C179.43 135.798 178.6 136.4 177.543 136.801C178.783 137.147 179.721 137.744 180.359 138.592C180.997 139.43 181.316 140.433 181.316 141.6C181.316 143.304 180.76 144.676 179.648 145.715C178.536 146.754 177.051 147.273 175.191 147.273C174.007 147.273 172.917 147.036 171.924 146.562C170.939 146.089 170.174 145.428 169.627 144.58C169.089 143.723 168.82 142.73 168.82 141.6H170.461C170.461 142.867 170.903 143.901 171.787 144.703C172.671 145.496 173.806 145.893 175.191 145.893C176.604 145.893 177.702 145.533 178.486 144.812C179.279 144.083 179.676 143.031 179.676 141.654C179.676 140.324 179.247 139.307 178.391 138.605C177.543 137.904 176.29 137.553 174.631 137.553H172.99V136.158ZM224.273 138.906H217.725V137.525H224.273V138.906ZM230.576 136.158H232.271C233.21 136.158 234.031 135.994 234.732 135.666C235.434 135.329 235.967 134.873 236.332 134.299C236.706 133.715 236.893 133.046 236.893 132.289C236.893 131.013 236.533 130.015 235.812 129.295C235.092 128.575 234.058 128.215 232.709 128.215C231.433 128.215 230.385 128.593 229.564 129.35C228.753 130.097 228.348 131.086 228.348 132.316H226.707C226.707 131.286 226.967 130.348 227.486 129.5C228.006 128.643 228.726 127.982 229.646 127.518C230.567 127.053 231.588 126.82 232.709 126.82C234.514 126.82 235.936 127.312 236.975 128.297C238.014 129.281 238.533 130.63 238.533 132.344C238.533 133.301 238.228 134.185 237.617 134.996C237.016 135.798 236.186 136.4 235.129 136.801C236.368 137.147 237.307 137.744 237.945 138.592C238.583 139.43 238.902 140.433 238.902 141.6C238.902 143.304 238.346 144.676 237.234 145.715C236.122 146.754 234.637 147.273 232.777 147.273C231.592 147.273 230.503 147.036 229.51 146.562C228.525 146.089 227.76 145.428 227.213 144.58C226.675 143.723 226.406 142.73 226.406 141.6H228.047C228.047 142.867 228.489 143.901 229.373 144.703C230.257 145.496 231.392 145.893 232.777 145.893C234.19 145.893 235.288 145.533 236.072 144.812C236.865 144.083 237.262 143.031 237.262 141.654C237.262 140.324 236.833 139.307 235.977 138.605C235.129 137.904 233.876 137.553 232.217 137.553H230.576V136.158ZM126.096 174.623L128.584 170.207H132.809L128.598 177.453L132.986 185H128.748L126.109 180.352L123.484 185H119.232L123.621 177.453L119.424 170.207H123.662L126.096 174.623ZM149.652 173.857H154.588V177.426H149.652V183.004H145.893V177.426H140.943V173.857H145.893V168.512H149.652V173.857ZM164.363 175.211L165.512 165.094H176.668V168.389H168.752L168.26 172.668C169.199 172.167 170.197 171.916 171.254 171.916C173.15 171.916 174.635 172.504 175.711 173.68C176.786 174.855 177.324 176.501 177.324 178.615C177.324 179.9 177.051 181.053 176.504 182.074C175.966 183.086 175.191 183.874 174.18 184.439C173.168 184.995 171.974 185.273 170.598 185.273C169.395 185.273 168.278 185.032 167.248 184.549C166.218 184.057 165.402 183.368 164.801 182.484C164.208 181.6 163.894 180.593 163.857 179.463H167.768C167.85 180.292 168.137 180.939 168.629 181.404C169.13 181.86 169.782 182.088 170.584 182.088C171.477 182.088 172.165 181.769 172.648 181.131C173.132 180.484 173.373 179.572 173.373 178.396C173.373 177.266 173.095 176.4 172.539 175.799C171.983 175.197 171.195 174.896 170.174 174.896C169.235 174.896 168.474 175.143 167.891 175.635L167.508 175.99L164.363 175.211ZM199.555 174.801H187.332V171.574H199.555V174.801ZM199.555 180.721H187.332V177.494H199.555V180.721ZM213.842 173.297H215.947C216.95 173.297 217.693 173.046 218.176 172.545C218.659 172.044 218.9 171.378 218.9 170.549C218.9 169.747 218.659 169.122 218.176 168.676C217.702 168.229 217.046 168.006 216.207 168.006C215.451 168.006 214.817 168.215 214.307 168.635C213.796 169.045 213.541 169.583 213.541 170.248H209.59C209.59 169.209 209.868 168.279 210.424 167.459C210.989 166.63 211.773 165.982 212.775 165.518C213.787 165.053 214.899 164.82 216.111 164.82C218.217 164.82 219.867 165.326 221.061 166.338C222.255 167.34 222.852 168.726 222.852 170.494C222.852 171.406 222.574 172.244 222.018 173.01C221.462 173.775 220.732 174.363 219.83 174.773C220.951 175.174 221.785 175.776 222.332 176.578C222.888 177.38 223.166 178.328 223.166 179.422C223.166 181.19 222.519 182.607 221.225 183.674C219.939 184.74 218.235 185.273 216.111 185.273C214.124 185.273 212.497 184.749 211.23 183.701C209.973 182.653 209.344 181.268 209.344 179.545H213.295C213.295 180.292 213.573 180.903 214.129 181.377C214.694 181.851 215.387 182.088 216.207 182.088C217.146 182.088 217.88 181.842 218.408 181.35C218.946 180.848 219.215 180.188 219.215 179.367C219.215 177.38 218.121 176.387 215.934 176.387H213.842V173.297ZM239.299 176.77C239.299 179.522 238.729 181.628 237.59 183.086C236.451 184.544 234.783 185.273 232.586 185.273C230.417 185.273 228.758 184.558 227.609 183.127C226.461 181.696 225.873 179.645 225.846 176.975V173.311C225.846 170.531 226.42 168.421 227.568 166.98C228.726 165.54 230.389 164.82 232.559 164.82C234.728 164.82 236.387 165.536 237.535 166.967C238.684 168.389 239.271 170.435 239.299 173.105V176.77ZM235.348 172.75C235.348 171.1 235.12 169.902 234.664 169.154C234.217 168.398 233.516 168.02 232.559 168.02C231.629 168.02 230.941 168.38 230.494 169.1C230.057 169.811 229.824 170.927 229.797 172.449V177.289C229.797 178.911 230.016 180.119 230.453 180.912C230.9 181.696 231.611 182.088 232.586 182.088C233.552 182.088 234.249 181.71 234.678 180.953C235.106 180.197 235.329 179.039 235.348 177.48V172.75ZM166.688 214.906H160.139V213.525H166.688V214.906ZM170.461 212.801L171.432 203.094H181.385V204.611H172.84L172.143 211.338C173.209 210.609 174.458 210.244 175.889 210.244C177.684 210.244 179.115 210.827 180.182 211.994C181.248 213.161 181.781 214.715 181.781 216.656C181.781 218.753 181.262 220.38 180.223 221.537C179.184 222.695 177.721 223.273 175.834 223.273C174.102 223.273 172.699 222.79 171.623 221.824C170.548 220.858 169.932 219.505 169.777 217.764H171.35C171.505 219.122 171.965 220.152 172.73 220.854C173.496 221.546 174.531 221.893 175.834 221.893C177.256 221.893 178.327 221.441 179.047 220.539C179.776 219.637 180.141 218.352 180.141 216.684C180.141 215.225 179.735 214.036 178.924 213.115C178.113 212.195 177.005 211.734 175.602 211.734C174.827 211.734 174.152 211.835 173.578 212.035C173.004 212.227 172.398 212.605 171.76 213.17L170.461 212.801ZM224.273 214.906H217.725V213.525H224.273V214.906ZM228.047 212.801L229.018 203.094H238.971V204.611H230.426L229.729 211.338C230.795 210.609 232.044 210.244 233.475 210.244C235.27 210.244 236.701 210.827 237.768 211.994C238.834 213.161 239.367 214.715 239.367 216.656C239.367 218.753 238.848 220.38 237.809 221.537C236.77 222.695 235.307 223.273 233.42 223.273C231.688 223.273 230.285 222.79 229.209 221.824C228.133 220.858 227.518 219.505 227.363 217.764H228.936C229.09 219.122 229.551 220.152 230.316 220.854C231.082 221.546 232.117 221.893 233.42 221.893C234.842 221.893 235.913 221.441 236.633 220.539C237.362 219.637 237.727 218.352 237.727 216.684C237.727 215.225 237.321 214.036 236.51 213.115C235.699 212.195 234.591 211.734 233.188 211.734C232.413 211.734 231.738 211.835 231.164 212.035C230.59 212.227 229.984 212.605 229.346 213.17L228.047 212.801ZM174.904 250.623L177.393 246.207H181.617L177.406 253.453L181.795 261H177.557L174.918 256.352L172.293 261H168.041L172.43 253.453L168.232 246.207H172.471L174.904 250.623ZM203.055 250.801H190.832V247.574H203.055V250.801ZM203.055 256.721H190.832V253.494H203.055V256.721ZM226.967 261H213.322V258.293L219.762 251.43C220.646 250.464 221.298 249.62 221.717 248.9C222.145 248.18 222.359 247.497 222.359 246.85C222.359 245.965 222.136 245.273 221.689 244.771C221.243 244.261 220.605 244.006 219.775 244.006C218.882 244.006 218.176 244.316 217.656 244.936C217.146 245.546 216.891 246.353 216.891 247.355H212.926C212.926 246.143 213.213 245.036 213.787 244.033C214.37 243.031 215.191 242.247 216.248 241.682C217.305 241.107 218.504 240.82 219.844 240.82C221.895 240.82 223.485 241.312 224.615 242.297C225.755 243.281 226.324 244.671 226.324 246.467C226.324 247.451 226.069 248.454 225.559 249.475C225.048 250.495 224.173 251.685 222.934 253.043L218.408 257.814H226.967V261ZM229.988 251.211L231.137 241.094H242.293V244.389H234.377L233.885 248.668C234.824 248.167 235.822 247.916 236.879 247.916C238.775 247.916 240.26 248.504 241.336 249.68C242.411 250.855 242.949 252.501 242.949 254.615C242.949 255.9 242.676 257.053 242.129 258.074C241.591 259.086 240.816 259.874 239.805 260.439C238.793 260.995 237.599 261.273 236.223 261.273C235.02 261.273 233.903 261.032 232.873 260.549C231.843 260.057 231.027 259.368 230.426 258.484C229.833 257.6 229.519 256.593 229.482 255.463H233.393C233.475 256.292 233.762 256.939 234.254 257.404C234.755 257.86 235.407 258.088 236.209 258.088C237.102 258.088 237.79 257.769 238.273 257.131C238.757 256.484 238.998 255.572 238.998 254.396C238.998 253.266 238.72 252.4 238.164 251.799C237.608 251.197 236.82 250.896 235.799 250.896C234.86 250.896 234.099 251.143 233.516 251.635L233.133 251.99L229.988 251.211Z" fill="#5EA67D"/>
<path d="M188.306 118.95C182.672 117.948 176.892 117.069 171.16 117.615C159.221 118.752 150.421 130.115 143.933 139.155C140.9 143.38 137.3 148.914 137.3 154.35C137.3 161.188 147.18 161.441 152.085 161.454C165.777 161.491 180.078 158.094 191.632 150.53C197.313 146.811 204.286 141.321 207.094 134.863C208.72 131.123 207.537 126.683 205.143 123.549C202.808 120.492 199.314 118.376 195.554 117.636C187.62 116.073 180.747 120.154 173.522 122.646" stroke="#5EA67D" stroke-width="5" stroke-linecap="round" stroke-linejoin="round"/>
<path d="M260 123.5C265.677 127.574 275.815 136.307 281.235 140.723C282.638 141.866 286.23 144.485 286.23 144.485" stroke="#5EA67D" stroke-width="6" stroke-linecap="round" stroke-linejoin="round"/>
<path d="M264 147.75C270.107 138.128 277.03 127.538 285.645 120" stroke="#5EA67D" stroke-width="6" stroke-linecap="round" stroke-linejoin="round"/>
</svg>
