<svg width="350" height="350" viewBox="0 0 350 350" fill="none" xmlns="http://www.w3.org/2000/svg">
<rect x="54" y="115" width="32" height="55" rx="5" fill="#5EA67D"/>
<rect x="96" y="115" width="32" height="55" rx="5" fill="#C1DCCD"/>
<rect x="138" y="115" width="32" height="55" rx="5" fill="#5EA67D"/>
<rect x="180" y="115" width="32" height="55" rx="5" fill="#C1DCCD"/>
<rect x="222" y="115" width="32" height="55" rx="5" fill="#5EA67D"/>
<rect x="264" y="115" width="32" height="55" rx="5" fill="#C1DCCD"/>
<rect x="264" y="181" width="32" height="55" rx="5" fill="#5EA67D"/>
<rect x="54" y="181" width="32" height="55" rx="5" fill="#C1DCCD"/>
<rect x="96" y="181" width="32" height="55" rx="5" fill="#5EA67D"/>
<rect x="138" y="181" width="32" height="55" rx="5" fill="#C1DCCD"/>
<rect x="180" y="181" width="32" height="55" rx="5" fill="#5EA67D"/>
<rect x="222" y="181" width="32" height="55" rx="5" fill="#C1DCCD"/>
</svg>
