<svg width="350" height="350" viewBox="0 0 350 350" fill="none" xmlns="http://www.w3.org/2000/svg">
<g clip-path="url(#clip0)">
<path d="M287.697 157.906C287.996 158.896 288.596 159.456 289.067 160.145C292.966 165.788 294.294 172.076 293.566 178.838C293.051 183.748 291.167 188.098 288.211 192.017C288.039 192.276 287.568 192.534 287.911 192.922C288.125 193.18 288.51 192.922 288.81 192.75C293.737 190.338 298.321 187.452 302.39 183.662C304.49 181.681 306.375 179.57 308.174 177.374C309.031 176.297 309.245 175.177 308.474 174.014C307.317 172.205 308.088 170.612 309.159 170.095C310.616 169.362 311.901 169.879 312.972 171.645C314.728 174.574 314.3 178.02 311.944 180.905C307.66 186.16 302.733 190.725 296.907 194.214C292.537 196.841 287.954 198.909 283.027 200.373C276.515 202.268 269.918 202.785 263.235 202.484C259.294 202.311 255.396 201.536 251.54 200.545C246.185 199.167 241.259 196.884 236.546 194.042C233.376 192.147 230.42 189.864 227.721 187.28C225.622 185.255 223.652 183.188 221.809 180.905C219.068 177.546 218.896 173.885 221.595 170.396C225.708 165.055 230.677 160.576 236.418 157.044C240.573 154.46 244.943 152.393 249.612 150.971C256.895 148.732 264.349 148.086 271.932 148.646C276.772 148.99 281.485 150.024 286.026 151.661C293.051 154.159 299.435 157.82 304.961 162.902C305.989 163.849 306.16 164.754 305.646 165.874C304.918 167.51 303.076 167.898 301.619 166.606C298.278 163.634 294.594 161.222 290.652 159.155C289.753 158.638 288.853 158.121 287.697 157.906ZM266.834 153.383C254.839 153.383 244.9 163.333 244.857 175.349C244.857 187.538 254.71 197.53 266.791 197.53C278.829 197.53 288.768 187.581 288.768 175.478C288.768 163.376 278.872 153.383 266.834 153.383ZM245.842 192.965C245.971 192.534 245.714 192.319 245.542 192.104C243.786 189.821 242.458 187.323 241.473 184.609C240.016 180.69 239.673 176.641 240.059 172.55C240.53 167.467 242.33 162.902 245.5 158.853C245.671 158.638 246.057 158.336 245.8 158.035C245.542 157.733 245.2 158.035 244.9 158.164C237.146 161.825 230.549 166.951 225.322 173.799C224.508 174.832 224.508 176.168 225.322 177.158C226.736 178.838 228.064 180.561 229.606 182.111C233.376 185.902 237.66 189.046 242.415 191.544C243.529 192.104 244.6 192.793 245.842 192.965Z" fill="#379A99"/>
<path d="M67.9301 127.11C73.4135 126.852 78.5114 128.359 83.1381 131.116C90.3351 135.38 95.2188 141.539 97.5321 149.765C98.3032 152.479 98.7316 155.235 98.6888 158.035C98.646 163.16 97.4893 168.027 95.0903 172.593C93.5052 175.565 91.3632 178.106 89.0928 180.561C85.4942 184.437 82.624 188.744 81.553 194.085C81.1246 196.238 81.4673 198.306 81.7244 200.373C82.5383 207.695 80.225 213.854 74.5702 218.678C70.2434 222.382 65.1455 223.631 59.7049 222.942C53.0219 222.081 48.0525 218.42 44.8396 212.39C43.1688 209.289 42.5691 205.886 42.5262 202.44C42.4406 196.927 41.6695 191.501 40.727 186.117C39.5703 179.915 38.4137 173.799 37.5569 167.597C37 163.29 36.8286 158.982 37.1713 154.632C37.514 150.239 39.0134 146.148 41.2411 142.314C43.5116 138.438 46.4675 135.165 50.066 132.666C53.8359 130.039 57.9485 128.144 62.618 127.498C64.4172 127.197 66.1736 127.197 67.9301 127.11ZM92.8198 157.777C92.6913 152.78 91.4489 147.913 88.236 143.649C81.8529 135.122 73.4563 131.461 62.9178 133.399C57.006 134.475 52.2508 137.577 48.4381 142.142C46.596 144.382 45.0966 146.923 44.197 149.679C42.9975 153.426 42.3977 157.26 42.8261 161.222C43.2545 165.228 43.5972 169.276 44.2827 173.282C45.0966 177.933 46.0391 182.585 46.8102 187.237C47.6241 192.104 48.3524 197.014 48.2239 201.967C48.1811 203.56 48.4381 205.111 48.8237 206.661C49.6376 209.806 51.394 212.39 53.9644 214.371C56.4919 216.395 59.4907 217.343 62.618 217.257C65.4882 217.171 68.2299 216.223 70.5004 214.328C74.6558 210.882 76.6265 206.489 75.8125 201.105C75.2128 197.014 75.3413 193.137 76.7121 189.261C78.5971 183.92 81.8529 179.441 85.7084 175.435C90.4208 170.568 92.7341 164.754 92.8198 157.777Z" fill="#379A99"/>
<path d="M269.318 218.98C269.318 220.487 269.318 221.994 269.318 223.502C269.276 225.052 268.333 226 266.834 226C265.334 226 264.392 225.052 264.392 223.502C264.349 220.487 264.349 217.472 264.392 214.457C264.392 213.165 265.549 212.088 266.791 212.045C268.119 212.002 269.233 213.079 269.318 214.457C269.318 214.543 269.318 214.586 269.318 214.672C269.318 216.094 269.318 217.558 269.318 218.98Z" fill="#379A99"/>
<path d="M269.318 131.977C269.318 133.442 269.318 134.906 269.318 136.371C269.318 137.792 268.247 138.912 266.962 138.912C265.591 138.955 264.392 137.792 264.392 136.328C264.392 133.399 264.392 130.47 264.392 127.541C264.392 125.991 265.334 125.043 266.834 125C268.333 125 269.318 125.948 269.318 127.584C269.318 128.316 269.318 129.092 269.318 129.824C269.318 130.556 269.318 131.245 269.318 131.977Z" fill="#379A99"/>
<path d="M233.033 138.998C233.719 138.955 234.276 139.213 234.747 139.687C236.246 141.194 237.746 142.659 239.202 144.166C240.188 145.2 240.188 146.794 239.202 147.741C238.26 148.689 236.675 148.689 235.647 147.655C234.147 146.191 232.648 144.683 231.191 143.176C230.377 142.357 230.292 141.367 230.72 140.376C231.148 139.472 231.92 138.912 233.033 138.998Z" fill="#379A99"/>
<path d="M300.591 211.959C299.863 212.002 299.306 211.701 298.792 211.184C297.378 209.719 295.922 208.298 294.508 206.834C293.437 205.757 293.437 204.163 294.422 203.173C295.408 202.182 296.993 202.225 298.064 203.302C299.563 204.766 301.062 206.274 302.519 207.781C303.333 208.6 303.29 209.633 302.862 210.581C302.433 211.571 301.662 212.045 300.591 211.959Z" fill="#379A99"/>
<path d="M296.136 148.43C295.193 148.387 294.379 148 293.951 147.095C293.523 146.148 293.523 145.157 294.251 144.382C295.836 142.702 297.464 141.065 299.178 139.429C299.991 138.653 301.577 138.783 302.39 139.601C303.247 140.462 303.461 142.056 302.647 142.917C301.062 144.597 299.392 146.234 297.764 147.87C297.293 148.344 296.736 148.43 296.136 148.43Z" fill="#379A99"/>
<path d="M233.248 211.959C232.091 211.959 231.191 211.615 230.763 210.581C230.335 209.547 230.335 208.557 231.191 207.695C232.691 206.188 234.147 204.68 235.647 203.216C236.675 202.225 238.26 202.225 239.202 203.173C240.145 204.12 240.145 205.714 239.159 206.748C237.703 208.255 236.204 209.719 234.704 211.227C234.276 211.744 233.762 212.002 233.248 211.959Z" fill="#379A99"/>
<path d="M277.03 175.522C277.501 180.733 272.146 185.858 266.791 185.815C261.564 185.772 256.509 180.733 256.552 175.392C256.595 170.31 261.479 165.055 266.919 165.099C271.974 165.142 277.501 170.095 277.03 175.522ZM272.06 175.349C272.017 172.679 269.533 170.181 266.877 170.224C263.963 170.267 261.522 172.722 261.564 175.565C261.65 178.364 264.049 180.776 266.791 180.776C269.704 180.733 272.103 178.278 272.06 175.349Z" fill="#379A99"/>
<path d="M87.4649 158.164C87.4649 163.117 85.7514 167.381 82.5384 171.128C81.5 172 80 172 79 171.5L78 170.5C78 170.5 77 169.5 78.383 166.951C80.1394 164.84 81.2532 162.428 81.5531 159.672C82.2385 153.297 78.64 146.664 72.0856 144.726C65.2741 142.745 58.8053 145.588 55.5495 151.531C54.1787 154.072 53.7931 156.872 54.0501 159.758C54.093 160.533 54.6071 160.835 55.2925 160.878C58.5054 161.05 61.3329 162.342 63.9461 164.022C67.1162 166.089 69.5152 168.975 71.0146 172.464C73.4564 178.063 73.2851 183.748 70.8004 189.261C68.8726 193.482 63.1321 195.937 58.3769 193.913C54.6927 192.319 52.765 189.562 52.0367 185.772C51.2227 181.465 50.3659 177.201 49.6805 172.894C48.9522 168.372 48.224 163.806 48.0955 159.241C47.9669 153.728 49.552 148.775 53.4504 144.597C57.2203 140.548 61.9326 138.481 67.2875 138.223C71.957 138.007 76.2838 139.472 80.0537 142.4C84.5947 145.932 87.4649 151.876 87.4649 158.164ZM66.6449 180.173C66.8163 178.364 66.4307 176.383 65.4454 174.488C63.3891 170.482 60.219 167.855 55.7637 166.907C54.9498 166.735 54.6071 166.951 54.7784 167.812C54.9926 169.19 55.1211 170.568 55.3782 171.947C56.1921 176.383 57.0489 180.819 57.9057 185.255C58.2484 186.935 59.7906 188.486 61.3328 188.658C63.2606 188.873 64.9314 188.055 65.7025 186.289C66.5593 184.48 66.6878 182.456 66.6449 180.173Z" fill="#379A99"/>
<path d="M111.5 151L122 148M111 170L126 172.5M102 185.5L110 193" stroke="#379A99" stroke-width="6" stroke-linecap="round"/>
</g>
<defs>
<clipPath id="clip0">
<rect width="277" height="101" fill="white" transform="translate(37 125)"/>
</clipPath>
</defs>
</svg>
