<svg width="350" height="350" viewBox="0 0 350 350" fill="none" xmlns="http://www.w3.org/2000/svg">
<rect x="42" y="179" width="30" height="100" rx="5" fill="#DF6D4D" fill-opacity="0.9"/>
<rect x="101" y="152" width="30" height="100" rx="5" fill="#DF6D4D" fill-opacity="0.9"/>
<rect x="160" y="125" width="30" height="100" rx="5" fill="#DF6D4D" fill-opacity="0.9"/>
<rect x="219" y="98" width="30" height="100" rx="5" fill="#DF6D4D" fill-opacity="0.9"/>
<rect x="278" y="71" width="30" height="100" rx="5" fill="#DF6D4D" fill-opacity="0.9"/>
<path d="M58.8223 212H56V201.121L52.6309 202.166V199.871L58.5195 197.762H58.8223V212Z" fill="white" fill-opacity="0.95"/>
<path d="M120.713 185H110.967V183.066L115.566 178.164C116.198 177.474 116.663 176.872 116.963 176.357C117.269 175.843 117.422 175.355 117.422 174.893C117.422 174.261 117.262 173.766 116.943 173.408C116.624 173.044 116.169 172.861 115.576 172.861C114.938 172.861 114.434 173.083 114.062 173.525C113.698 173.962 113.516 174.538 113.516 175.254H110.684C110.684 174.388 110.889 173.597 111.299 172.881C111.715 172.165 112.301 171.605 113.057 171.201C113.812 170.791 114.668 170.586 115.625 170.586C117.09 170.586 118.226 170.938 119.033 171.641C119.847 172.344 120.254 173.337 120.254 174.619C120.254 175.322 120.072 176.038 119.707 176.768C119.342 177.497 118.717 178.346 117.832 179.316L114.6 182.725H120.713V185Z" fill="white" fill-opacity="0.95"/>
<path d="M172.838 149.641H174.342C175.058 149.641 175.589 149.462 175.934 149.104C176.279 148.745 176.451 148.27 176.451 147.678C176.451 147.105 176.279 146.659 175.934 146.34C175.595 146.021 175.126 145.861 174.527 145.861C173.987 145.861 173.535 146.011 173.17 146.311C172.805 146.604 172.623 146.988 172.623 147.463H169.801C169.801 146.721 169.999 146.057 170.396 145.471C170.8 144.878 171.36 144.416 172.076 144.084C172.799 143.752 173.593 143.586 174.459 143.586C175.963 143.586 177.141 143.947 177.994 144.67C178.847 145.386 179.273 146.376 179.273 147.639C179.273 148.29 179.075 148.889 178.678 149.436C178.281 149.982 177.76 150.402 177.115 150.695C177.916 150.982 178.512 151.411 178.902 151.984C179.299 152.557 179.498 153.234 179.498 154.016C179.498 155.279 179.036 156.291 178.111 157.053C177.193 157.814 175.976 158.195 174.459 158.195C173.04 158.195 171.878 157.821 170.973 157.072C170.074 156.324 169.625 155.334 169.625 154.104H172.447C172.447 154.637 172.646 155.074 173.043 155.412C173.447 155.751 173.941 155.92 174.527 155.92C175.198 155.92 175.722 155.744 176.1 155.393C176.484 155.035 176.676 154.562 176.676 153.977C176.676 152.557 175.895 151.848 174.332 151.848H172.838V149.641Z" fill="white" fill-opacity="0.95"/>
<path d="M237.316 125.648H238.928V127.924H237.316V131H234.494V127.924H228.664L228.537 126.146L234.465 116.781H237.316V125.648ZM231.35 125.648H234.494V120.629L234.309 120.951L231.35 125.648Z" fill="white" fill-opacity="0.95"/>
<path d="M288.387 97.0078L289.207 89.7812H297.176V92.1348H291.521L291.17 95.1914C291.84 94.8333 292.553 94.6543 293.309 94.6543C294.663 94.6543 295.724 95.0742 296.492 95.9141C297.26 96.7539 297.645 97.929 297.645 99.4395C297.645 100.357 297.449 101.181 297.059 101.91C296.674 102.633 296.121 103.196 295.398 103.6C294.676 103.997 293.823 104.195 292.84 104.195C291.98 104.195 291.183 104.023 290.447 103.678C289.712 103.326 289.129 102.835 288.699 102.203C288.276 101.572 288.051 100.852 288.025 100.045H290.818C290.877 100.637 291.082 101.1 291.434 101.432C291.792 101.757 292.257 101.92 292.83 101.92C293.468 101.92 293.96 101.692 294.305 101.236C294.65 100.774 294.822 100.123 294.822 99.2832C294.822 98.4759 294.624 97.8574 294.227 97.4277C293.829 96.998 293.266 96.7832 292.537 96.7832C291.867 96.7832 291.323 96.959 290.906 97.3105L290.633 97.5645L288.387 97.0078Z" fill="white" fill-opacity="0.95"/>
</svg>
