<svg width="350" height="350" viewBox="0 0 350 350" fill="none" xmlns="http://www.w3.org/2000/svg">
<rect x="202" y="132" width="116" height="92" rx="6" stroke="#379A99" stroke-width="6"/>
<g clip-path="url(#clip0)">
<path d="M259.752 212.877C244.913 212.877 230.074 212.877 215.235 212.877C212.69 212.877 212.627 212.694 213.497 210.364C218.029 198.473 222.499 186.581 227.032 174.69C229.888 167.212 232.682 159.795 235.538 152.317C236.034 151.03 236.469 150.969 237.4 152.133C241.622 157.343 245.844 162.553 250.066 167.764C255.592 174.629 261.18 181.433 266.705 188.298C267.388 189.156 267.947 189.095 268.754 188.482C272.914 185.356 277.074 182.291 281.296 179.165C283.221 177.755 283.345 177.755 284.649 179.716C291.354 189.585 298.059 199.515 304.703 209.384C304.951 209.751 305.199 210.18 305.386 210.548C305.758 211.161 306.69 211.713 306.255 212.51C305.82 213.245 304.827 212.877 304.082 212.877C289.367 212.939 274.59 212.877 259.752 212.877Z" fill="#379A99"/>
<path d="M283.345 154.83C282.91 148.455 288.56 142.939 295.079 143C301.66 143.061 307 148.271 307 154.83C307 161.266 301.66 166.17 295.017 166.354C288.498 166.599 282.786 160.408 283.345 154.83Z" fill="#379A99"/>
</g>
<g clip-path="url(#clip1)">
<path d="M122 174.92C122 190.44 122 206.014 122 221.534C122 223.42 121.623 225.145 120.17 226.546C118.071 228.594 114.304 228.432 112.259 226.384C111.614 225.737 110.968 225.145 110.376 224.498C101.765 215.876 93.155 207.307 84.5984 198.685C83.7373 197.823 82.8225 197.446 81.6386 197.446C75.0731 197.5 68.4538 197.446 61.8884 197.446C57.1526 197.446 55 195.29 55 190.656C55 180.147 55 169.639 55 159.13C55 154.712 57.2064 152.502 61.6193 152.502C68.3462 152.502 75.0731 152.502 81.8 152.502C82.9301 152.502 83.7373 152.179 84.5446 151.37C93.6394 142.263 102.788 133.156 111.829 123.995C114.412 121.354 118.125 121.462 120.278 123.456C121.677 124.749 122.054 126.42 122.054 128.198C122.054 134.341 122.054 140.485 122.054 146.628C122 156.059 122 165.489 122 174.92Z" fill="#379A99"/>
</g>
<path d="M164.688 171.531H175.969V179.688H164.688V192.438H156.094V179.688H144.781V171.531H156.094V159.312H164.688V171.531Z" fill="#A5DFDE"/>
<defs>
<clipPath id="clip0">
<rect width="94" height="70" fill="white" transform="translate(213 143)"/>
</clipPath>
<clipPath id="clip1">
<rect width="67" height="106" fill="white" transform="translate(55 122)"/>
</clipPath>
</defs>
</svg>
