<svg width="350" height="350" viewBox="0 0 350 350" fill="none" xmlns="http://www.w3.org/2000/svg">
<rect x="103.5" y="147.74" width="70.64" height="55.76" rx="6.5" stroke="#379A99" stroke-width="5"/>
<g clip-path="url(#clip0)">
<path d="M137.426 192.284C128.226 192.284 119.026 192.284 109.826 192.284C108.248 192.284 108.209 192.17 108.748 190.726C111.558 183.353 114.33 175.981 117.14 168.608C118.91 163.971 120.643 159.373 122.413 154.737C122.721 153.938 122.991 153.9 123.568 154.623C126.186 157.853 128.803 161.083 131.421 164.313C134.847 168.57 138.311 172.788 141.737 177.045C142.161 177.577 142.507 177.539 143.008 177.159C145.587 175.22 148.166 173.32 150.783 171.382C151.977 170.508 152.054 170.508 152.862 171.724C157.019 177.843 161.177 183.999 165.296 190.118C165.45 190.346 165.604 190.612 165.719 190.84C165.95 191.22 166.528 191.562 166.258 192.056C165.989 192.512 165.373 192.284 164.911 192.284C155.788 192.322 146.626 192.284 137.426 192.284Z" fill="#379A99"/>
<path d="M152.054 161.255C151.784 157.303 155.287 153.882 159.329 153.92C163.409 153.958 166.72 157.189 166.72 161.255C166.72 165.245 163.409 168.286 159.291 168.4C155.249 168.552 151.707 164.713 152.054 161.255Z" fill="#379A99"/>
</g>
<path d="M120.351 132.914L114.517 123.683M138.723 128.046L136.901 112.949M156.13 132.32L161.075 122.532" stroke="#379A99" stroke-width="6" stroke-linecap="round"/>
<path d="M234.88 173.724C234.88 182.439 234.88 191.184 234.88 199.899C234.88 200.958 234.671 201.926 233.864 202.713C232.699 203.863 230.607 203.772 229.472 202.622C229.113 202.259 228.755 201.926 228.426 201.563C223.645 196.721 218.865 191.91 214.114 187.069C213.636 186.584 213.128 186.373 212.47 186.373C208.825 186.403 205.15 186.373 201.505 186.373C198.875 186.373 197.68 185.162 197.68 182.56C197.68 176.659 197.68 170.759 197.68 164.858C197.68 162.377 198.905 161.136 201.355 161.136C205.09 161.136 208.825 161.136 212.56 161.136C213.187 161.136 213.636 160.955 214.084 160.501C219.133 155.387 224.213 150.273 229.233 145.129C230.667 143.647 232.729 143.707 233.924 144.827C234.701 145.553 234.91 146.491 234.91 147.489C234.91 150.939 234.91 154.389 234.91 157.838C234.88 163.134 234.88 168.429 234.88 173.724Z" fill="#379A99"/>
<path d="M247.629 154.299L257.328 149.281M250.899 173.022L266.097 172.505M245.144 189.997L254.47 195.765" stroke="#379A99" stroke-width="6" stroke-linecap="round"/>
<circle cx="175" cy="174" r="109.5" stroke="#A5DFDE" stroke-width="9"/>
<line x1="255.292" y1="99.0683" x2="104.292" y2="261.068" stroke="#A5DFDE" stroke-width="9"/>
<defs>
<clipPath id="clip0">
<rect width="58.28" height="43.4" fill="white" transform="translate(108.44 148.96)"/>
</clipPath>
</defs>
</svg>
