<svg width="350" height="350" viewBox="0 0 350 350" fill="none" xmlns="http://www.w3.org/2000/svg">
<path d="M178.68 155.117H165.484V149.656H178.68V155.117Z" fill="#379A99"/>
<path d="M309.047 145.516H288.094V139.984H309.047V145.516ZM309.047 155.664H288.094V150.133H309.047V155.664Z" fill="#379A99"/>
<path d="M54.8008 228.764C54.8008 228.016 54.5911 227.424 54.1719 226.986C53.7617 226.54 53.0599 226.13 52.0664 225.756C51.0729 225.382 50.2161 225.013 49.4961 224.648C48.776 224.275 48.1562 223.851 47.6367 223.377C47.1263 222.894 46.7253 222.329 46.4336 221.682C46.151 221.035 46.0098 220.264 46.0098 219.371C46.0098 217.831 46.502 216.568 47.4863 215.584C48.4707 214.6 49.7786 214.025 51.4102 213.861V210.936H53.5977V213.902C55.2109 214.13 56.4733 214.805 57.3848 215.926C58.2962 217.038 58.752 218.482 58.752 220.26H54.8008C54.8008 219.166 54.5729 218.35 54.1172 217.812C53.6706 217.266 53.069 216.992 52.3125 216.992C51.5651 216.992 50.9863 217.206 50.5762 217.635C50.166 218.054 49.9609 218.637 49.9609 219.385C49.9609 220.077 50.1615 220.633 50.5625 221.053C50.9635 221.472 51.7064 221.9 52.791 222.338C53.8848 222.775 54.7826 223.19 55.4844 223.582C56.1862 223.965 56.7786 224.402 57.2617 224.895C57.7448 225.378 58.1139 225.934 58.3691 226.562C58.6243 227.182 58.752 227.907 58.752 228.736C58.752 230.286 58.2689 231.544 57.3027 232.51C56.3366 233.476 55.0059 234.046 53.3105 234.219V236.939H51.1367V234.232C49.2682 234.032 47.819 233.371 46.7891 232.25C45.7682 231.12 45.2578 229.62 45.2578 227.752H49.209C49.209 228.837 49.4642 229.671 49.9746 230.254C50.4941 230.828 51.237 231.115 52.2031 231.115C53.0052 231.115 53.6387 230.906 54.1035 230.486C54.5684 230.058 54.8008 229.484 54.8008 228.764ZM71.0293 234H67.0781V218.77L62.3613 220.232V217.02L70.6055 214.066H71.0293V234ZM90.9082 225.77C90.9082 228.522 90.3385 230.628 89.1992 232.086C88.0599 233.544 86.3919 234.273 84.1953 234.273C82.026 234.273 80.3672 233.558 79.2188 232.127C78.0703 230.696 77.4824 228.645 77.4551 225.975V222.311C77.4551 219.531 78.0293 217.421 79.1777 215.98C80.3353 214.54 81.9987 213.82 84.168 213.82C86.3372 213.82 87.9961 214.536 89.1445 215.967C90.293 217.389 90.8809 219.435 90.9082 222.105V225.77ZM86.957 221.75C86.957 220.1 86.7292 218.902 86.2734 218.154C85.8268 217.398 85.125 217.02 84.168 217.02C83.2383 217.02 82.5501 217.38 82.1035 218.1C81.666 218.811 81.4336 219.927 81.4062 221.449V226.289C81.4062 227.911 81.625 229.119 82.0625 229.912C82.5091 230.696 83.2201 231.088 84.1953 231.088C85.1615 231.088 85.8587 230.71 86.2871 229.953C86.7155 229.197 86.9388 228.039 86.957 226.48V221.75ZM93.957 232.059C93.957 231.43 94.1667 230.919 94.5859 230.527C95.0143 230.135 95.5475 229.939 96.1855 229.939C96.8327 229.939 97.3659 230.135 97.7852 230.527C98.2135 230.919 98.4277 231.43 98.4277 232.059C98.4277 232.678 98.2181 233.184 97.7988 233.576C97.3796 233.959 96.8418 234.15 96.1855 234.15C95.5384 234.15 95.0052 233.959 94.5859 233.576C94.1667 233.184 93.957 232.678 93.957 232.059ZM115.135 225.77C115.135 228.522 114.565 230.628 113.426 232.086C112.286 233.544 110.618 234.273 108.422 234.273C106.253 234.273 104.594 233.558 103.445 232.127C102.297 230.696 101.709 228.645 101.682 225.975V222.311C101.682 219.531 102.256 217.421 103.404 215.98C104.562 214.54 106.225 213.82 108.395 213.82C110.564 213.82 112.223 214.536 113.371 215.967C114.52 217.389 115.107 219.435 115.135 222.105V225.77ZM111.184 221.75C111.184 220.1 110.956 218.902 110.5 218.154C110.053 217.398 109.352 217.02 108.395 217.02C107.465 217.02 106.777 217.38 106.33 218.1C105.893 218.811 105.66 219.927 105.633 221.449V226.289C105.633 227.911 105.852 229.119 106.289 229.912C106.736 230.696 107.447 231.088 108.422 231.088C109.388 231.088 110.085 230.71 110.514 229.953C110.942 229.197 111.165 228.039 111.184 226.48V221.75ZM131.213 225.77C131.213 228.522 130.643 230.628 129.504 232.086C128.365 233.544 126.697 234.273 124.5 234.273C122.331 234.273 120.672 233.558 119.523 232.127C118.375 230.696 117.787 228.645 117.76 225.975V222.311C117.76 219.531 118.334 217.421 119.482 215.98C120.64 214.54 122.303 213.82 124.473 213.82C126.642 213.82 128.301 214.536 129.449 215.967C130.598 217.389 131.186 219.435 131.213 222.105V225.77ZM127.262 221.75C127.262 220.1 127.034 218.902 126.578 218.154C126.132 217.398 125.43 217.02 124.473 217.02C123.543 217.02 122.855 217.38 122.408 218.1C121.971 218.811 121.738 219.927 121.711 221.449V226.289C121.711 227.911 121.93 229.119 122.367 229.912C122.814 230.696 123.525 231.088 124.5 231.088C125.466 231.088 126.163 230.71 126.592 229.953C127.02 229.197 127.243 228.039 127.262 226.48V221.75Z" fill="#379A99"/>
<path d="M206.801 228.764C206.801 228.016 206.591 227.424 206.172 226.986C205.762 226.54 205.06 226.13 204.066 225.756C203.073 225.382 202.216 225.013 201.496 224.648C200.776 224.275 200.156 223.851 199.637 223.377C199.126 222.894 198.725 222.329 198.434 221.682C198.151 221.035 198.01 220.264 198.01 219.371C198.01 217.831 198.502 216.568 199.486 215.584C200.471 214.6 201.779 214.025 203.41 213.861V210.936H205.598V213.902C207.211 214.13 208.473 214.805 209.385 215.926C210.296 217.038 210.752 218.482 210.752 220.26H206.801C206.801 219.166 206.573 218.35 206.117 217.812C205.671 217.266 205.069 216.992 204.312 216.992C203.565 216.992 202.986 217.206 202.576 217.635C202.166 218.054 201.961 218.637 201.961 219.385C201.961 220.077 202.161 220.633 202.562 221.053C202.964 221.472 203.706 221.9 204.791 222.338C205.885 222.775 206.783 223.19 207.484 223.582C208.186 223.965 208.779 224.402 209.262 224.895C209.745 225.378 210.114 225.934 210.369 226.562C210.624 227.182 210.752 227.907 210.752 228.736C210.752 230.286 210.269 231.544 209.303 232.51C208.337 233.476 207.006 234.046 205.311 234.219V236.939H203.137V234.232C201.268 234.032 199.819 233.371 198.789 232.25C197.768 231.12 197.258 229.62 197.258 227.752H201.209C201.209 228.837 201.464 229.671 201.975 230.254C202.494 230.828 203.237 231.115 204.203 231.115C205.005 231.115 205.639 230.906 206.104 230.486C206.568 230.058 206.801 229.484 206.801 228.764ZM217.451 222.297H219.557C220.559 222.297 221.302 222.046 221.785 221.545C222.268 221.044 222.51 220.378 222.51 219.549C222.51 218.747 222.268 218.122 221.785 217.676C221.311 217.229 220.655 217.006 219.816 217.006C219.06 217.006 218.426 217.215 217.916 217.635C217.406 218.045 217.15 218.583 217.15 219.248H213.199C213.199 218.209 213.477 217.279 214.033 216.459C214.598 215.63 215.382 214.982 216.385 214.518C217.396 214.053 218.508 213.82 219.721 213.82C221.826 213.82 223.476 214.326 224.67 215.338C225.864 216.34 226.461 217.726 226.461 219.494C226.461 220.406 226.183 221.244 225.627 222.01C225.071 222.775 224.342 223.363 223.439 223.773C224.561 224.174 225.395 224.776 225.941 225.578C226.497 226.38 226.775 227.328 226.775 228.422C226.775 230.19 226.128 231.607 224.834 232.674C223.549 233.74 221.844 234.273 219.721 234.273C217.734 234.273 216.107 233.749 214.84 232.701C213.582 231.653 212.953 230.268 212.953 228.545H216.904C216.904 229.292 217.182 229.903 217.738 230.377C218.303 230.851 218.996 231.088 219.816 231.088C220.755 231.088 221.489 230.842 222.018 230.35C222.555 229.848 222.824 229.188 222.824 228.367C222.824 226.38 221.73 225.387 219.543 225.387H217.451V222.297ZM229.879 232.059C229.879 231.43 230.089 230.919 230.508 230.527C230.936 230.135 231.469 229.939 232.107 229.939C232.755 229.939 233.288 230.135 233.707 230.527C234.135 230.919 234.35 231.43 234.35 232.059C234.35 232.678 234.14 233.184 233.721 233.576C233.301 233.959 232.764 234.15 232.107 234.15C231.46 234.15 230.927 233.959 230.508 233.576C230.089 233.184 229.879 232.678 229.879 232.059ZM238.246 224.211L239.395 214.094H250.551V217.389H242.635L242.143 221.668C243.081 221.167 244.079 220.916 245.137 220.916C247.033 220.916 248.518 221.504 249.594 222.68C250.669 223.855 251.207 225.501 251.207 227.615C251.207 228.9 250.934 230.053 250.387 231.074C249.849 232.086 249.074 232.874 248.062 233.439C247.051 233.995 245.857 234.273 244.48 234.273C243.277 234.273 242.161 234.032 241.131 233.549C240.101 233.057 239.285 232.368 238.684 231.484C238.091 230.6 237.777 229.593 237.74 228.463H241.65C241.732 229.292 242.02 229.939 242.512 230.404C243.013 230.86 243.665 231.088 244.467 231.088C245.36 231.088 246.048 230.769 246.531 230.131C247.014 229.484 247.256 228.572 247.256 227.396C247.256 226.266 246.978 225.4 246.422 224.799C245.866 224.197 245.077 223.896 244.057 223.896C243.118 223.896 242.357 224.143 241.773 224.635L241.391 224.99L238.246 224.211ZM267.135 225.77C267.135 228.522 266.565 230.628 265.426 232.086C264.286 233.544 262.618 234.273 260.422 234.273C258.253 234.273 256.594 233.558 255.445 232.127C254.297 230.696 253.709 228.645 253.682 225.975V222.311C253.682 219.531 254.256 217.421 255.404 215.98C256.562 214.54 258.225 213.82 260.395 213.82C262.564 213.82 264.223 214.536 265.371 215.967C266.52 217.389 267.107 219.435 267.135 222.105V225.77ZM263.184 221.75C263.184 220.1 262.956 218.902 262.5 218.154C262.053 217.398 261.352 217.02 260.395 217.02C259.465 217.02 258.777 217.38 258.33 218.1C257.893 218.811 257.66 219.927 257.633 221.449V226.289C257.633 227.911 257.852 229.119 258.289 229.912C258.736 230.696 259.447 231.088 260.422 231.088C261.388 231.088 262.085 230.71 262.514 229.953C262.942 229.197 263.165 228.039 263.184 226.48V221.75Z" fill="#379A99"/>
<g clip-path="url(#clip0)">
<path d="M212.429 134.125H212.563C212.232 131.211 212.514 128.259 213.39 125.462C214.266 122.666 215.717 120.088 217.647 117.899C219.576 115.71 221.942 113.958 224.588 112.758C227.234 111.558 230.101 110.938 233 110.938C235.9 110.938 238.766 111.558 241.412 112.758C244.058 113.958 246.424 115.71 248.353 117.899C250.283 120.088 251.734 122.666 252.61 125.462C253.486 128.259 253.768 131.211 253.437 134.125H253.571C255.39 134.125 257.134 134.856 258.42 136.157C259.706 137.458 260.429 139.223 260.429 141.063C260.429 142.902 259.706 144.667 258.42 145.968C257.134 147.269 255.39 148 253.571 148H212.429C210.61 148 208.866 147.269 207.58 145.968C206.294 144.667 205.571 142.902 205.571 141.063C205.571 139.223 206.294 137.458 207.58 136.157C208.866 134.856 210.61 134.125 212.429 134.125ZM237.089 182.354C236.728 183.144 236.152 183.813 235.427 184.282C234.702 184.751 233.86 185.001 233 185.001C232.14 185.001 231.298 184.751 230.573 184.282C229.848 183.813 229.272 183.144 228.911 182.354L214.714 152.625H251.286L237.089 182.354Z" fill="#A5DFDE"/>
</g>
<g clip-path="url(#clip1)">
<path d="M130.351 118.658C124.896 116.37 119.437 115.5 113.98 115.5C96.6597 115.499 79.3403 124.267 62.0195 124.267C57.6756 124.267 53.3345 123.715 48.9906 122.337C48.5027 122.183 48.0133 122.109 47.5352 122.109C45.115 122.109 43 123.982 43 126.583V171.197C43 172.973 44.0167 174.657 45.6494 175.34C51.1042 177.63 56.5633 178.5 62.0195 178.5C79.3403 178.5 96.6611 169.732 113.982 169.732C118.326 169.732 122.667 170.283 127.011 171.661C127.499 171.816 127.988 171.889 128.466 171.889C130.886 171.889 133.001 170.016 133.001 167.416V122.803C133 121.025 131.983 119.343 130.351 118.658V118.658ZM49.75 129.593C52.5794 130.302 55.5325 130.658 58.57 130.849C57.7431 134.982 54.1094 138.097 49.75 138.097V129.593ZM49.75 169.672V162.953C54.5833 162.953 58.4941 166.787 58.7092 171.587C55.5409 171.332 52.5794 170.7 49.75 169.672V169.672ZM88 160.5C81.7858 160.5 76.75 154.455 76.75 147C76.75 139.544 81.7872 133.5 88 133.5C94.2128 133.5 99.25 139.544 99.25 147C99.25 154.457 94.2114 160.5 88 160.5ZM126.25 164.407C123.786 163.789 121.228 163.443 118.611 163.22C119.437 159.552 122.478 156.768 126.25 156.29V164.407ZM126.25 131.204C121.906 130.654 118.535 127.027 118.402 122.548C121.15 122.853 123.758 123.424 126.25 124.328V131.204Z" fill="#A5DFDE"/>
</g>
<defs>
<clipPath id="clip0">
<rect width="64" height="74" fill="white" transform="matrix(-1 0 0 1 265 111)"/>
</clipPath>
<clipPath id="clip1">
<rect width="90" height="72" fill="white" transform="translate(43 111)"/>
</clipPath>
</defs>
</svg>
