<svg width="350" height="350" viewBox="0 0 350 350" fill="none" xmlns="http://www.w3.org/2000/svg">
<g clip-path="url(#clip0)">
<path d="M255.934 175.467C255.934 176.395 255.901 177.357 255.934 178.286C256.066 182.73 255.272 187.074 254.412 191.386C253.816 194.437 253.022 197.455 251.996 200.406C250.572 204.486 248.918 208.499 246.866 212.312C244.086 217.486 240.776 222.295 236.97 226.739C232.834 231.581 228.167 235.793 223.004 239.474C218.57 242.625 213.87 245.344 208.873 247.467C205.365 248.959 201.757 250.219 198.051 251.214C194.278 252.242 190.439 252.939 186.567 253.469C184.482 253.768 182.331 253.702 180.213 253.901C176.473 254.199 172.799 253.768 169.093 253.503C166.644 253.337 164.195 252.872 161.779 252.309C159.727 251.844 157.708 251.38 155.689 250.783C152.115 249.722 148.64 248.462 145.264 246.87C143.245 245.941 141.227 244.979 139.307 243.885C136.494 242.326 133.78 240.602 131.232 238.612C130.537 238.048 129.875 238.081 129.081 238.446C127.128 239.408 125.043 240.038 122.958 240.701C120.476 241.464 117.961 242.028 115.413 242.525C113.758 242.824 112.103 243.089 110.448 243.255C106.642 243.62 102.836 243.852 98.9974 243.852C96.8463 243.852 94.0332 241.398 93.967 238.877C93.9008 235.925 96.6146 233.438 99.4608 233.538C102.87 233.67 106.245 233.372 109.588 233.007C111.871 232.742 114.155 232.377 116.439 231.879C118.888 231.316 121.27 230.586 123.62 229.691C128.287 227.867 132.324 225.147 135.435 221.2C137.222 218.912 138.414 216.325 139.208 213.54C140.399 209.427 140.499 205.215 140.068 201.003C139.936 199.776 139.605 198.582 139.34 197.355C138.811 194.768 140.3 191.916 143.014 191.253C143.94 191.021 144.867 190.955 145.794 190.955C149.467 190.955 153.141 190.955 156.781 190.955C157.973 190.955 158.039 190.822 157.509 189.728C155.855 186.312 154.266 182.862 152.611 179.413C151.056 176.163 149.434 172.913 147.912 169.663C147.316 168.403 146.654 167.176 146.224 165.816C146.158 165.584 146.059 165.319 146.059 165.086C146.092 163.163 145.728 161.239 145.694 159.316C145.628 157.16 145.198 155.038 144.834 152.948C144.437 150.627 143.808 148.372 143.146 146.15C142.617 144.392 141.955 142.734 141.194 141.075C140.068 138.588 138.745 136.2 137.123 133.978C135.104 131.259 132.821 128.805 130.14 126.715C126.963 124.228 123.521 122.304 119.748 120.878C116.736 119.751 113.625 118.922 110.448 118.325C106.742 117.628 103.035 117.429 99.2622 117.496C97.0117 117.529 95.3901 116.467 94.3641 114.444C93.5368 112.62 94.1325 109.835 95.5887 108.608C96.7139 107.646 98.0046 107.148 99.527 107.148C101.976 107.181 104.425 107.049 106.874 107.347C109.422 107.679 111.938 107.977 114.453 108.541C117.597 109.238 120.675 110.133 123.686 111.327C125.308 111.957 126.863 112.72 128.419 113.483C128.982 113.748 129.412 113.781 129.941 113.383C132.423 111.426 135.038 109.636 137.785 108.011C142.021 105.523 146.423 103.401 151.056 101.743C154.597 100.482 158.171 99.421 161.845 98.6914C165.684 97.9286 169.523 97.4311 173.428 97.1658C178.889 96.8342 184.316 97.1327 189.711 97.9286C192.491 98.3266 195.205 98.9567 197.918 99.6863C200.301 100.35 202.651 101.112 205.001 101.908C206.655 102.472 208.277 103.235 209.866 103.965C212.943 105.357 215.955 106.916 218.834 108.74C222.607 111.128 226.181 113.814 229.557 116.733C233.032 119.718 236.044 123.1 238.956 126.583C240.644 128.606 242.067 130.861 243.556 133.05C245.608 136.101 247.296 139.351 248.885 142.667C249.878 144.79 250.672 146.979 251.532 149.168C252.492 151.688 253.22 154.308 253.882 156.895C254.412 159.017 254.809 161.206 255.173 163.395C255.802 167.375 256.132 171.421 255.934 175.467ZM158.833 201.335C156.483 201.335 154.134 201.335 151.817 201.335C150.46 201.335 150.262 201.567 150.427 202.894C150.791 205.447 150.559 208.034 150.262 210.588C149.898 213.738 149.136 216.823 147.879 219.774C146.224 223.721 144.007 227.336 140.962 230.354C139.44 231.846 139.473 232.045 141.326 233.173C144.933 235.362 148.64 237.318 152.578 238.877C156.616 240.469 160.72 241.696 164.989 242.525C166.677 242.857 168.431 243.023 170.119 243.288C174.189 243.918 178.26 243.785 182.331 243.586C186.401 243.387 190.472 242.658 194.443 241.63C196.926 241 199.341 240.204 201.757 239.341C204.206 238.446 206.589 237.318 208.906 236.124C211.024 235.03 213.076 233.77 215.095 232.51C215.922 232.012 215.889 231.548 215.161 230.951C214.267 230.221 213.506 229.326 212.811 228.43C210.925 226.076 209.336 223.555 208.079 220.769C206.755 217.818 205.894 214.767 205.332 211.616C204.835 208.664 204.703 205.68 204.802 202.695C204.835 201.401 204.769 201.368 203.445 201.368C198.779 201.368 194.112 201.401 189.479 201.368C185.607 201.335 182.893 197.554 184.515 194.072C185.839 191.187 187.196 188.335 188.552 185.482C190.141 182.133 191.796 178.783 193.384 175.434C195.105 171.819 196.859 168.171 198.58 164.556C198.944 163.76 199.176 162.931 199.209 162.035C199.308 159.78 199.474 157.525 199.772 155.27C200.103 152.749 200.566 150.262 201.129 147.808C201.79 144.989 202.651 142.236 203.677 139.517C205.1 135.769 206.953 132.254 209.237 128.937C211.322 125.886 213.738 123.167 216.518 120.713C217.047 120.248 217.014 119.917 216.485 119.552C215.095 118.623 213.705 117.695 212.248 116.799C209.237 114.975 206.06 113.45 202.783 112.123C200.731 111.294 198.68 110.564 196.561 109.967C194.079 109.271 191.597 108.641 189.016 108.276C186.236 107.911 183.456 107.38 180.643 107.38C176.969 107.38 173.329 107.281 169.655 107.778C167.074 108.143 164.492 108.541 161.944 109.105C159.429 109.702 156.947 110.432 154.531 111.36C150.857 112.753 147.25 114.312 143.841 116.302C142.186 117.263 140.565 118.258 139.009 119.32C138.248 119.85 138.215 119.983 138.877 120.646C139.44 121.21 140.068 121.707 140.631 122.271C144.304 126.019 147.316 130.231 149.666 134.94C151.453 138.555 152.876 142.302 153.836 146.249C154.233 147.874 154.564 149.532 154.928 151.157C155.59 154.142 155.822 157.16 156.086 160.178C156.252 162.002 156.384 163.76 157.245 165.451C159.164 169.298 160.951 173.212 162.805 177.092C164.095 179.811 165.419 182.498 166.71 185.217C168.1 188.136 169.556 191.021 170.88 193.939C171.509 195.365 171.542 196.891 170.847 198.35C169.788 200.572 167.868 201.335 165.585 201.368C163.334 201.368 161.084 201.335 158.833 201.335ZM204.736 190.888C206.391 190.888 208.045 190.888 209.7 190.888C210.66 190.888 211.587 191.054 212.546 191.22C214.764 191.651 216.749 194.636 216.154 197.057C215.757 198.649 215.492 200.241 215.359 201.866C214.929 207.271 215.359 212.478 217.842 217.42C219.198 220.139 221.019 222.428 223.236 224.484C223.997 225.213 224.262 225.213 224.99 224.517C227.207 222.394 229.259 220.139 231.146 217.718C234.72 213.175 237.732 208.266 240.048 202.96C241.273 200.141 242.332 197.223 243.159 194.271C243.887 191.684 244.582 189.097 244.913 186.444C245.178 184.521 245.377 182.564 245.608 180.607C246.072 176.561 245.873 172.548 245.443 168.535C245.046 164.854 244.417 161.239 243.424 157.658C242.729 155.17 241.935 152.716 240.975 150.295C239.055 145.354 236.507 140.744 233.529 136.399C231.311 133.215 228.796 130.231 226.049 127.445C225.486 126.881 225.056 126.881 224.527 127.379C223.6 128.208 222.64 128.97 221.78 129.899C219.761 132.022 217.941 134.31 216.452 136.83C215.426 138.555 214.499 140.346 213.705 142.203C212.513 144.989 211.686 147.841 210.991 150.759C210.494 152.782 210.164 154.872 209.932 156.928C209.667 159.249 209.369 161.571 209.402 163.926C209.435 165.053 209.138 166.181 208.608 167.176C208.376 167.64 208.112 168.104 207.88 168.569C205.994 172.582 204.107 176.594 202.221 180.607C200.765 183.692 199.275 186.776 197.786 189.86C197.422 190.656 197.521 190.822 198.415 190.822C200.533 190.888 202.618 190.888 204.736 190.888Z" fill="#A5DFDE"/>
<path d="M126.896 166.877C124.017 167.01 121.171 164.39 121.204 161.107C121.237 157.923 123.885 155.369 127.029 155.402C130.14 155.436 132.721 157.956 132.688 161.306C132.688 164.257 130.107 166.977 126.896 166.877Z" fill="#379A99"/>
<path d="M233.165 162.102C233.396 165.12 230.616 167.872 227.505 167.905C224.361 167.905 221.681 165.153 221.747 162.135C221.78 158.951 224.394 156.397 227.472 156.364C230.517 156.331 233.297 158.918 233.165 162.102Z" fill="#A5DFDE"/>
</g>
<path d="M134.078 117.039C132.209 115.705 130.274 114.471 128.205 113.504C128.038 113.471 127.871 113.404 127.704 113.338C126.136 112.571 124.568 111.804 122.933 111.17C119.896 110.003 116.793 109.103 113.623 108.402C111.087 107.835 108.551 107.535 105.982 107.202C103.512 106.902 101.043 107.035 98.5737 107.002C97.0388 107.002 95.7374 107.502 94.6029 108.469C93.1347 109.736 92.534 112.537 93.435 114.271C94.4694 116.306 96.1045 117.373 98.3735 117.339C102.144 117.306 105.915 117.473 109.652 118.173C112.855 118.773 115.959 119.607 119.029 120.741C122.833 122.175 126.336 124.109 129.506 126.61C132.176 128.711 134.512 131.178 136.547 133.913C138.182 136.114 139.517 138.515 140.651 141.049C141.419 142.716 142.12 144.417 142.62 146.151C143.287 148.419 143.921 150.686 144.322 152.987C144.689 155.121 145.123 157.222 145.189 159.39C145.223 161.324 145.59 163.258 145.557 165.192C145.557 165.425 145.623 165.692 145.723 165.926C146.124 167.293 146.825 168.527 147.425 169.794C148.96 173.062 150.595 176.33 152.163 179.598C153.832 183.033 155.434 186.501 157.102 189.969C157.636 191.069 157.569 191.203 156.368 191.203C152.664 191.203 148.96 191.203 145.29 191.203C144.355 191.203 143.421 191.269 142.487 191.503C139.784 192.136 138.249 195.004 138.783 197.639C139.05 198.872 139.383 200.073 139.517 201.307C139.951 205.542 139.851 209.777 138.649 213.912C137.848 216.713 136.614 219.347 134.845 221.615C131.709 225.617 127.638 228.318 122.933 230.152C120.564 231.086 118.161 231.786 115.692 232.353C113.423 232.886 111.12 233.22 108.784 233.486C105.381 233.853 101.977 234.153 98.5737 234.02C95.6707 233.987 92.9345 236.488 93.0012 239.456C93.0679 241.99 95.8709 244.458 98.0732 244.458C101.944 244.458 105.781 244.224 109.619 243.857C111.287 243.691 112.989 243.424 114.624 243.124C117.193 242.657 119.729 242.09 122.232 241.29C124.334 240.623 126.403 239.989 128.405 239.022C128.739 238.855 129.073 238.755 129.373 238.755C133.21 237.321 136.213 234.454 139.383 231.919C139.55 231.652 139.884 231.319 140.318 230.852C143.421 227.818 145.623 224.216 147.292 220.214C148.526 217.247 149.327 214.145 149.694 210.977C149.995 208.443 150.195 205.842 149.861 203.241C149.694 201.907 149.894 201.674 151.263 201.674C153.632 201.674 156.001 201.674 158.337 201.674C160.606 201.674 162.908 201.707 165.177 201.674C167.513 201.64 169.448 200.873 170.483 198.639C171.184 197.172 171.15 195.638 170.516 194.204C169.181 191.236 167.747 188.335 166.312 185.434C165.01 182.699 163.676 179.998 162.374 177.264C160.506 173.362 158.704 169.427 156.768 165.559C155.901 163.858 155.767 162.124 155.6 160.257C155.334 157.222 155.1 154.188 154.433 151.186C154.066 149.552 153.732 147.885 153.331 146.251C152.364 142.316 150.929 138.515 149.127 134.88C146.758 130.144 143.721 125.909 140.017 122.141C139.45 121.574 138.816 121.074 138.249 120.507" fill="#379A99"/>
<path d="M126.171 167.462C123.268 167.595 120.398 164.961 120.432 161.66C120.465 158.458 123.135 155.891 126.305 155.924C129.441 155.957 132.044 158.492 132.011 161.86C131.977 164.794 129.408 167.562 126.171 167.462Z" fill="#379A99"/>
<defs>
<clipPath id="clip0">
<rect width="162" height="157" fill="white" transform="translate(94 97)"/>
</clipPath>
</defs>
</svg>
