<svg width="350" height="350" viewBox="0 0 350 350" fill="none" xmlns="http://www.w3.org/2000/svg">
<rect x="55" y="98" width="30" height="100" rx="5" fill="#DF6D4D" fill-opacity="0.9"/>
<path d="M71.8223 131H69V120.121L65.6309 121.166V118.871L71.5195 116.762H71.8223V131Z" fill="white" fill-opacity="0.95"/>
<rect x="95" y="98" width="30" height="100" rx="5" fill="#DF6D4D" fill-opacity="0.9"/>
<path d="M114.713 131H104.967V129.066L109.566 124.164C110.198 123.474 110.663 122.872 110.963 122.357C111.269 121.843 111.422 121.355 111.422 120.893C111.422 120.261 111.262 119.766 110.943 119.408C110.624 119.044 110.169 118.861 109.576 118.861C108.938 118.861 108.434 119.083 108.062 119.525C107.698 119.962 107.516 120.538 107.516 121.254H104.684C104.684 120.388 104.889 119.597 105.299 118.881C105.715 118.165 106.301 117.605 107.057 117.201C107.812 116.791 108.668 116.586 109.625 116.586C111.09 116.586 112.226 116.938 113.033 117.641C113.847 118.344 114.254 119.337 114.254 120.619C114.254 121.322 114.072 122.038 113.707 122.768C113.342 123.497 112.717 124.346 111.832 125.316L108.6 128.725H114.713V131Z" fill="white" fill-opacity="0.95"/>
<rect x="233" y="48" width="30" height="100" rx="5" fill="#DF6D4D" fill-opacity="0.9"/>
<path d="M245.838 72.6406H247.342C248.058 72.6406 248.589 72.4616 248.934 72.1035C249.279 71.7454 249.451 71.2702 249.451 70.6777C249.451 70.1048 249.279 69.6589 248.934 69.3398C248.595 69.0208 248.126 68.8613 247.527 68.8613C246.987 68.8613 246.535 69.0111 246.17 69.3105C245.805 69.6035 245.623 69.9876 245.623 70.4629H242.801C242.801 69.7207 242.999 69.0566 243.396 68.4707C243.8 67.8783 244.36 67.416 245.076 67.084C245.799 66.752 246.593 66.5859 247.459 66.5859C248.963 66.5859 250.141 66.9473 250.994 67.6699C251.847 68.3861 252.273 69.3757 252.273 70.6387C252.273 71.2897 252.075 71.8887 251.678 72.4355C251.281 72.9824 250.76 73.4023 250.115 73.6953C250.916 73.9818 251.512 74.4115 251.902 74.9844C252.299 75.5573 252.498 76.2344 252.498 77.0156C252.498 78.2786 252.036 79.291 251.111 80.0527C250.193 80.8145 248.976 81.1953 247.459 81.1953C246.04 81.1953 244.878 80.821 243.973 80.0723C243.074 79.3236 242.625 78.334 242.625 77.1035H245.447C245.447 77.6374 245.646 78.0736 246.043 78.4121C246.447 78.7507 246.941 78.9199 247.527 78.9199C248.198 78.9199 248.722 78.7441 249.1 78.3926C249.484 78.0345 249.676 77.5625 249.676 76.9766C249.676 75.5573 248.895 74.8477 247.332 74.8477H245.838V72.6406Z" fill="white" fill-opacity="0.95"/>
<rect x="273" y="48" width="30" height="100" rx="5" fill="#DF6D4D" fill-opacity="0.9"/>
<path d="M291.316 75.6484H292.928V77.9238H291.316V81H288.494V77.9238H282.664L282.537 76.1465L288.465 66.7812H291.316V75.6484ZM285.35 75.6484H288.494V70.6289L288.309 70.9512L285.35 75.6484Z" fill="white" fill-opacity="0.95"/>
<rect x="175" y="202" width="30" height="100" rx="5" fill="#DF6D4D" fill-opacity="0.9"/>
<path d="M185.387 228.008L186.207 220.781H194.176V223.135H188.521L188.17 226.191C188.84 225.833 189.553 225.654 190.309 225.654C191.663 225.654 192.724 226.074 193.492 226.914C194.26 227.754 194.645 228.929 194.645 230.439C194.645 231.357 194.449 232.181 194.059 232.91C193.674 233.633 193.121 234.196 192.398 234.6C191.676 234.997 190.823 235.195 189.84 235.195C188.98 235.195 188.183 235.023 187.447 234.678C186.712 234.326 186.129 233.835 185.699 233.203C185.276 232.572 185.051 231.852 185.025 231.045H187.818C187.877 231.637 188.082 232.1 188.434 232.432C188.792 232.757 189.257 232.92 189.83 232.92C190.468 232.92 190.96 232.692 191.305 232.236C191.65 231.774 191.822 231.123 191.822 230.283C191.822 229.476 191.624 228.857 191.227 228.428C190.829 227.998 190.266 227.783 189.537 227.783C188.867 227.783 188.323 227.959 187.906 228.311L187.633 228.564L185.387 228.008Z" fill="white" fill-opacity="0.95"/>
</svg>
