<svg width="350" height="350" viewBox="0 0 350 350" fill="none" xmlns="http://www.w3.org/2000/svg">
<path d="M109.373 97.2969H111.479C112.481 97.2969 113.224 97.0462 113.707 96.5449C114.19 96.0436 114.432 95.3783 114.432 94.5488C114.432 93.7467 114.19 93.1224 113.707 92.6758C113.233 92.2292 112.577 92.0059 111.738 92.0059C110.982 92.0059 110.348 92.2155 109.838 92.6348C109.327 93.0449 109.072 93.5827 109.072 94.248H105.121C105.121 93.209 105.399 92.2793 105.955 91.459C106.52 90.6296 107.304 89.9824 108.307 89.5176C109.318 89.0527 110.43 88.8203 111.643 88.8203C113.748 88.8203 115.398 89.3262 116.592 90.3379C117.786 91.3405 118.383 92.7259 118.383 94.4941C118.383 95.4056 118.105 96.2441 117.549 97.0098C116.993 97.7754 116.264 98.3633 115.361 98.7734C116.482 99.1745 117.316 99.776 117.863 100.578C118.419 101.38 118.697 102.328 118.697 103.422C118.697 105.19 118.05 106.607 116.756 107.674C115.471 108.74 113.766 109.273 111.643 109.273C109.656 109.273 108.029 108.749 106.762 107.701C105.504 106.653 104.875 105.268 104.875 103.545H108.826C108.826 104.292 109.104 104.903 109.66 105.377C110.225 105.851 110.918 106.088 111.738 106.088C112.677 106.088 113.411 105.842 113.939 105.35C114.477 104.848 114.746 104.188 114.746 103.367C114.746 101.38 113.652 100.387 111.465 100.387H109.373V97.2969ZM127.229 98.623L129.717 94.207H133.941L129.73 101.453L134.119 109H129.881L127.242 104.352L124.617 109H120.365L124.754 101.453L120.557 94.207H124.795L127.229 98.623ZM150.785 97.8574H155.721V101.426H150.785V107.004H147.025V101.426H142.076V97.8574H147.025V92.5117H150.785V97.8574ZM165.496 99.2109L166.645 89.0938H177.801V92.3887H169.885L169.393 96.668C170.331 96.1667 171.329 95.916 172.387 95.916C174.283 95.916 175.768 96.5039 176.844 97.6797C177.919 98.8555 178.457 100.501 178.457 102.615C178.457 103.9 178.184 105.053 177.637 106.074C177.099 107.086 176.324 107.874 175.312 108.439C174.301 108.995 173.107 109.273 171.73 109.273C170.527 109.273 169.411 109.032 168.381 108.549C167.351 108.057 166.535 107.368 165.934 106.484C165.341 105.6 165.027 104.593 164.99 103.463H168.9C168.982 104.292 169.27 104.939 169.762 105.404C170.263 105.86 170.915 106.088 171.717 106.088C172.61 106.088 173.298 105.769 173.781 105.131C174.264 104.484 174.506 103.572 174.506 102.396C174.506 101.266 174.228 100.4 173.672 99.7988C173.116 99.1973 172.327 98.8965 171.307 98.8965C170.368 98.8965 169.607 99.1426 169.023 99.6348L168.641 99.9902L165.496 99.2109ZM200.688 98.8008H188.465V95.5742H200.688V98.8008ZM200.688 104.721H188.465V101.494H200.688V104.721ZM214.975 97.2969H217.08C218.083 97.2969 218.826 97.0462 219.309 96.5449C219.792 96.0436 220.033 95.3783 220.033 94.5488C220.033 93.7467 219.792 93.1224 219.309 92.6758C218.835 92.2292 218.178 92.0059 217.34 92.0059C216.583 92.0059 215.95 92.2155 215.439 92.6348C214.929 93.0449 214.674 93.5827 214.674 94.248H210.723C210.723 93.209 211.001 92.2793 211.557 91.459C212.122 90.6296 212.906 89.9824 213.908 89.5176C214.92 89.0527 216.032 88.8203 217.244 88.8203C219.35 88.8203 220.999 89.3262 222.193 90.3379C223.387 91.3405 223.984 92.7259 223.984 94.4941C223.984 95.4056 223.706 96.2441 223.15 97.0098C222.594 97.7754 221.865 98.3633 220.963 98.7734C222.084 99.1745 222.918 99.776 223.465 100.578C224.021 101.38 224.299 102.328 224.299 103.422C224.299 105.19 223.652 106.607 222.357 107.674C221.072 108.74 219.368 109.273 217.244 109.273C215.257 109.273 213.63 108.749 212.363 107.701C211.105 106.653 210.477 105.268 210.477 103.545H214.428C214.428 104.292 214.706 104.903 215.262 105.377C215.827 105.851 216.52 106.088 217.34 106.088C218.279 106.088 219.012 105.842 219.541 105.35C220.079 104.848 220.348 104.188 220.348 103.367C220.348 101.38 219.254 100.387 217.066 100.387H214.975V97.2969ZM227.621 99.2109L228.77 89.0938H239.926V92.3887H232.01L231.518 96.668C232.456 96.1667 233.454 95.916 234.512 95.916C236.408 95.916 237.893 96.5039 238.969 97.6797C240.044 98.8555 240.582 100.501 240.582 102.615C240.582 103.9 240.309 105.053 239.762 106.074C239.224 107.086 238.449 107.874 237.438 108.439C236.426 108.995 235.232 109.273 233.855 109.273C232.652 109.273 231.536 109.032 230.506 108.549C229.476 108.057 228.66 107.368 228.059 106.484C227.466 105.6 227.152 104.593 227.115 103.463H231.025C231.107 104.292 231.395 104.939 231.887 105.404C232.388 105.86 233.04 106.088 233.842 106.088C234.735 106.088 235.423 105.769 235.906 105.131C236.389 104.484 236.631 103.572 236.631 102.396C236.631 101.266 236.353 100.4 235.797 99.7988C235.241 99.1973 234.452 98.8965 233.432 98.8965C232.493 98.8965 231.732 99.1426 231.148 99.6348L230.766 99.9902L227.621 99.2109ZM158.879 138.906H152.33V137.525H158.879V138.906ZM162.652 136.801L163.623 127.094H173.576V128.611H165.031L164.334 135.338C165.4 134.609 166.649 134.244 168.08 134.244C169.876 134.244 171.307 134.827 172.373 135.994C173.439 137.161 173.973 138.715 173.973 140.656C173.973 142.753 173.453 144.38 172.414 145.537C171.375 146.695 169.912 147.273 168.025 147.273C166.294 147.273 164.89 146.79 163.814 145.824C162.739 144.858 162.124 143.505 161.969 141.764H163.541C163.696 143.122 164.156 144.152 164.922 144.854C165.688 145.546 166.722 145.893 168.025 145.893C169.447 145.893 170.518 145.441 171.238 144.539C171.967 143.637 172.332 142.352 172.332 140.684C172.332 139.225 171.926 138.036 171.115 137.115C170.304 136.195 169.197 135.734 167.793 135.734C167.018 135.734 166.344 135.835 165.77 136.035C165.195 136.227 164.589 136.605 163.951 137.17L162.652 136.801ZM223.273 138.906H216.725V137.525H223.273V138.906ZM227.047 136.801L228.018 127.094H237.971V128.611H229.426L228.729 135.338C229.795 134.609 231.044 134.244 232.475 134.244C234.27 134.244 235.701 134.827 236.768 135.994C237.834 137.161 238.367 138.715 238.367 140.656C238.367 142.753 237.848 144.38 236.809 145.537C235.77 146.695 234.307 147.273 232.42 147.273C230.688 147.273 229.285 146.79 228.209 145.824C227.133 144.858 226.518 143.505 226.363 141.764H227.936C228.09 143.122 228.551 144.152 229.316 144.854C230.082 145.546 231.117 145.893 232.42 145.893C233.842 145.893 234.913 145.441 235.633 144.539C236.362 143.637 236.727 142.352 236.727 140.684C236.727 139.225 236.321 138.036 235.51 137.115C234.699 136.195 233.591 135.734 232.188 135.734C231.413 135.734 230.738 135.835 230.164 136.035C229.59 136.227 228.984 136.605 228.346 137.17L227.047 136.801ZM158.182 173.297H160.287C161.29 173.297 162.033 173.046 162.516 172.545C162.999 172.044 163.24 171.378 163.24 170.549C163.24 169.747 162.999 169.122 162.516 168.676C162.042 168.229 161.385 168.006 160.547 168.006C159.79 168.006 159.157 168.215 158.646 168.635C158.136 169.045 157.881 169.583 157.881 170.248H153.93C153.93 169.209 154.208 168.279 154.764 167.459C155.329 166.63 156.113 165.982 157.115 165.518C158.127 165.053 159.239 164.82 160.451 164.82C162.557 164.82 164.206 165.326 165.4 166.338C166.594 167.34 167.191 168.726 167.191 170.494C167.191 171.406 166.913 172.244 166.357 173.01C165.801 173.775 165.072 174.363 164.17 174.773C165.291 175.174 166.125 175.776 166.672 176.578C167.228 177.38 167.506 178.328 167.506 179.422C167.506 181.19 166.859 182.607 165.564 183.674C164.279 184.74 162.575 185.273 160.451 185.273C158.464 185.273 156.837 184.749 155.57 183.701C154.312 182.653 153.684 181.268 153.684 179.545H157.635C157.635 180.292 157.913 180.903 158.469 181.377C159.034 181.851 159.727 182.088 160.547 182.088C161.486 182.088 162.219 181.842 162.748 181.35C163.286 180.848 163.555 180.188 163.555 179.367C163.555 177.38 162.461 176.387 160.273 176.387H158.182V173.297ZM176.037 174.623L178.525 170.207H182.75L178.539 177.453L182.928 185H178.689L176.051 180.352L173.426 185H169.174L173.562 177.453L169.365 170.207H173.604L176.037 174.623ZM204.188 174.801H191.965V171.574H204.188V174.801ZM204.188 180.721H191.965V177.494H204.188V180.721ZM218.475 173.297H220.58C221.583 173.297 222.326 173.046 222.809 172.545C223.292 172.044 223.533 171.378 223.533 170.549C223.533 169.747 223.292 169.122 222.809 168.676C222.335 168.229 221.678 168.006 220.84 168.006C220.083 168.006 219.45 168.215 218.939 168.635C218.429 169.045 218.174 169.583 218.174 170.248H214.223C214.223 169.209 214.501 168.279 215.057 167.459C215.622 166.63 216.406 165.982 217.408 165.518C218.42 165.053 219.532 164.82 220.744 164.82C222.85 164.82 224.499 165.326 225.693 166.338C226.887 167.34 227.484 168.726 227.484 170.494C227.484 171.406 227.206 172.244 226.65 173.01C226.094 173.775 225.365 174.363 224.463 174.773C225.584 175.174 226.418 175.776 226.965 176.578C227.521 177.38 227.799 178.328 227.799 179.422C227.799 181.19 227.152 182.607 225.857 183.674C224.572 184.74 222.868 185.273 220.744 185.273C218.757 185.273 217.13 184.749 215.863 183.701C214.605 182.653 213.977 181.268 213.977 179.545H217.928C217.928 180.292 218.206 180.903 218.762 181.377C219.327 181.851 220.02 182.088 220.84 182.088C221.779 182.088 222.512 181.842 223.041 181.35C223.579 180.848 223.848 180.188 223.848 179.367C223.848 177.38 222.754 176.387 220.566 176.387H218.475V173.297ZM243.932 176.77C243.932 179.522 243.362 181.628 242.223 183.086C241.083 184.544 239.415 185.273 237.219 185.273C235.049 185.273 233.391 184.558 232.242 183.127C231.094 181.696 230.506 179.645 230.479 176.975V173.311C230.479 170.531 231.053 168.421 232.201 166.98C233.359 165.54 235.022 164.82 237.191 164.82C239.361 164.82 241.02 165.536 242.168 166.967C243.316 168.389 243.904 170.435 243.932 173.105V176.77ZM239.98 172.75C239.98 171.1 239.753 169.902 239.297 169.154C238.85 168.398 238.148 168.02 237.191 168.02C236.262 168.02 235.574 168.38 235.127 169.1C234.689 169.811 234.457 170.927 234.43 172.449V177.289C234.43 178.911 234.648 180.119 235.086 180.912C235.533 181.696 236.243 182.088 237.219 182.088C238.185 182.088 238.882 181.71 239.311 180.953C239.739 180.197 239.962 179.039 239.98 177.48V172.75ZM160.369 224.709H158.879L167.191 203.094H168.668L160.369 224.709ZM175.107 212.158H176.803C177.742 212.158 178.562 211.994 179.264 211.666C179.965 211.329 180.499 210.873 180.863 210.299C181.237 209.715 181.424 209.046 181.424 208.289C181.424 207.013 181.064 206.015 180.344 205.295C179.624 204.575 178.589 204.215 177.24 204.215C175.964 204.215 174.916 204.593 174.096 205.35C173.285 206.097 172.879 207.086 172.879 208.316H171.238C171.238 207.286 171.498 206.348 172.018 205.5C172.537 204.643 173.257 203.982 174.178 203.518C175.098 203.053 176.119 202.82 177.24 202.82C179.045 202.82 180.467 203.312 181.506 204.297C182.545 205.281 183.064 206.63 183.064 208.344C183.064 209.301 182.759 210.185 182.148 210.996C181.547 211.798 180.717 212.4 179.66 212.801C180.9 213.147 181.839 213.744 182.477 214.592C183.115 215.43 183.434 216.433 183.434 217.6C183.434 219.304 182.878 220.676 181.766 221.715C180.654 222.754 179.168 223.273 177.309 223.273C176.124 223.273 175.035 223.036 174.041 222.562C173.057 222.089 172.291 221.428 171.744 220.58C171.206 219.723 170.938 218.73 170.938 217.6H172.578C172.578 218.867 173.02 219.901 173.904 220.703C174.788 221.496 175.923 221.893 177.309 221.893C178.721 221.893 179.82 221.533 180.604 220.812C181.396 220.083 181.793 219.031 181.793 217.654C181.793 216.324 181.365 215.307 180.508 214.605C179.66 213.904 178.407 213.553 176.748 213.553H175.107V212.158ZM214.264 224.709H212.773L221.086 203.094H222.562L214.264 224.709ZM229.002 212.158H230.697C231.636 212.158 232.456 211.994 233.158 211.666C233.86 211.329 234.393 210.873 234.758 210.299C235.132 209.715 235.318 209.046 235.318 208.289C235.318 207.013 234.958 206.015 234.238 205.295C233.518 204.575 232.484 204.215 231.135 204.215C229.859 204.215 228.811 204.593 227.99 205.35C227.179 206.097 226.773 207.086 226.773 208.316H225.133C225.133 207.286 225.393 206.348 225.912 205.5C226.432 204.643 227.152 203.982 228.072 203.518C228.993 203.053 230.014 202.82 231.135 202.82C232.939 202.82 234.361 203.312 235.4 204.297C236.439 205.281 236.959 206.63 236.959 208.344C236.959 209.301 236.654 210.185 236.043 210.996C235.441 211.798 234.612 212.4 233.555 212.801C234.794 213.147 235.733 213.744 236.371 214.592C237.009 215.43 237.328 216.433 237.328 217.6C237.328 219.304 236.772 220.676 235.66 221.715C234.548 222.754 233.062 223.273 231.203 223.273C230.018 223.273 228.929 223.036 227.936 222.562C226.951 222.089 226.186 221.428 225.639 220.58C225.101 219.723 224.832 218.73 224.832 217.6H226.473C226.473 218.867 226.915 219.901 227.799 220.703C228.683 221.496 229.818 221.893 231.203 221.893C232.616 221.893 233.714 221.533 234.498 220.812C235.291 220.083 235.688 219.031 235.688 217.654C235.688 216.324 235.259 215.307 234.402 214.605C233.555 213.904 232.301 213.553 230.643 213.553H229.002V212.158ZM173.904 250.623L176.393 246.207H180.617L176.406 253.453L180.795 261H176.557L173.918 256.352L171.293 261H167.041L171.43 253.453L167.232 246.207H171.471L173.904 250.623ZM202.055 250.801H189.832V247.574H202.055V250.801ZM202.055 256.721H189.832V253.494H202.055V256.721ZM221.92 261H217.969V245.77L213.252 247.232V244.02L221.496 241.066H221.92V261ZM241.799 252.77C241.799 255.522 241.229 257.628 240.09 259.086C238.951 260.544 237.283 261.273 235.086 261.273C232.917 261.273 231.258 260.558 230.109 259.127C228.961 257.696 228.373 255.645 228.346 252.975V249.311C228.346 246.531 228.92 244.421 230.068 242.98C231.226 241.54 232.889 240.82 235.059 240.82C237.228 240.82 238.887 241.536 240.035 242.967C241.184 244.389 241.771 246.435 241.799 249.105V252.77ZM237.848 248.75C237.848 247.1 237.62 245.902 237.164 245.154C236.717 244.398 236.016 244.02 235.059 244.02C234.129 244.02 233.441 244.38 232.994 245.1C232.557 245.811 232.324 246.927 232.297 248.449V253.289C232.297 254.911 232.516 256.119 232.953 256.912C233.4 257.696 234.111 258.088 235.086 258.088C236.052 258.088 236.749 257.71 237.178 256.953C237.606 256.197 237.829 255.039 237.848 253.48V248.75Z" fill="#5EA67D"/>
</svg>
