<svg width="350" height="350" viewBox="0 0 350 350" fill="none" xmlns="http://www.w3.org/2000/svg">
<mask id="path-1-inside-1" fill="white">
<rect x="17" y="140" width="316" height="70" rx="5"/>
</mask>
<rect x="17" y="140" width="316" height="70" rx="5" stroke="#C1DCCD" stroke-width="12" mask="url(#path-1-inside-1)"/>
<rect x="35" y="156" width="59" height="37" rx="5" fill="#5EA67D"/>
<rect x="45" y="170" width="25" height="9" rx="2" fill="white"/>
<path d="M83.5 173.634C84.1667 174.019 84.1667 174.981 83.5 175.366L69.25 183.593C68.5833 183.978 67.75 183.497 67.75 182.727V166.273C67.75 165.503 68.5833 165.022 69.25 165.407L83.5 173.634Z" fill="white"/>
<path d="M137.371 177.523C137.371 176.859 137.137 176.352 136.668 176C136.199 175.641 135.355 175.266 134.137 174.875C132.918 174.477 131.953 174.086 131.242 173.703C129.305 172.656 128.336 171.246 128.336 169.473C128.336 168.551 128.594 167.73 129.109 167.012C129.633 166.285 130.379 165.719 131.348 165.312C132.324 164.906 133.418 164.703 134.629 164.703C135.848 164.703 136.934 164.926 137.887 165.371C138.84 165.809 139.578 166.43 140.102 167.234C140.633 168.039 140.898 168.953 140.898 169.977H137.383C137.383 169.195 137.137 168.59 136.645 168.16C136.152 167.723 135.461 167.504 134.57 167.504C133.711 167.504 133.043 167.688 132.566 168.055C132.09 168.414 131.852 168.891 131.852 169.484C131.852 170.039 132.129 170.504 132.684 170.879C133.246 171.254 134.07 171.605 135.156 171.934C137.156 172.535 138.613 173.281 139.527 174.172C140.441 175.062 140.898 176.172 140.898 177.5C140.898 178.977 140.34 180.137 139.223 180.98C138.105 181.816 136.602 182.234 134.711 182.234C133.398 182.234 132.203 181.996 131.125 181.52C130.047 181.035 129.223 180.375 128.652 179.539C128.09 178.703 127.809 177.734 127.809 176.633H131.336C131.336 178.516 132.461 179.457 134.711 179.457C135.547 179.457 136.199 179.289 136.668 178.953C137.137 178.609 137.371 178.133 137.371 177.523ZM146.641 182H143.242V164H146.641V182ZM153.016 182H149.617V169.32H153.016V182ZM149.418 166.039C149.418 165.531 149.586 165.113 149.922 164.785C150.266 164.457 150.73 164.293 151.316 164.293C151.895 164.293 152.355 164.457 152.699 164.785C153.043 165.113 153.215 165.531 153.215 166.039C153.215 166.555 153.039 166.977 152.688 167.305C152.344 167.633 151.887 167.797 151.316 167.797C150.746 167.797 150.285 167.633 149.934 167.305C149.59 166.977 149.418 166.555 149.418 166.039ZM155.289 175.566C155.289 173.59 155.73 172.016 156.613 170.844C157.504 169.672 158.719 169.086 160.258 169.086C161.492 169.086 162.512 169.547 163.316 170.469V164H166.715V182H163.656L163.492 180.652C162.648 181.707 161.562 182.234 160.234 182.234C158.742 182.234 157.543 181.648 156.637 180.477C155.738 179.297 155.289 177.66 155.289 175.566ZM158.676 175.812C158.676 177 158.883 177.91 159.297 178.543C159.711 179.176 160.312 179.492 161.102 179.492C162.148 179.492 162.887 179.051 163.316 178.168V173.164C162.895 172.281 162.164 171.84 161.125 171.84C159.492 171.84 158.676 173.164 158.676 175.812ZM175.176 182.234C173.316 182.234 171.801 181.664 170.629 180.523C169.465 179.383 168.883 177.863 168.883 175.965V175.637C168.883 174.363 169.129 173.227 169.621 172.227C170.113 171.219 170.809 170.445 171.707 169.906C172.613 169.359 173.645 169.086 174.801 169.086C176.535 169.086 177.898 169.633 178.891 170.727C179.891 171.82 180.391 173.371 180.391 175.379V176.762H172.316C172.426 177.59 172.754 178.254 173.301 178.754C173.855 179.254 174.555 179.504 175.398 179.504C176.703 179.504 177.723 179.031 178.457 178.086L180.121 179.949C179.613 180.668 178.926 181.23 178.059 181.637C177.191 182.035 176.23 182.234 175.176 182.234ZM174.789 171.828C174.117 171.828 173.57 172.055 173.148 172.508C172.734 172.961 172.469 173.609 172.352 174.453H177.062V174.184C177.047 173.434 176.844 172.855 176.453 172.449C176.062 172.035 175.508 171.828 174.789 171.828ZM192.355 166.203V169.32H194.523V171.805H192.355V178.133C192.355 178.602 192.445 178.938 192.625 179.141C192.805 179.344 193.148 179.445 193.656 179.445C194.031 179.445 194.363 179.418 194.652 179.363V181.93C193.988 182.133 193.305 182.234 192.602 182.234C190.227 182.234 189.016 181.035 188.969 178.637V171.805H187.117V169.32H188.969V166.203H192.355ZM195.531 175.543C195.531 174.285 195.773 173.164 196.258 172.18C196.742 171.195 197.438 170.434 198.344 169.895C199.258 169.355 200.316 169.086 201.52 169.086C203.23 169.086 204.625 169.609 205.703 170.656C206.789 171.703 207.395 173.125 207.52 174.922L207.543 175.789C207.543 177.734 207 179.297 205.914 180.477C204.828 181.648 203.371 182.234 201.543 182.234C199.715 182.234 198.254 181.648 197.16 180.477C196.074 179.305 195.531 177.711 195.531 175.695V175.543ZM198.918 175.789C198.918 176.992 199.145 177.914 199.598 178.555C200.051 179.188 200.699 179.504 201.543 179.504C202.363 179.504 203.004 179.191 203.465 178.566C203.926 177.934 204.156 176.926 204.156 175.543C204.156 174.363 203.926 173.449 203.465 172.801C203.004 172.152 202.355 171.828 201.52 171.828C200.691 171.828 200.051 172.152 199.598 172.801C199.145 173.441 198.918 174.438 198.918 175.789ZM223.199 180.711C222.363 181.727 221.207 182.234 219.73 182.234C218.371 182.234 217.332 181.844 216.613 181.062C215.902 180.281 215.539 179.137 215.523 177.629V169.32H218.91V177.512C218.91 178.832 219.512 179.492 220.715 179.492C221.863 179.492 222.652 179.094 223.082 178.297V169.32H226.48V182H223.293L223.199 180.711ZM232.152 169.32L232.258 170.785C233.164 169.652 234.379 169.086 235.902 169.086C237.246 169.086 238.246 169.48 238.902 170.27C239.559 171.059 239.895 172.238 239.91 173.809V182H236.523V173.891C236.523 173.172 236.367 172.652 236.055 172.332C235.742 172.004 235.223 171.84 234.496 171.84C233.543 171.84 232.828 172.246 232.352 173.059V182H228.965V169.32H232.152ZM246.062 182H242.664V164H246.062V182ZM248.336 175.543C248.336 174.285 248.578 173.164 249.062 172.18C249.547 171.195 250.242 170.434 251.148 169.895C252.062 169.355 253.121 169.086 254.324 169.086C256.035 169.086 257.43 169.609 258.508 170.656C259.594 171.703 260.199 173.125 260.324 174.922L260.348 175.789C260.348 177.734 259.805 179.297 258.719 180.477C257.633 181.648 256.176 182.234 254.348 182.234C252.52 182.234 251.059 181.648 249.965 180.477C248.879 179.305 248.336 177.711 248.336 175.695V175.543ZM251.723 175.789C251.723 176.992 251.949 177.914 252.402 178.555C252.855 179.188 253.504 179.504 254.348 179.504C255.168 179.504 255.809 179.191 256.27 178.566C256.73 177.934 256.961 176.926 256.961 175.543C256.961 174.363 256.73 173.449 256.27 172.801C255.809 172.152 255.16 171.828 254.324 171.828C253.496 171.828 252.855 172.152 252.402 172.801C251.949 173.441 251.723 174.438 251.723 175.789ZM267.707 179.504C268.332 179.504 268.84 179.332 269.23 178.988C269.621 178.645 269.824 178.188 269.84 177.617H273.016C273.008 178.477 272.773 179.266 272.312 179.984C271.852 180.695 271.219 181.25 270.414 181.648C269.617 182.039 268.734 182.234 267.766 182.234C265.953 182.234 264.523 181.66 263.477 180.512C262.43 179.355 261.906 177.762 261.906 175.73V175.508C261.906 173.555 262.426 171.996 263.465 170.832C264.504 169.668 265.93 169.086 267.742 169.086C269.328 169.086 270.598 169.539 271.551 170.445C272.512 171.344 273 172.543 273.016 174.043H269.84C269.824 173.387 269.621 172.855 269.23 172.449C268.84 172.035 268.324 171.828 267.684 171.828C266.895 171.828 266.297 172.117 265.891 172.695C265.492 173.266 265.293 174.195 265.293 175.484V175.836C265.293 177.141 265.492 178.078 265.891 178.648C266.289 179.219 266.895 179.504 267.707 179.504ZM279.555 176.914L278.336 178.133V182H274.949V164H278.336V173.973L278.992 173.129L282.238 169.32H286.305L281.723 174.605L286.703 182H282.812L279.555 176.914Z" fill="#5EA67D"/>
</svg>
