<svg width="350" height="350" viewBox="0 0 350 350" fill="none" xmlns="http://www.w3.org/2000/svg">
<path d="M58.5 235L233 60.5M113.5 291L289.5 115" stroke="#C1DCCD" stroke-width="6" stroke-linecap="round"/>
<path d="M57 59V292H293" stroke="#5EA67D" stroke-width="6" stroke-linecap="round" stroke-linejoin="round"/>
<path d="M100 289L88.793 237C88.1841 234.174 90.6804 231.656 93.511 232.239L130.71 239.909C133.342 240.452 135.749 238.298 135.501 235.622L131.905 196.87C131.688 194.525 133.533 192.5 135.888 192.5H162.199C164.115 192.5 165.763 191.141 166.126 189.259L173.255 152.358C173.668 150.216 175.722 148.801 177.871 149.176L218.897 156.346C221.88 156.867 224.338 154.014 223.38 151.141L208.817 107.452C207.817 104.45 210.534 101.529 213.601 102.311L247.679 111.005C250.886 111.823 253.642 108.615 252.351 105.568L247.059 93.079C245.63 89.7059 249.11 86.3457 252.431 87.8924L279.5 100.5" stroke="#5EA67D" stroke-width="6" stroke-linecap="round"/>
</svg>
