<svg width="350" height="350" viewBox="0 0 350 350" fill="none" xmlns="http://www.w3.org/2000/svg">
<g clip-path="url(#clip0)">
<path d="M108.113 211.402C107.107 210.684 106.065 210.02 104.951 209.5C104.861 209.482 104.772 209.446 104.682 209.41C103.837 208.997 102.993 208.584 102.113 208.243C100.478 207.615 98.8076 207.13 97.101 206.753C95.7357 206.448 94.3704 206.286 92.9872 206.107C91.6579 205.945 90.3285 206.017 88.9992 205.999C88.1728 205.999 87.4722 206.268 86.8615 206.789C86.071 207.471 85.7477 208.979 86.2327 209.912C86.7896 211.008 87.6698 211.582 88.8914 211.564C90.9213 211.546 92.9513 211.636 94.9633 212.013C96.6878 212.336 98.3585 212.785 100.011 213.395C102.059 214.167 103.945 215.208 105.652 216.555C107.089 217.686 108.346 219.014 109.442 220.486C110.323 221.671 111.041 222.964 111.652 224.328C112.065 225.226 112.442 226.141 112.712 227.075C113.071 228.296 113.412 229.517 113.628 230.755C113.826 231.904 114.059 233.035 114.095 234.202C114.113 235.243 114.311 236.285 114.293 237.326C114.293 237.451 114.329 237.595 114.382 237.721C114.598 238.457 114.975 239.121 115.299 239.803C116.125 241.563 117.005 243.322 117.849 245.081C118.748 246.93 119.61 248.797 120.508 250.665C120.796 251.257 120.76 251.329 120.113 251.329C118.119 251.329 116.125 251.329 114.149 251.329C113.646 251.329 113.143 251.365 112.64 251.49C111.185 251.831 110.358 253.375 110.646 254.794C110.79 255.458 110.969 256.104 111.041 256.768C111.275 259.048 111.221 261.328 110.574 263.554C110.143 265.062 109.478 266.481 108.526 267.701C106.837 269.856 104.646 271.31 102.113 272.297C100.838 272.8 99.5441 273.177 98.2147 273.482C96.9932 273.769 95.7537 273.949 94.4962 274.092C92.6638 274.29 90.8315 274.451 88.9992 274.38C87.4363 274.362 85.9633 275.708 85.9992 277.306C86.0351 278.67 87.5441 279.999 88.7297 279.999C90.8135 279.999 92.8794 279.873 94.9453 279.676C95.8435 279.586 96.7597 279.442 97.6399 279.281C99.0231 279.029 100.388 278.724 101.736 278.293C102.867 277.934 103.981 277.593 105.059 277.073C105.239 276.983 105.418 276.929 105.58 276.929C107.646 276.157 109.263 274.613 110.969 273.249C111.059 273.105 111.239 272.926 111.472 272.674C113.143 271.041 114.329 269.102 115.227 266.947C115.891 265.35 116.323 263.68 116.52 261.975C116.682 260.61 116.79 259.21 116.61 257.81C116.52 257.091 116.628 256.966 117.364 256.966C118.64 256.966 119.915 256.966 121.173 256.966C122.394 256.966 123.634 256.984 124.855 256.966C126.113 256.948 127.155 256.535 127.712 255.332C128.089 254.542 128.071 253.716 127.73 252.944C127.011 251.347 126.239 249.785 125.466 248.223C124.766 246.751 124.047 245.297 123.346 243.825C122.34 241.724 121.37 239.606 120.329 237.523C119.861 236.608 119.79 235.674 119.7 234.669C119.556 233.035 119.43 231.402 119.071 229.786C118.873 228.906 118.694 228.009 118.478 227.129C117.957 225.01 117.185 222.964 116.215 221.007C114.939 218.458 113.305 216.178 111.311 214.149C111.005 213.844 110.664 213.575 110.358 213.27" fill="#5EA67D"/>
<path d="M103.856 238.548C102.293 238.62 100.748 237.201 100.766 235.424C100.784 233.701 102.222 232.318 103.928 232.336C105.617 232.354 107.018 233.719 107 235.532C106.982 237.112 105.599 238.602 103.856 238.548Z" fill="#5EA67D"/>
</g>
<rect x="176" y="214" width="111" height="50" rx="5" fill="#5EA67D"/>
<path d="M78.0445 118.426C79.646 111.785 81.9147 105.5 86.7192 100.419C91.3901 95.4272 97.0398 92.0844 103.668 90.6135C105.714 90.1678 106.471 89.4546 106.693 87.3598C108.473 73.0969 118.126 62.3106 131.916 58.9231C144.995 55.714 158.697 61.018 166.704 72.562C167.905 74.3003 168.973 75.0135 171.153 74.6569C184.365 72.6066 194.997 77.242 203.049 87.8055C204.428 89.5884 205.584 90.1232 207.853 89.8558C224.313 88.0729 241.707 100.018 243.842 120.12C245.577 136.478 232.81 153.147 216.083 155.421C213.414 155.777 210.7 155.955 207.987 155.955C177.114 156 146.285 156 115.412 156C94.4596 156 83.6941 147.71 78.4004 127.563C78.3114 127.207 78.1335 126.895 78 126.583C78.0445 123.819 78.0445 121.1 78.0445 118.426Z" fill="#C1DCCD"/>
<ellipse cx="118.5" cy="188" rx="9.5" ry="9" fill="#C1DCCD"/>
<ellipse cx="144" cy="175.5" rx="13" ry="12.5" fill="#C1DCCD"/>
<rect x="138" y="90" width="47" height="47" rx="5" fill="#5EA67D"/>
<defs>
<clipPath id="clip0">
<rect width="42" height="74" fill="white" transform="translate(86 206)"/>
</clipPath>
</defs>
</svg>
