<svg width="350" height="350" viewBox="0 0 350 350" fill="none" xmlns="http://www.w3.org/2000/svg">
<g clip-path="url(#clip0)">
<path d="M276.834 155.11C277.888 154.431 278.979 153.803 280.146 153.31C280.24 153.293 280.334 153.259 280.429 153.225C281.313 152.835 282.198 152.444 283.12 152.122C284.832 151.527 286.582 151.069 288.37 150.712C289.801 150.423 291.231 150.271 292.68 150.101C294.073 149.948 295.465 150.016 296.858 149.999C297.724 149.999 298.458 150.254 299.097 150.746C299.926 151.391 300.264 152.818 299.756 153.701C299.173 154.737 298.251 155.28 296.971 155.263C294.844 155.246 292.718 155.331 290.61 155.688C288.803 155.994 287.053 156.418 285.322 156.995C283.176 157.726 281.2 158.711 279.412 159.984C277.907 161.054 276.589 162.311 275.441 163.703C274.519 164.824 273.766 166.047 273.127 167.338C272.694 168.187 272.298 169.053 272.016 169.936C271.64 171.091 271.282 172.245 271.056 173.417C270.849 174.504 270.605 175.574 270.567 176.678C270.548 177.663 270.341 178.648 270.36 179.633C270.36 179.751 270.322 179.887 270.266 180.006C270.04 180.702 269.645 181.331 269.306 181.976C268.44 183.64 267.518 185.305 266.634 186.969C265.693 188.718 264.79 190.484 263.849 192.25C263.547 192.811 263.585 192.879 264.263 192.879C266.352 192.879 268.44 192.879 270.511 192.879C271.038 192.879 271.565 192.913 272.091 193.031C273.616 193.354 274.482 194.814 274.18 196.156C274.03 196.784 273.842 197.396 273.766 198.024C273.522 200.181 273.578 202.338 274.256 204.443C274.707 205.87 275.404 207.211 276.401 208.366C278.17 210.404 280.466 211.78 283.12 212.714C284.456 213.189 285.811 213.546 287.204 213.834C288.483 214.106 289.782 214.276 291.099 214.412C293.019 214.599 294.938 214.751 296.858 214.683C298.495 214.667 300.038 215.94 300.001 217.452C299.963 218.742 298.382 219.999 297.14 219.999C294.957 219.999 292.793 219.88 290.629 219.693C289.688 219.608 288.728 219.472 287.806 219.32C286.357 219.082 284.926 218.793 283.515 218.386C282.329 218.046 281.162 217.723 280.033 217.231C279.845 217.146 279.657 217.095 279.488 217.095C277.323 216.365 275.63 214.904 273.842 213.614C273.748 213.478 273.559 213.308 273.315 213.07C271.565 211.525 270.322 209.691 269.381 207.653C268.685 206.142 268.233 204.562 268.026 202.949C267.857 201.658 267.744 200.334 267.932 199.009C268.026 198.33 267.914 198.211 267.142 198.211C265.806 198.211 264.47 198.211 263.152 198.211C261.872 198.211 260.574 198.228 259.294 198.211C257.977 198.194 256.885 197.803 256.302 196.666C255.907 195.918 255.926 195.137 256.283 194.407C257.036 192.896 257.845 191.418 258.654 189.941C259.388 188.548 260.141 187.173 260.875 185.78C261.929 183.793 262.945 181.789 264.037 179.819C264.526 178.953 264.601 178.07 264.695 177.119C264.846 175.574 264.978 174.028 265.354 172.5C265.561 171.668 265.749 170.819 265.975 169.987C266.521 167.983 267.33 166.047 268.346 164.196C269.683 161.784 271.395 159.628 273.484 157.709C273.804 157.42 274.162 157.165 274.482 156.877" fill="#5EA67D"/>
<path d="M281.293 180.788C282.931 180.856 284.549 179.515 284.53 177.834C284.512 176.203 283.006 174.896 281.218 174.913C279.449 174.93 277.981 176.22 278 177.935C278.019 179.43 279.468 180.839 281.293 180.788Z" fill="#5EA67D"/>
</g>
<path d="M239.591 204.536C241.228 205.192 242.803 205.821 244.29 206.398C243.99 205.815 243.681 205.215 243.365 204.601C240.988 199.978 238.201 194.56 235.871 189.571C233.953 185.464 232.241 181.441 231.182 178.072C230.653 176.392 230.259 174.789 230.103 173.37C229.956 172.035 229.969 170.463 230.668 169.139C238.375 154.524 241.557 137.655 238.764 120.45C231.656 76.6745 188.418 47.0484 141.957 54.5923C95.4959 62.1363 63.8533 103.921 70.9612 147.696C78.0691 191.472 121.307 221.098 167.768 213.554C182.403 211.178 195.577 205.397 206.531 197.223C207.788 196.285 209.335 195.949 210.791 195.87C212.276 195.79 213.927 195.964 215.635 196.281C219.05 196.916 223.08 198.202 227.182 199.693C230.89 201.04 234.755 202.593 238.392 204.054C238.795 204.216 239.195 204.376 239.591 204.536Z" fill="#C1DCCD" stroke="#C1DCCD" stroke-width="5"/>
<path d="M117.326 147.273C115.157 147.273 113.389 146.608 112.021 145.277C110.663 143.947 109.984 142.174 109.984 139.959V139.576C109.984 138.09 110.271 136.764 110.846 135.598C111.42 134.422 112.231 133.52 113.279 132.891C114.337 132.253 115.54 131.934 116.889 131.934C118.912 131.934 120.503 132.572 121.66 133.848C122.827 135.124 123.41 136.933 123.41 139.275V140.889H113.99C114.118 141.855 114.501 142.63 115.139 143.213C115.786 143.796 116.602 144.088 117.586 144.088C119.108 144.088 120.298 143.536 121.154 142.434L123.096 144.607C122.503 145.446 121.701 146.102 120.689 146.576C119.678 147.041 118.557 147.273 117.326 147.273ZM116.875 135.133C116.091 135.133 115.453 135.397 114.961 135.926C114.478 136.454 114.168 137.211 114.031 138.195H119.527V137.881C119.509 137.006 119.272 136.331 118.816 135.857C118.361 135.374 117.714 135.133 116.875 135.133ZM129.836 147H125.871V126H129.836V147ZM139.502 139.494C139.502 137.225 140.04 135.397 141.115 134.012C142.2 132.626 143.658 131.934 145.49 131.934C147.113 131.934 148.375 132.49 149.277 133.602L149.441 132.207H153.023V146.508C153.023 147.802 152.727 148.928 152.135 149.885C151.551 150.842 150.727 151.571 149.66 152.072C148.594 152.574 147.345 152.824 145.914 152.824C144.829 152.824 143.772 152.605 142.742 152.168C141.712 151.74 140.933 151.184 140.404 150.5L142.154 148.094C143.139 149.197 144.333 149.748 145.736 149.748C146.785 149.748 147.6 149.465 148.184 148.9C148.767 148.344 149.059 147.551 149.059 146.521V145.729C148.147 146.758 146.949 147.273 145.463 147.273C143.686 147.273 142.245 146.581 141.143 145.195C140.049 143.801 139.502 141.955 139.502 139.658V139.494ZM143.453 139.781C143.453 141.121 143.722 142.174 144.26 142.939C144.798 143.696 145.536 144.074 146.475 144.074C147.678 144.074 148.539 143.623 149.059 142.721V136.5C148.53 135.598 147.678 135.146 146.502 135.146C145.554 135.146 144.807 135.534 144.26 136.309C143.722 137.083 143.453 138.241 143.453 139.781ZM164.645 147C164.462 146.645 164.33 146.202 164.248 145.674C163.291 146.74 162.047 147.273 160.516 147.273C159.066 147.273 157.863 146.854 156.906 146.016C155.958 145.177 155.484 144.12 155.484 142.844C155.484 141.276 156.063 140.073 157.221 139.234C158.387 138.396 160.069 137.972 162.266 137.963H164.084V137.115C164.084 136.432 163.906 135.885 163.551 135.475C163.204 135.064 162.653 134.859 161.896 134.859C161.231 134.859 160.707 135.019 160.324 135.338C159.951 135.657 159.764 136.094 159.764 136.65H155.812C155.812 135.794 156.077 135.001 156.605 134.271C157.134 133.542 157.882 132.973 158.848 132.562C159.814 132.143 160.898 131.934 162.102 131.934C163.924 131.934 165.369 132.394 166.436 133.314C167.511 134.226 168.049 135.511 168.049 137.17V143.582C168.058 144.986 168.254 146.048 168.637 146.768V147H164.645ZM161.377 144.252C161.96 144.252 162.498 144.124 162.99 143.869C163.482 143.605 163.847 143.254 164.084 142.816V140.273H162.607C160.63 140.273 159.577 140.957 159.449 142.324L159.436 142.557C159.436 143.049 159.609 143.454 159.955 143.773C160.301 144.092 160.775 144.252 161.377 144.252ZM175.814 128.57V132.207H178.344V135.105H175.814V142.488C175.814 143.035 175.919 143.427 176.129 143.664C176.339 143.901 176.74 144.02 177.332 144.02C177.77 144.02 178.157 143.988 178.494 143.924V146.918C177.719 147.155 176.922 147.273 176.102 147.273C173.331 147.273 171.918 145.874 171.863 143.076V135.105H169.703V132.207H171.863V128.57H175.814ZM179.52 139.467C179.52 137.999 179.802 136.691 180.367 135.543C180.932 134.395 181.743 133.506 182.801 132.877C183.867 132.248 185.102 131.934 186.506 131.934C188.502 131.934 190.129 132.544 191.387 133.766C192.654 134.987 193.36 136.646 193.506 138.742L193.533 139.754C193.533 142.023 192.9 143.846 191.633 145.223C190.366 146.59 188.666 147.273 186.533 147.273C184.4 147.273 182.696 146.59 181.42 145.223C180.153 143.855 179.52 141.996 179.52 139.645V139.467ZM183.471 139.754C183.471 141.158 183.735 142.233 184.264 142.98C184.792 143.719 185.549 144.088 186.533 144.088C187.49 144.088 188.238 143.723 188.775 142.994C189.313 142.256 189.582 141.08 189.582 139.467C189.582 138.09 189.313 137.024 188.775 136.268C188.238 135.511 187.481 135.133 186.506 135.133C185.54 135.133 184.792 135.511 184.264 136.268C183.735 137.015 183.471 138.177 183.471 139.754Z" fill="#5EA67D"/>
<g clip-path="url(#clip1)">
<path d="M84.513 246.5C82.4635 246.5 73.6641 246.701 68 255.229V246.5C68 241.123 63.6267 236.75 58.25 236.75C56.4554 236.75 55 238.205 55 240C55 241.795 56.4554 243.25 58.25 243.25C60.0416 243.25 61.5 244.708 61.5 246.5V272.5C61.5 276.085 64.4148 279 68 279H85.875C86.7728 279 87.5 278.273 87.5 277.375V275.75C87.5 273.955 86.0446 272.5 84.25 272.5H81L94 262.75V277.375C94 278.273 94.7272 279 95.625 279H98.875C99.7728 279 100.5 278.273 100.5 277.375V256.439C99.4549 256.71 98.3784 256.9 97.25 256.9C90.9724 256.9 85.7206 252.426 84.513 246.5V246.5ZM100.5 236.75H94L87.5 230.25V243.9C87.5 249.285 91.8652 253.65 97.25 253.65C102.635 253.65 107 249.285 107 243.9V230.25L100.5 236.75ZM93.1875 244.875C92.2897 244.875 91.5625 244.148 91.5625 243.25C91.5625 242.352 92.2897 241.625 93.1875 241.625C94.0853 241.625 94.8125 242.352 94.8125 243.25C94.8125 244.148 94.0853 244.875 93.1875 244.875ZM101.312 244.875C100.415 244.875 99.6875 244.148 99.6875 243.25C99.6875 242.352 100.415 241.625 101.312 241.625C102.21 241.625 102.938 242.352 102.938 243.25C102.938 244.148 102.21 244.875 101.312 244.875Z" fill="#5EA67D"/>
</g>
<defs>
<clipPath id="clip0">
<rect width="44" height="70" fill="white" transform="matrix(-1 0 0 1 300 150)"/>
</clipPath>
<clipPath id="clip1">
<rect width="52" height="52" fill="white" transform="translate(55 227)"/>
</clipPath>
</defs>
</svg>
