<svg width="350" height="350" viewBox="0 0 350 350" fill="none" xmlns="http://www.w3.org/2000/svg">
<path d="M173.5 130L183.715 161.44L216.773 161.44L190.029 180.871L200.244 212.31L173.5 192.879L146.756 212.31L156.971 180.871L130.227 161.44L163.285 161.44L173.5 130Z" fill="#379A99"/>
<path d="M77.5 134.854L86.2888 161.903L86.6256 162.94L87.7154 162.94H116.157L93.1472 179.657L92.2655 180.298L92.6023 181.334L101.391 208.383L78.3817 191.666L77.5 191.025L76.6183 191.666L53.6089 208.383L62.3977 181.334L62.7345 180.298L61.8528 179.657L38.8435 162.94H67.2846L68.3744 162.94L68.7112 161.903L77.5 134.854Z" fill="#A5DFDE" stroke="#379A99" stroke-width="3"/>
<path d="M270.117 131L280.333 162.44L313.39 162.44L286.646 181.871L296.861 213.31L270.117 193.879L243.373 213.31L253.588 181.871L226.844 162.44L259.902 162.44L270.117 131Z" stroke="#379A99" stroke-width="5" stroke-linecap="round" stroke-dasharray="3 8"/>
</svg>
