<svg width="350" height="350" viewBox="0 0 350 350" fill="none" xmlns="http://www.w3.org/2000/svg">
<line x1="174.5" y1="151.5" x2="314.5" y2="151.5" stroke="#379A99" stroke-width="9" stroke-linecap="round"/>
<line x1="174.5" y1="172.5" x2="282.5" y2="172.5" stroke="#379A99" stroke-width="9" stroke-linecap="round"/>
<line x1="174.5" y1="193.5" x2="249.5" y2="193.5" stroke="#379A99" stroke-width="9" stroke-linecap="round"/>
<g clip-path="url(#clip0)">
<path d="M109 173.936C109 186.235 109 198.576 109 210.875C109 212.37 108.702 213.737 107.553 214.847C105.892 216.47 102.912 216.341 101.295 214.719C100.784 214.206 100.273 213.737 99.8048 213.224C92.9936 206.391 86.1823 199.601 79.4137 192.769C78.7325 192.085 78.0088 191.786 77.0723 191.786C71.8787 191.829 66.6426 191.786 61.449 191.786C57.7028 191.786 56 190.078 56 186.406C56 178.078 56 169.751 56 161.423C56 157.922 57.7454 156.171 61.2361 156.171C66.5574 156.171 71.8787 156.171 77.2 156.171C78.094 156.171 78.7325 155.914 79.3711 155.274C86.5655 148.057 93.8024 140.84 100.954 133.58C102.998 131.487 105.935 131.573 107.638 133.153C108.745 134.178 109.043 135.502 109.043 136.911C109.043 141.779 109.043 146.648 109.043 151.516C109 158.989 109 166.463 109 173.936Z" fill="#379A99"/>
</g>
<path d="M131 161L149.896 175.172C150.44 175.58 150.427 176.401 149.87 176.791L131 190" stroke="#A5DFDE" stroke-width="6" stroke-linecap="round"/>
<defs>
<clipPath id="clip0">
<rect width="53" height="84" fill="white" transform="translate(56 132)"/>
</clipPath>
</defs>
</svg>
