<svg width="350" height="350" viewBox="0 0 350 350" fill="none" xmlns="http://www.w3.org/2000/svg">
<line x1="161.5" y1="152.5" x2="301.5" y2="152.5" stroke="#379A99" stroke-width="9" stroke-linecap="round"/>
<line x1="161.5" y1="173.5" x2="269.5" y2="173.5" stroke="#379A99" stroke-width="9" stroke-linecap="round"/>
<line x1="161.5" y1="194.5" x2="236.5" y2="194.5" stroke="#379A99" stroke-width="9" stroke-linecap="round"/>
<g clip-path="url(#clip0)">
<path d="M96 174.936C96 187.235 96 199.576 96 211.875C96 213.37 95.702 214.736 94.5526 215.847C92.8924 217.47 89.9124 217.341 88.2948 215.719C87.7839 215.206 87.2731 214.736 86.8048 214.224C79.9936 207.391 73.1823 200.601 66.4137 193.769C65.7325 193.085 65.0088 192.786 64.0723 192.786C58.8787 192.829 53.6426 192.786 48.449 192.786C44.7028 192.786 43 191.078 43 187.406C43 179.078 43 170.751 43 162.423C43 158.922 44.7454 157.171 48.2361 157.171C53.5574 157.171 58.8787 157.171 64.2 157.171C65.094 157.171 65.7325 156.914 66.3711 156.274C73.5655 149.057 80.8024 141.84 87.9542 134.58C89.9976 132.487 92.9349 132.573 94.6377 134.153C95.7446 135.178 96.0426 136.502 96.0426 137.911C96.0426 142.779 96.0426 147.648 96.0426 152.516C96 159.989 96 167.462 96 174.936Z" fill="#379A99"/>
</g>
<path d="M102.791 99.9745C101.573 101.097 101.495 102.995 102.618 104.214C103.741 105.432 105.639 105.509 106.857 104.386L102.791 99.9745ZM111.08 96.4135L109.047 94.2077L109.047 94.2077L111.08 96.4135ZM162.155 104.404L164.765 102.925L164.765 102.925L162.155 104.404ZM167.181 117.573C168.778 118.014 170.431 117.078 170.872 115.481L178.066 89.4568C178.508 87.8599 177.571 86.2074 175.974 85.7659C174.377 85.3245 172.725 86.2612 172.283 87.8581L165.888 110.99L142.756 104.596C141.159 104.154 139.506 105.091 139.065 106.688C138.624 108.285 139.56 109.937 141.157 110.379L167.181 117.573ZM106.857 104.386L113.114 98.6194L109.047 94.2077L102.791 99.9745L106.857 104.386ZM159.545 105.884L165.371 116.161L170.59 113.202L164.765 102.925L159.545 105.884ZM113.114 98.6194C127.319 85.5251 150.018 89.0764 159.545 105.884L164.765 102.925C153.332 82.7561 126.094 78.4945 109.047 94.2077L113.114 98.6194Z" fill="#A5DFDE"/>
<path d="M181.148 241.791C182.013 240.378 181.569 238.531 180.157 237.666C178.744 236.801 176.897 237.245 176.031 238.657L181.148 241.791ZM174.146 247.48L176.704 249.047L176.704 249.047L174.146 247.48ZM122.83 253.738L120.723 255.874L120.723 255.874L122.83 253.738ZM114.399 242.442C112.742 242.453 111.409 243.806 111.42 245.463L111.604 272.462C111.616 274.119 112.968 275.453 114.625 275.441C116.282 275.43 117.616 274.078 117.604 272.421L117.44 248.421L141.44 248.257C143.096 248.246 144.43 246.894 144.419 245.237C144.408 243.58 143.055 242.246 141.399 242.258L114.399 242.442ZM176.031 238.657L171.587 245.913L176.704 249.047L181.148 241.791L176.031 238.657ZM124.937 251.602L116.527 243.306L112.313 247.578L120.723 255.874L124.937 251.602ZM171.587 245.913C161.497 262.389 138.691 265.17 124.937 251.602L120.723 255.874C137.228 272.155 164.595 268.818 176.704 249.047L171.587 245.913Z" fill="#A5DFDE"/>
<defs>
<clipPath id="clip0">
<rect width="53" height="84" fill="white" transform="translate(43 133)"/>
</clipPath>
</defs>
</svg>
