<svg width="350" height="350" viewBox="0 0 350 350" fill="none" xmlns="http://www.w3.org/2000/svg">
<rect x="117" y="100" width="116" height="92" rx="6" stroke="#379A99" stroke-width="6"/>
<g clip-path="url(#clip0)">
<path d="M174.752 180.877C159.913 180.877 145.074 180.877 130.235 180.877C127.69 180.877 127.627 180.694 128.497 178.364C133.029 166.473 137.499 154.581 142.032 142.69C144.888 135.212 147.682 127.795 150.538 120.317C151.034 119.03 151.469 118.969 152.4 120.133C156.622 125.343 160.844 130.553 165.066 135.764C170.592 142.629 176.18 149.433 181.705 156.298C182.388 157.156 182.947 157.095 183.754 156.482C187.914 153.356 192.074 150.291 196.296 147.165C198.221 145.755 198.345 145.755 199.649 147.716C206.354 157.585 213.059 167.515 219.703 177.384C219.951 177.751 220.199 178.18 220.386 178.548C220.758 179.161 221.69 179.713 221.255 180.51C220.82 181.245 219.827 180.877 219.082 180.877C204.367 180.939 189.59 180.877 174.752 180.877Z" fill="#379A99"/>
<path d="M198.345 122.83C197.91 116.455 203.56 110.939 210.079 111C216.66 111.061 222 116.271 222 122.83C222 129.266 216.66 134.17 210.017 134.354C203.498 134.599 197.786 128.408 198.345 122.83Z" fill="#379A99"/>
</g>
<line x1="81.5" y1="225.5" x2="268.5" y2="225.5" stroke="#379A99" stroke-width="9" stroke-linecap="round"/>
<line x1="100.5" y1="248.5" x2="249.5" y2="248.5" stroke="#379A99" stroke-width="9" stroke-linecap="round"/>
<defs>
<clipPath id="clip0">
<rect width="94" height="70" fill="white" transform="translate(128 111)"/>
</clipPath>
</defs>
</svg>
