<svg width="350" height="350" viewBox="0 0 350 350" fill="none" xmlns="http://www.w3.org/2000/svg">
<path d="M97.1144 210.405C96.1084 209.687 95.0665 209.022 93.9527 208.502C93.8629 208.484 93.7731 208.448 93.6833 208.412C92.839 207.999 91.9947 207.586 91.1144 207.245C89.4797 206.617 87.809 206.132 86.1024 205.755C84.7372 205.45 83.3719 205.288 81.9887 205.109C80.6593 204.947 79.33 205.019 78.0006 205.001C77.1743 205.001 76.4737 205.27 75.8629 205.791C75.0725 206.473 74.7491 207.981 75.2342 208.915C75.7911 210.01 76.6713 210.584 77.8929 210.566C79.9228 210.548 81.9527 210.638 83.9647 211.015C85.6893 211.338 87.3599 211.787 89.0126 212.397C91.0605 213.169 92.9467 214.211 94.6533 215.557C96.0905 216.688 97.3479 218.016 98.4438 219.489C99.324 220.673 100.043 221.966 100.653 223.33C101.067 224.228 101.444 225.144 101.713 226.077C102.072 227.298 102.414 228.519 102.629 229.757C102.827 230.906 103.061 232.037 103.096 233.204C103.114 234.245 103.312 235.287 103.294 236.328C103.294 236.454 103.33 236.597 103.384 236.723C103.599 237.459 103.977 238.123 104.3 238.805C105.126 240.565 106.007 242.324 106.851 244.083C107.749 245.933 108.611 247.8 109.51 249.667C109.797 250.259 109.761 250.331 109.114 250.331C107.12 250.331 105.126 250.331 103.15 250.331C102.647 250.331 102.144 250.367 101.641 250.492C100.186 250.834 99.3599 252.377 99.6473 253.796C99.7911 254.46 99.9707 255.106 100.043 255.77C100.276 258.05 100.222 260.33 99.5755 262.556C99.1444 264.064 98.4797 265.483 97.5276 266.704C95.839 268.858 93.6473 270.312 91.1144 271.299C89.839 271.802 88.5456 272.179 87.2162 272.484C85.9947 272.771 84.7551 272.951 83.4976 273.095C81.6653 273.292 79.833 273.454 78.0006 273.382C76.4378 273.364 74.9647 274.71 75.0006 276.308C75.0366 277.672 76.5456 279.001 77.7312 279.001C79.815 279.001 81.8809 278.875 83.9468 278.678C84.845 278.588 85.7611 278.444 86.6414 278.283C88.0246 278.032 89.3899 277.726 90.7372 277.295C91.8689 276.936 92.9827 276.595 94.0605 276.075C94.2402 275.985 94.4198 275.931 94.5815 275.931C96.6473 275.159 98.2641 273.615 99.9707 272.251C100.061 272.107 100.24 271.928 100.474 271.676C102.144 270.043 103.33 268.104 104.228 265.95C104.893 264.352 105.324 262.682 105.522 260.977C105.683 259.612 105.791 258.212 105.611 256.812C105.522 256.094 105.629 255.968 106.366 255.968C107.641 255.968 108.917 255.968 110.174 255.968C111.396 255.968 112.635 255.986 113.857 255.968C115.114 255.95 116.156 255.537 116.713 254.334C117.09 253.544 117.072 252.719 116.731 251.947C116.013 250.349 115.24 248.787 114.468 247.225C113.767 245.753 113.049 244.299 112.348 242.827C111.342 240.726 110.372 238.608 109.33 236.525C108.863 235.61 108.791 234.676 108.701 233.671C108.558 232.037 108.432 230.404 108.072 228.788C107.875 227.908 107.695 227.011 107.48 226.131C106.959 224.013 106.186 221.966 105.216 220.009C103.941 217.46 102.306 215.18 100.312 213.151C100.007 212.846 99.6653 212.577 99.3599 212.272" fill="#379A99"/>
<path d="M92.8578 237.55C91.2949 237.622 89.75 236.203 89.768 234.426C89.7859 232.703 91.2231 231.32 92.9297 231.338C94.6183 231.356 96.0195 232.721 96.0015 234.534C95.9835 236.114 94.6003 237.604 92.8578 237.55Z" fill="#379A99"/>
<path d="M130.568 224.739C129.406 225.435 128.281 226.106 127.207 226.737C127.321 226.386 127.438 226.029 127.557 225.666C129.009 221.226 130.715 216.012 132.07 211.262C133.186 207.349 134.133 203.528 134.592 200.377C134.821 198.805 134.943 197.31 134.875 196.007C134.812 194.787 134.569 193.331 133.706 192.195C124.755 180.411 119.5 165.997 119.5 150.433C119.5 110.844 153.608 78.5 196 78.5C238.392 78.5 272.5 110.844 272.5 150.433C272.5 190.023 238.392 222.367 196 222.367C182.65 222.367 170.109 219.153 159.197 213.511C157.884 212.832 156.406 212.759 155.075 212.901C153.716 213.045 152.25 213.443 150.766 213.972C147.795 215.031 144.376 216.756 140.933 218.666C137.82 220.394 134.595 222.326 131.566 224.142C131.231 224.342 130.898 224.542 130.568 224.739Z" fill="#A5DFDE" stroke="#A5DFDE" stroke-width="5"/>
<path d="M152.07 112.312H153.273C153.846 112.312 154.271 112.169 154.547 111.883C154.823 111.596 154.961 111.216 154.961 110.742C154.961 110.284 154.823 109.927 154.547 109.672C154.276 109.417 153.901 109.289 153.422 109.289C152.99 109.289 152.628 109.409 152.336 109.648C152.044 109.883 151.898 110.19 151.898 110.57H149.641C149.641 109.977 149.799 109.445 150.117 108.977C150.44 108.503 150.888 108.133 151.461 107.867C152.039 107.602 152.674 107.469 153.367 107.469C154.57 107.469 155.513 107.758 156.195 108.336C156.878 108.909 157.219 109.701 157.219 110.711C157.219 111.232 157.06 111.711 156.742 112.148C156.424 112.586 156.008 112.922 155.492 113.156C156.133 113.385 156.609 113.729 156.922 114.188C157.24 114.646 157.398 115.188 157.398 115.812C157.398 116.823 157.029 117.633 156.289 118.242C155.555 118.852 154.581 119.156 153.367 119.156C152.232 119.156 151.302 118.857 150.578 118.258C149.859 117.659 149.5 116.867 149.5 115.883H151.758C151.758 116.31 151.917 116.659 152.234 116.93C152.557 117.201 152.953 117.336 153.422 117.336C153.958 117.336 154.378 117.195 154.68 116.914C154.987 116.628 155.141 116.25 155.141 115.781C155.141 114.646 154.516 114.078 153.266 114.078H152.07V112.312ZM162.273 113.07L163.695 110.547H166.109L163.703 114.688L166.211 119H163.789L162.281 116.344L160.781 119H158.352L160.859 114.688L158.461 110.547H160.883L162.273 113.07ZM175.734 112.633H178.555V114.672H175.734V117.859H173.586V114.672H170.758V112.633H173.586V109.578H175.734V112.633ZM184.141 113.406L184.797 107.625H191.172V109.508H186.648L186.367 111.953C186.904 111.667 187.474 111.523 188.078 111.523C189.161 111.523 190.01 111.859 190.625 112.531C191.24 113.203 191.547 114.143 191.547 115.352C191.547 116.086 191.391 116.745 191.078 117.328C190.771 117.906 190.328 118.357 189.75 118.68C189.172 118.997 188.49 119.156 187.703 119.156C187.016 119.156 186.378 119.018 185.789 118.742C185.201 118.461 184.734 118.068 184.391 117.562C184.052 117.057 183.872 116.482 183.852 115.836H186.086C186.133 116.31 186.297 116.68 186.578 116.945C186.865 117.206 187.237 117.336 187.695 117.336C188.206 117.336 188.599 117.154 188.875 116.789C189.151 116.419 189.289 115.898 189.289 115.227C189.289 114.581 189.13 114.086 188.812 113.742C188.495 113.398 188.044 113.227 187.461 113.227C186.924 113.227 186.49 113.367 186.156 113.648L185.938 113.852L184.141 113.406ZM204.25 113.172H197.266V111.328H204.25V113.172ZM204.25 116.555H197.266V114.711H204.25V116.555ZM212.414 112.312H213.617C214.19 112.312 214.615 112.169 214.891 111.883C215.167 111.596 215.305 111.216 215.305 110.742C215.305 110.284 215.167 109.927 214.891 109.672C214.62 109.417 214.245 109.289 213.766 109.289C213.333 109.289 212.971 109.409 212.68 109.648C212.388 109.883 212.242 110.19 212.242 110.57H209.984C209.984 109.977 210.143 109.445 210.461 108.977C210.784 108.503 211.232 108.133 211.805 107.867C212.383 107.602 213.018 107.469 213.711 107.469C214.914 107.469 215.857 107.758 216.539 108.336C217.221 108.909 217.562 109.701 217.562 110.711C217.562 111.232 217.404 111.711 217.086 112.148C216.768 112.586 216.352 112.922 215.836 113.156C216.477 113.385 216.953 113.729 217.266 114.188C217.583 114.646 217.742 115.188 217.742 115.812C217.742 116.823 217.372 117.633 216.633 118.242C215.898 118.852 214.924 119.156 213.711 119.156C212.576 119.156 211.646 118.857 210.922 118.258C210.203 117.659 209.844 116.867 209.844 115.883H212.102C212.102 116.31 212.26 116.659 212.578 116.93C212.901 117.201 213.297 117.336 213.766 117.336C214.302 117.336 214.721 117.195 215.023 116.914C215.331 116.628 215.484 116.25 215.484 115.781C215.484 114.646 214.859 114.078 213.609 114.078H212.414V112.312ZM219.641 113.406L220.297 107.625H226.672V109.508H222.148L221.867 111.953C222.404 111.667 222.974 111.523 223.578 111.523C224.661 111.523 225.51 111.859 226.125 112.531C226.74 113.203 227.047 114.143 227.047 115.352C227.047 116.086 226.891 116.745 226.578 117.328C226.271 117.906 225.828 118.357 225.25 118.68C224.672 118.997 223.99 119.156 223.203 119.156C222.516 119.156 221.878 119.018 221.289 118.742C220.701 118.461 220.234 118.068 219.891 117.562C219.552 117.057 219.372 116.482 219.352 115.836H221.586C221.633 116.31 221.797 116.68 222.078 116.945C222.365 117.206 222.737 117.336 223.195 117.336C223.706 117.336 224.099 117.154 224.375 116.789C224.651 116.419 224.789 115.898 224.789 115.227C224.789 114.581 224.63 114.086 224.312 113.742C223.995 113.398 223.544 113.227 222.961 113.227C222.424 113.227 221.99 113.367 221.656 113.648L221.438 113.852L219.641 113.406ZM180.359 134.375H176.617V133.586H180.359V134.375ZM182.516 133.172L183.07 127.625H188.758V128.492H183.875L183.477 132.336C184.086 131.919 184.799 131.711 185.617 131.711C186.643 131.711 187.461 132.044 188.07 132.711C188.68 133.378 188.984 134.266 188.984 135.375C188.984 136.573 188.688 137.503 188.094 138.164C187.5 138.826 186.664 139.156 185.586 139.156C184.596 139.156 183.794 138.88 183.18 138.328C182.565 137.776 182.214 137.003 182.125 136.008H183.023C183.112 136.784 183.375 137.372 183.812 137.773C184.25 138.169 184.841 138.367 185.586 138.367C186.398 138.367 187.01 138.109 187.422 137.594C187.839 137.078 188.047 136.344 188.047 135.391C188.047 134.557 187.815 133.878 187.352 133.352C186.888 132.826 186.255 132.562 185.453 132.562C185.01 132.562 184.625 132.62 184.297 132.734C183.969 132.844 183.622 133.06 183.258 133.383L182.516 133.172ZM217.156 134.375H213.414V133.586H217.156V134.375ZM219.312 133.172L219.867 127.625H225.555V128.492H220.672L220.273 132.336C220.883 131.919 221.596 131.711 222.414 131.711C223.44 131.711 224.258 132.044 224.867 132.711C225.477 133.378 225.781 134.266 225.781 135.375C225.781 136.573 225.484 137.503 224.891 138.164C224.297 138.826 223.461 139.156 222.383 139.156C221.393 139.156 220.591 138.88 219.977 138.328C219.362 137.776 219.01 137.003 218.922 136.008H219.82C219.909 136.784 220.172 137.372 220.609 137.773C221.047 138.169 221.638 138.367 222.383 138.367C223.195 138.367 223.807 138.109 224.219 137.594C224.635 137.078 224.844 136.344 224.844 135.391C224.844 134.557 224.612 133.878 224.148 133.352C223.685 132.826 223.052 132.562 222.25 132.562C221.807 132.562 221.422 132.62 221.094 132.734C220.766 132.844 220.419 133.06 220.055 133.383L219.312 133.172ZM179.961 152.312H181.164C181.737 152.312 182.161 152.169 182.438 151.883C182.714 151.596 182.852 151.216 182.852 150.742C182.852 150.284 182.714 149.927 182.438 149.672C182.167 149.417 181.792 149.289 181.312 149.289C180.88 149.289 180.518 149.409 180.227 149.648C179.935 149.883 179.789 150.19 179.789 150.57H177.531C177.531 149.977 177.69 149.445 178.008 148.977C178.331 148.503 178.779 148.133 179.352 147.867C179.93 147.602 180.565 147.469 181.258 147.469C182.461 147.469 183.404 147.758 184.086 148.336C184.768 148.909 185.109 149.701 185.109 150.711C185.109 151.232 184.951 151.711 184.633 152.148C184.315 152.586 183.898 152.922 183.383 153.156C184.023 153.385 184.5 153.729 184.812 154.188C185.13 154.646 185.289 155.188 185.289 155.812C185.289 156.823 184.919 157.633 184.18 158.242C183.445 158.852 182.471 159.156 181.258 159.156C180.122 159.156 179.193 158.857 178.469 158.258C177.75 157.659 177.391 156.867 177.391 155.883H179.648C179.648 156.31 179.807 156.659 180.125 156.93C180.448 157.201 180.844 157.336 181.312 157.336C181.849 157.336 182.268 157.195 182.57 156.914C182.878 156.628 183.031 156.25 183.031 155.781C183.031 154.646 182.406 154.078 181.156 154.078H179.961V152.312ZM190.164 153.07L191.586 150.547H194L191.594 154.688L194.102 159H191.68L190.172 156.344L188.672 159H186.242L188.75 154.688L186.352 150.547H188.773L190.164 153.07ZM206.25 153.172H199.266V151.328H206.25V153.172ZM206.25 156.555H199.266V154.711H206.25V156.555ZM214.414 152.312H215.617C216.19 152.312 216.615 152.169 216.891 151.883C217.167 151.596 217.305 151.216 217.305 150.742C217.305 150.284 217.167 149.927 216.891 149.672C216.62 149.417 216.245 149.289 215.766 149.289C215.333 149.289 214.971 149.409 214.68 149.648C214.388 149.883 214.242 150.19 214.242 150.57H211.984C211.984 149.977 212.143 149.445 212.461 148.977C212.784 148.503 213.232 148.133 213.805 147.867C214.383 147.602 215.018 147.469 215.711 147.469C216.914 147.469 217.857 147.758 218.539 148.336C219.221 148.909 219.562 149.701 219.562 150.711C219.562 151.232 219.404 151.711 219.086 152.148C218.768 152.586 218.352 152.922 217.836 153.156C218.477 153.385 218.953 153.729 219.266 154.188C219.583 154.646 219.742 155.188 219.742 155.812C219.742 156.823 219.372 157.633 218.633 158.242C217.898 158.852 216.924 159.156 215.711 159.156C214.576 159.156 213.646 158.857 212.922 158.258C212.203 157.659 211.844 156.867 211.844 155.883H214.102C214.102 156.31 214.26 156.659 214.578 156.93C214.901 157.201 215.297 157.336 215.766 157.336C216.302 157.336 216.721 157.195 217.023 156.914C217.331 156.628 217.484 156.25 217.484 155.781C217.484 154.646 216.859 154.078 215.609 154.078H214.414V152.312ZM228.961 154.297C228.961 155.87 228.635 157.073 227.984 157.906C227.333 158.74 226.38 159.156 225.125 159.156C223.885 159.156 222.938 158.747 222.281 157.93C221.625 157.112 221.289 155.94 221.273 154.414V152.32C221.273 150.732 221.602 149.526 222.258 148.703C222.919 147.88 223.87 147.469 225.109 147.469C226.349 147.469 227.297 147.878 227.953 148.695C228.609 149.508 228.945 150.677 228.961 152.203V154.297ZM226.703 152C226.703 151.057 226.573 150.372 226.312 149.945C226.057 149.513 225.656 149.297 225.109 149.297C224.578 149.297 224.185 149.503 223.93 149.914C223.68 150.32 223.547 150.958 223.531 151.828V154.594C223.531 155.521 223.656 156.211 223.906 156.664C224.161 157.112 224.568 157.336 225.125 157.336C225.677 157.336 226.076 157.12 226.32 156.688C226.565 156.255 226.693 155.594 226.703 154.703V152ZM181.211 179.977H180.359L185.109 167.625H185.953L181.211 179.977ZM189.633 172.805H190.602C191.138 172.805 191.607 172.711 192.008 172.523C192.409 172.331 192.714 172.07 192.922 171.742C193.135 171.409 193.242 171.026 193.242 170.594C193.242 169.865 193.036 169.294 192.625 168.883C192.214 168.471 191.622 168.266 190.852 168.266C190.122 168.266 189.523 168.482 189.055 168.914C188.591 169.341 188.359 169.906 188.359 170.609H187.422C187.422 170.021 187.57 169.484 187.867 169C188.164 168.51 188.576 168.133 189.102 167.867C189.628 167.602 190.211 167.469 190.852 167.469C191.883 167.469 192.695 167.75 193.289 168.312C193.883 168.875 194.18 169.646 194.18 170.625C194.18 171.172 194.005 171.677 193.656 172.141C193.312 172.599 192.839 172.943 192.234 173.172C192.943 173.37 193.479 173.711 193.844 174.195C194.208 174.674 194.391 175.247 194.391 175.914C194.391 176.888 194.073 177.672 193.438 178.266C192.802 178.859 191.953 179.156 190.891 179.156C190.214 179.156 189.591 179.021 189.023 178.75C188.461 178.479 188.023 178.102 187.711 177.617C187.404 177.128 187.25 176.56 187.25 175.914H188.188C188.188 176.638 188.44 177.229 188.945 177.688C189.451 178.141 190.099 178.367 190.891 178.367C191.698 178.367 192.326 178.161 192.773 177.75C193.227 177.333 193.453 176.732 193.453 175.945C193.453 175.185 193.208 174.604 192.719 174.203C192.234 173.802 191.518 173.602 190.57 173.602H189.633V172.805ZM212.008 179.977H211.156L215.906 167.625H216.75L212.008 179.977ZM220.43 172.805H221.398C221.935 172.805 222.404 172.711 222.805 172.523C223.206 172.331 223.51 172.07 223.719 171.742C223.932 171.409 224.039 171.026 224.039 170.594C224.039 169.865 223.833 169.294 223.422 168.883C223.01 168.471 222.419 168.266 221.648 168.266C220.919 168.266 220.32 168.482 219.852 168.914C219.388 169.341 219.156 169.906 219.156 170.609H218.219C218.219 170.021 218.367 169.484 218.664 169C218.961 168.51 219.372 168.133 219.898 167.867C220.424 167.602 221.008 167.469 221.648 167.469C222.68 167.469 223.492 167.75 224.086 168.312C224.68 168.875 224.977 169.646 224.977 170.625C224.977 171.172 224.802 171.677 224.453 172.141C224.109 172.599 223.635 172.943 223.031 173.172C223.74 173.37 224.276 173.711 224.641 174.195C225.005 174.674 225.188 175.247 225.188 175.914C225.188 176.888 224.87 177.672 224.234 178.266C223.599 178.859 222.75 179.156 221.688 179.156C221.01 179.156 220.388 179.021 219.82 178.75C219.258 178.479 218.82 178.102 218.508 177.617C218.201 177.128 218.047 176.56 218.047 175.914H218.984C218.984 176.638 219.237 177.229 219.742 177.688C220.247 178.141 220.896 178.367 221.688 178.367C222.495 178.367 223.122 178.161 223.57 177.75C224.023 177.333 224.25 176.732 224.25 175.945C224.25 175.185 224.005 174.604 223.516 174.203C223.031 173.802 222.315 173.602 221.367 173.602H220.43V172.805ZM188.945 193.07L190.367 190.547H192.781L190.375 194.688L192.883 199H190.461L188.953 196.344L187.453 199H185.023L187.531 194.688L185.133 190.547H187.555L188.945 193.07ZM205.031 193.172H198.047V191.328H205.031V193.172ZM205.031 196.555H198.047V194.711H205.031V196.555ZM216.383 199H214.125V190.297L211.43 191.133V189.297L216.141 187.609H216.383V199ZM227.742 194.297C227.742 195.87 227.417 197.073 226.766 197.906C226.115 198.74 225.161 199.156 223.906 199.156C222.667 199.156 221.719 198.747 221.062 197.93C220.406 197.112 220.07 195.94 220.055 194.414V192.32C220.055 190.732 220.383 189.526 221.039 188.703C221.701 187.88 222.651 187.469 223.891 187.469C225.13 187.469 226.078 187.878 226.734 188.695C227.391 189.508 227.727 190.677 227.742 192.203V194.297ZM225.484 192C225.484 191.057 225.354 190.372 225.094 189.945C224.839 189.513 224.438 189.297 223.891 189.297C223.359 189.297 222.966 189.503 222.711 189.914C222.461 190.32 222.328 190.958 222.312 191.828V194.594C222.312 195.521 222.438 196.211 222.688 196.664C222.943 197.112 223.349 197.336 223.906 197.336C224.458 197.336 224.857 197.12 225.102 196.688C225.346 196.255 225.474 195.594 225.484 194.703V192Z" fill="#379A99"/>
</svg>
