<svg width="350" height="350" viewBox="0 0 350 350" fill="none" xmlns="http://www.w3.org/2000/svg">
<path d="M126.638 176.991C126.638 171.978 127.246 167.986 128.464 165.014C129.681 162.042 131.901 159.123 135.124 156.259C138.382 153.358 140.549 151.013 141.623 149.223C142.697 147.396 143.234 145.481 143.234 143.476C143.234 137.424 140.441 134.398 134.855 134.398C132.206 134.398 130.075 135.222 128.464 136.869C126.888 138.48 126.065 140.718 125.993 143.583H110.417C110.489 136.744 112.691 131.391 117.023 127.523C121.392 123.656 127.336 121.723 134.855 121.723C142.447 121.723 148.337 123.567 152.526 127.255C156.716 130.907 158.811 136.081 158.811 142.777C158.811 145.821 158.13 148.703 156.77 151.425C155.409 154.11 153.028 157.1 149.626 160.395L145.275 164.53C142.554 167.144 140.996 170.206 140.603 173.715L140.388 176.991H126.638ZM125.08 193.48C125.08 191.081 125.886 189.112 127.497 187.572C129.144 185.997 131.239 185.209 133.781 185.209C136.324 185.209 138.4 185.997 140.012 187.572C141.659 189.112 142.482 191.081 142.482 193.48C142.482 195.844 141.677 197.795 140.065 199.335C138.49 200.875 136.395 201.645 133.781 201.645C131.167 201.645 129.055 200.875 127.443 199.335C125.868 197.795 125.08 195.844 125.08 193.48Z" fill="#379A99"/>
<path d="M197.013 119.813C197.013 116.851 197.373 114.492 198.092 112.735C198.812 110.979 200.124 109.255 202.028 107.562C203.953 105.848 205.233 104.462 205.868 103.404C206.503 102.325 206.82 101.193 206.82 100.008C206.82 96.4325 205.17 94.6445 201.869 94.6445C200.303 94.6445 199.044 95.1312 198.092 96.1045C197.161 97.0566 196.675 98.3791 196.632 100.072H187.428C187.471 96.0304 188.772 92.8672 191.332 90.582C193.913 88.2969 197.426 87.1543 201.869 87.1543C206.355 87.1543 209.835 88.244 212.311 90.4233C214.787 92.5815 216.024 95.639 216.024 99.5957C216.024 101.394 215.622 103.097 214.818 104.706C214.014 106.292 212.607 108.059 210.597 110.006L208.026 112.45C206.418 113.994 205.498 115.803 205.265 117.877L205.138 119.813H197.013ZM196.093 129.557C196.093 128.139 196.569 126.975 197.521 126.065C198.494 125.134 199.732 124.669 201.234 124.669C202.737 124.669 203.964 125.134 204.916 126.065C205.889 126.975 206.376 128.139 206.376 129.557C206.376 130.953 205.9 132.106 204.948 133.016C204.017 133.926 202.779 134.381 201.234 134.381C199.69 134.381 198.441 133.926 197.489 133.016C196.558 132.106 196.093 130.953 196.093 129.557Z" fill="#379A99"/>
<path d="M213.402 224.448C213.402 220.574 213.872 217.489 214.813 215.192C215.754 212.896 217.469 210.641 219.959 208.427C222.477 206.186 224.151 204.374 224.981 202.99C225.812 201.579 226.227 200.099 226.227 198.549C226.227 193.873 224.068 191.535 219.752 191.535C217.704 191.535 216.058 192.172 214.813 193.444C213.596 194.689 212.959 196.419 212.904 198.632H200.868C200.923 193.347 202.625 189.211 205.973 186.223C209.348 183.234 213.941 181.74 219.752 181.74C225.618 181.74 230.169 183.165 233.407 186.015C236.644 188.837 238.263 192.836 238.263 198.01C238.263 200.362 237.737 202.589 236.686 204.692C235.634 206.767 233.794 209.077 231.166 211.623L227.804 214.819C225.701 216.839 224.497 219.204 224.193 221.916L224.027 224.448H213.402ZM212.198 237.189C212.198 235.336 212.821 233.814 214.066 232.624C215.339 231.407 216.957 230.798 218.922 230.798C220.886 230.798 222.491 231.407 223.736 232.624C225.009 233.814 225.646 235.336 225.646 237.189C225.646 239.016 225.023 240.524 223.778 241.713C222.56 242.903 220.942 243.498 218.922 243.498C216.902 243.498 215.27 242.903 214.024 241.713C212.807 240.524 212.198 239.016 212.198 237.189Z" fill="#379A99"/>
</svg>
