<svg width="350" height="350" viewBox="0 0 350 350" fill="none" xmlns="http://www.w3.org/2000/svg">
<path d="M107 233.132C108.897 234.925 111.211 236.146 113.137 237.901C113.662 238.379 116.319 241.298 116.44 240.975C118.221 236.215 121.704 231.629 124.111 227.139C125.171 225.164 127.541 222.14 129 220" stroke="#379A99" stroke-width="6" stroke-linecap="round" stroke-linejoin="round"/>
<path d="M222 223.743C226.545 226.936 234.662 233.781 239.001 237.243C240.124 238.139 243 240.191 243 240.191" stroke="#379A99" stroke-width="6" stroke-linecap="round" stroke-linejoin="round"/>
<path d="M225.202 242.75C230.091 235.208 235.634 226.908 242.532 221" stroke="#379A99" stroke-width="6" stroke-linecap="round" stroke-linejoin="round"/>
<rect x="89" y="108" width="57" height="87" rx="5" fill="#A5DFDE"/>
<rect x="204" y="108" width="57" height="87" rx="5" fill="#A5DFDE"/>
</svg>
