<svg width="350" height="350" viewBox="0 0 350 350" fill="none" xmlns="http://www.w3.org/2000/svg">
<g clip-path="url(#clip0)">
<path d="M265 145.632C265.127 151.158 264.323 156.257 263.053 161.4C261.784 166.458 260.049 171.345 257.806 176.02C254.675 182.607 250.824 188.728 246.127 194.253C242.573 198.417 238.68 202.243 234.49 205.812C231.571 208.362 228.735 210.997 225.816 213.59C222.261 216.777 218.664 219.965 215.067 223.152C212.19 225.702 209.355 228.295 206.477 230.845C203.388 233.607 200.342 236.327 197.253 239.09C194.417 241.64 191.625 244.232 188.747 246.74C185.277 249.757 182.019 252.987 178.464 255.877C177.279 256.855 176.179 257.96 175.037 259.022C173.725 260.255 173.471 260.297 172.117 259.15C169.832 257.152 167.589 255.113 165.346 253.072C160.988 248.992 156.545 244.997 152.102 241.045C149.351 238.58 146.728 236.072 144.019 233.607C140.465 230.335 136.868 227.105 133.271 223.875C130.055 220.942 126.797 217.967 123.581 215.035C120.069 211.848 116.556 208.618 113.002 205.43C105.935 199.14 99.5032 192.298 94.5522 184.137C90.5322 177.465 87.2739 170.41 85.2427 162.845C83.4655 155.875 82.6615 148.905 83.127 141.85C83.4232 137.132 84.3118 132.458 85.6236 127.91C86.8507 123.745 88.5011 119.75 90.6168 116.01C92.8596 112.1 95.3985 108.36 98.5299 105.045C102.169 101.22 106.189 97.905 110.844 95.4825C115.922 92.8475 121.253 91.0625 126.966 90.34C132.213 89.7025 137.376 90 142.496 91.105C148.293 92.38 153.71 94.675 158.618 97.99C162.638 100.668 166.066 104.025 169.113 107.765C170.382 109.338 171.567 110.953 172.667 112.653C173.429 113.885 173.725 113.843 174.487 112.653C177.11 108.36 180.538 104.748 184.304 101.475C187.52 98.67 191.117 96.46 194.967 94.675C199.58 92.5075 204.404 91.0625 209.482 90.3825C214.306 89.745 219.13 89.8725 223.869 90.765C228.058 91.53 231.951 93.0175 235.802 94.845C240.668 97.14 244.815 100.328 248.624 104.068C251.501 106.915 253.956 110.145 256.029 113.673C258.187 117.285 260.134 120.983 261.488 125.02C262.969 129.398 264.027 133.818 264.577 138.408C264.873 140.915 265.085 143.38 265 145.632Z" fill="#379A99"/>
<path d="M212.992 162.569C213.046 164.909 212.702 167.069 212.158 169.247C211.614 171.39 210.87 173.46 209.909 175.44C208.567 178.23 206.917 180.822 204.905 183.162C203.381 184.926 201.713 186.546 199.918 188.058C198.667 189.138 197.452 190.254 196.201 191.352C194.677 192.702 193.136 194.052 191.595 195.402C190.362 196.482 189.147 197.58 187.914 198.66C186.59 199.83 185.284 200.982 183.961 202.152C182.746 203.232 181.549 204.33 180.316 205.392C178.829 206.67 177.433 208.038 175.91 209.262C175.402 209.676 174.93 210.145 174.441 210.595C173.879 211.117 173.77 211.135 173.19 210.649C172.21 209.802 171.249 208.938 170.288 208.074C168.421 206.346 166.517 204.654 164.613 202.98C163.434 201.936 162.31 200.874 161.149 199.83C159.626 198.444 158.085 197.076 156.543 195.708C155.165 194.466 153.769 193.206 152.391 191.964C150.886 190.614 149.381 189.246 147.858 187.896C144.829 185.232 142.073 182.334 139.952 178.878C138.229 176.052 136.833 173.064 135.962 169.86C135.201 166.907 134.856 163.955 135.056 160.967C135.183 158.969 135.563 156.989 136.126 155.063C136.651 153.299 137.359 151.607 138.265 150.023C139.226 148.367 140.314 146.783 141.656 145.379C143.216 143.759 144.938 142.355 146.933 141.329C149.109 140.213 151.394 139.457 153.842 139.151C156.09 138.881 158.302 139.007 160.496 139.475C162.981 140.015 165.302 140.987 167.405 142.391C169.128 143.525 170.597 144.947 171.902 146.531C172.446 147.197 172.954 147.881 173.425 148.601C173.752 149.123 173.879 149.105 174.205 148.601C175.329 146.783 176.798 145.253 178.412 143.867C179.79 142.679 181.331 141.743 182.982 140.987C184.958 140.069 187.025 139.457 189.201 139.169C191.268 138.899 193.336 138.953 195.367 139.331C197.162 139.655 198.83 140.285 200.48 141.059C202.565 142.031 204.342 143.381 205.974 144.965C207.207 146.171 208.259 147.539 209.148 149.033C210.073 150.563 210.907 152.129 211.487 153.839C212.122 155.693 212.575 157.565 212.811 159.509C212.938 160.571 213.028 161.615 212.992 162.569Z" fill="white"/>
</g>
<defs>
<clipPath id="clip0">
<rect width="182" height="170" fill="white" transform="translate(83 90)"/>
</clipPath>
</defs>
</svg>
