<svg width="350" height="350" viewBox="0 0 350 350" fill="none" xmlns="http://www.w3.org/2000/svg">
<mask id="path-1-inside-1" fill="white">
<rect x="86" y="68" width="177" height="214" rx="5"/>
</mask>
<rect x="86" y="68" width="177" height="214" rx="5" stroke="#EFB4A3" stroke-opacity="0.9" stroke-width="12" mask="url(#path-1-inside-1)"/>
<rect x="133" y="131" width="84" height="6" rx="3" fill="#DF6D4D"/>
<path d="M132.129 111.211V117H128.016V99.9375H134.824C136.129 99.9375 137.281 100.18 138.281 100.664C139.289 101.141 140.066 101.824 140.613 102.715C141.168 103.598 141.445 104.602 141.445 105.727C141.445 107.391 140.848 108.723 139.652 109.723C138.465 110.715 136.832 111.211 134.754 111.211H132.129ZM132.129 108.035H134.824C135.621 108.035 136.227 107.836 136.641 107.438C137.062 107.039 137.273 106.477 137.273 105.75C137.273 104.953 137.059 104.316 136.629 103.84C136.199 103.363 135.613 103.121 134.871 103.113H132.129V108.035ZM142.805 110.543C142.805 109.277 143.051 108.152 143.543 107.168C144.035 106.176 144.742 105.414 145.664 104.883C146.586 104.352 147.668 104.086 148.91 104.086C150.809 104.086 152.305 104.676 153.398 105.855C154.492 107.027 155.039 108.625 155.039 110.648V110.789C155.039 112.766 154.488 114.336 153.387 115.5C152.293 116.656 150.809 117.234 148.934 117.234C147.129 117.234 145.68 116.695 144.586 115.617C143.492 114.531 142.902 113.062 142.816 111.211L142.805 110.543ZM146.754 110.789C146.754 111.961 146.938 112.82 147.305 113.367C147.672 113.914 148.215 114.188 148.934 114.188C150.34 114.188 151.059 113.105 151.09 110.941V110.543C151.09 108.27 150.363 107.133 148.91 107.133C147.59 107.133 146.875 108.113 146.766 110.074L146.754 110.789ZM168.551 110.754C168.551 112.723 168.105 114.297 167.215 115.477C166.332 116.648 165.137 117.234 163.629 117.234C162.465 117.234 161.508 116.809 160.758 115.957V121.875H156.809V104.32H160.5L160.617 105.492C161.375 104.555 162.371 104.086 163.605 104.086C165.168 104.086 166.383 104.664 167.25 105.82C168.117 106.969 168.551 108.551 168.551 110.566V110.754ZM164.602 110.508C164.602 108.258 163.945 107.133 162.633 107.133C161.695 107.133 161.07 107.469 160.758 108.141V113.133C161.102 113.836 161.734 114.188 162.656 114.188C163.914 114.188 164.562 113.102 164.602 110.93V110.508ZM190.934 108.82C190.934 110.398 190.672 111.777 190.148 112.957C189.625 114.129 188.902 115.07 187.98 115.781L190.734 117.961L188.191 120.117L184.523 117.164C184.18 117.211 183.836 117.234 183.492 117.234C182.039 117.234 180.75 116.898 179.625 116.227C178.5 115.555 177.621 114.594 176.988 113.344C176.363 112.094 176.039 110.656 176.016 109.031V108.129C176.016 106.449 176.32 104.973 176.93 103.699C177.547 102.426 178.422 101.441 179.555 100.746C180.695 100.051 182 99.7031 183.469 99.7031C184.914 99.7031 186.203 100.047 187.336 100.734C188.469 101.422 189.348 102.402 189.973 103.676C190.605 104.941 190.926 106.395 190.934 108.035V108.82ZM186.75 108.105C186.75 106.41 186.465 105.125 185.895 104.25C185.332 103.367 184.523 102.926 183.469 102.926C182.383 102.926 181.566 103.359 181.02 104.227C180.473 105.094 180.195 106.363 180.188 108.035V108.82C180.188 110.5 180.465 111.789 181.02 112.688C181.574 113.578 182.398 114.023 183.492 114.023C184.539 114.023 185.34 113.582 185.895 112.699C186.457 111.816 186.742 110.547 186.75 108.891V108.105ZM200.402 115.629C199.566 116.699 198.438 117.234 197.016 117.234C195.625 117.234 194.57 116.832 193.852 116.027C193.141 115.215 192.785 114.051 192.785 112.535V104.32H196.734V112.559C196.734 113.645 197.262 114.188 198.316 114.188C199.223 114.188 199.867 113.863 200.25 113.215V104.32H204.223V117H200.52L200.402 115.629ZM210.562 117H206.602V104.32H210.562V117ZM206.367 101.051C206.367 100.488 206.57 100.027 206.977 99.668C207.383 99.3086 207.91 99.1289 208.559 99.1289C209.207 99.1289 209.734 99.3086 210.141 99.668C210.547 100.027 210.75 100.488 210.75 101.051C210.75 101.613 210.547 102.074 210.141 102.434C209.734 102.793 209.207 102.973 208.559 102.973C207.91 102.973 207.383 102.793 206.977 102.434C206.57 102.074 206.367 101.613 206.367 101.051ZM217.664 113.953H223.441V117H212.672V114.797L218.297 107.367H212.918V104.32H223.312V106.453L217.664 113.953Z" fill="#E17557"/>
<path d="M127.412 186.926C126.715 187.772 125.752 188.195 124.521 188.195C123.389 188.195 122.523 187.87 121.924 187.219C121.331 186.568 121.029 185.614 121.016 184.357V177.434H123.838V184.26C123.838 185.36 124.339 185.91 125.342 185.91C126.299 185.91 126.956 185.578 127.314 184.914V177.434H130.146V188H127.49L127.412 186.926ZM134.873 177.434L134.961 178.654C135.716 177.71 136.729 177.238 137.998 177.238C139.118 177.238 139.951 177.567 140.498 178.225C141.045 178.882 141.325 179.865 141.338 181.174V188H138.516V181.242C138.516 180.643 138.385 180.21 138.125 179.943C137.865 179.67 137.432 179.533 136.826 179.533C136.032 179.533 135.436 179.872 135.039 180.549V188H132.217V177.434H134.873ZM146.465 188H143.633V177.434H146.465V188ZM143.467 174.699C143.467 174.276 143.607 173.928 143.887 173.654C144.173 173.381 144.561 173.244 145.049 173.244C145.531 173.244 145.915 173.381 146.201 173.654C146.488 173.928 146.631 174.276 146.631 174.699C146.631 175.129 146.484 175.48 146.191 175.754C145.905 176.027 145.524 176.164 145.049 176.164C144.574 176.164 144.189 176.027 143.896 175.754C143.61 175.48 143.467 175.129 143.467 174.699ZM152.178 174.836V177.434H153.984V179.504H152.178V184.777C152.178 185.168 152.253 185.448 152.402 185.617C152.552 185.786 152.839 185.871 153.262 185.871C153.574 185.871 153.851 185.848 154.092 185.803V187.941C153.538 188.111 152.969 188.195 152.383 188.195C150.404 188.195 149.395 187.196 149.355 185.197V179.504H147.812V177.434H149.355V174.836H152.178ZM170.166 188H160.42V186.066L165.02 181.164C165.651 180.474 166.117 179.872 166.416 179.357C166.722 178.843 166.875 178.355 166.875 177.893C166.875 177.261 166.715 176.766 166.396 176.408C166.077 176.044 165.622 175.861 165.029 175.861C164.391 175.861 163.887 176.083 163.516 176.525C163.151 176.962 162.969 177.538 162.969 178.254H160.137C160.137 177.388 160.342 176.597 160.752 175.881C161.169 175.165 161.755 174.605 162.51 174.201C163.265 173.791 164.121 173.586 165.078 173.586C166.543 173.586 167.679 173.938 168.486 174.641C169.3 175.344 169.707 176.337 169.707 177.619C169.707 178.322 169.525 179.038 169.16 179.768C168.796 180.497 168.171 181.346 167.285 182.316L164.053 185.725H170.166V188ZM172.168 186.613C172.168 186.164 172.318 185.799 172.617 185.52C172.923 185.24 173.304 185.1 173.76 185.1C174.222 185.1 174.603 185.24 174.902 185.52C175.208 185.799 175.361 186.164 175.361 186.613C175.361 187.056 175.212 187.417 174.912 187.697C174.613 187.971 174.229 188.107 173.76 188.107C173.298 188.107 172.917 187.971 172.617 187.697C172.318 187.417 172.168 187.056 172.168 186.613ZM184.58 188H181.758V177.121L178.389 178.166V175.871L184.277 173.762H184.58V188ZM199.434 186.613C199.434 186.164 199.583 185.799 199.883 185.52C200.189 185.24 200.57 185.1 201.025 185.1C201.488 185.1 201.868 185.24 202.168 185.52C202.474 185.799 202.627 186.164 202.627 186.613C202.627 187.056 202.477 187.417 202.178 187.697C201.878 187.971 201.494 188.107 201.025 188.107C200.563 188.107 200.182 187.971 199.883 187.697C199.583 187.417 199.434 187.056 199.434 186.613ZM205.254 186.613C205.254 186.164 205.404 185.799 205.703 185.52C206.009 185.24 206.39 185.1 206.846 185.1C207.308 185.1 207.689 185.24 207.988 185.52C208.294 185.799 208.447 186.164 208.447 186.613C208.447 187.056 208.298 187.417 207.998 187.697C207.699 187.971 207.314 188.107 206.846 188.107C206.383 188.107 206.003 187.971 205.703 187.697C205.404 187.417 205.254 187.056 205.254 186.613ZM211.074 186.613C211.074 186.164 211.224 185.799 211.523 185.52C211.829 185.24 212.21 185.1 212.666 185.1C213.128 185.1 213.509 185.24 213.809 185.52C214.115 185.799 214.268 186.164 214.268 186.613C214.268 187.056 214.118 187.417 213.818 187.697C213.519 187.971 213.135 188.107 212.666 188.107C212.204 188.107 211.823 187.971 211.523 187.697C211.224 187.417 211.074 187.056 211.074 186.613ZM216.895 186.613C216.895 186.164 217.044 185.799 217.344 185.52C217.65 185.24 218.031 185.1 218.486 185.1C218.949 185.1 219.329 185.24 219.629 185.52C219.935 185.799 220.088 186.164 220.088 186.613C220.088 187.056 219.938 187.417 219.639 187.697C219.339 187.971 218.955 188.107 218.486 188.107C218.024 188.107 217.643 187.971 217.344 187.697C217.044 187.417 216.895 187.056 216.895 186.613ZM222.715 186.613C222.715 186.164 222.865 185.799 223.164 185.52C223.47 185.24 223.851 185.1 224.307 185.1C224.769 185.1 225.15 185.24 225.449 185.52C225.755 185.799 225.908 186.164 225.908 186.613C225.908 187.056 225.758 187.417 225.459 187.697C225.16 187.971 224.775 188.107 224.307 188.107C223.844 188.107 223.464 187.971 223.164 187.697C222.865 187.417 222.715 187.056 222.715 186.613ZM228.535 186.613C228.535 186.164 228.685 185.799 228.984 185.52C229.29 185.24 229.671 185.1 230.127 185.1C230.589 185.1 230.97 185.24 231.27 185.52C231.576 185.799 231.729 186.164 231.729 186.613C231.729 187.056 231.579 187.417 231.279 187.697C230.98 187.971 230.596 188.107 230.127 188.107C229.665 188.107 229.284 187.971 228.984 187.697C228.685 187.417 228.535 187.056 228.535 186.613ZM127.412 209.926C126.715 210.772 125.752 211.195 124.521 211.195C123.389 211.195 122.523 210.87 121.924 210.219C121.331 209.568 121.029 208.614 121.016 207.357V200.434H123.838V207.26C123.838 208.36 124.339 208.91 125.342 208.91C126.299 208.91 126.956 208.578 127.314 207.914V200.434H130.146V211H127.49L127.412 209.926ZM134.873 200.434L134.961 201.654C135.716 200.71 136.729 200.238 137.998 200.238C139.118 200.238 139.951 200.567 140.498 201.225C141.045 201.882 141.325 202.865 141.338 204.174V211H138.516V204.242C138.516 203.643 138.385 203.21 138.125 202.943C137.865 202.67 137.432 202.533 136.826 202.533C136.032 202.533 135.436 202.872 135.039 203.549V211H132.217V200.434H134.873ZM146.465 211H143.633V200.434H146.465V211ZM143.467 197.699C143.467 197.276 143.607 196.928 143.887 196.654C144.173 196.381 144.561 196.244 145.049 196.244C145.531 196.244 145.915 196.381 146.201 196.654C146.488 196.928 146.631 197.276 146.631 197.699C146.631 198.129 146.484 198.48 146.191 198.754C145.905 199.027 145.524 199.164 145.049 199.164C144.574 199.164 144.189 199.027 143.896 198.754C143.61 198.48 143.467 198.129 143.467 197.699ZM152.178 197.836V200.434H153.984V202.504H152.178V207.777C152.178 208.168 152.253 208.448 152.402 208.617C152.552 208.786 152.839 208.871 153.262 208.871C153.574 208.871 153.851 208.848 154.092 208.803V210.941C153.538 211.111 152.969 211.195 152.383 211.195C150.404 211.195 149.395 210.196 149.355 208.197V202.504H147.812V200.434H149.355V197.836H152.178ZM170.166 211H160.42V209.066L165.02 204.164C165.651 203.474 166.117 202.872 166.416 202.357C166.722 201.843 166.875 201.355 166.875 200.893C166.875 200.261 166.715 199.766 166.396 199.408C166.077 199.044 165.622 198.861 165.029 198.861C164.391 198.861 163.887 199.083 163.516 199.525C163.151 199.962 162.969 200.538 162.969 201.254H160.137C160.137 200.388 160.342 199.597 160.752 198.881C161.169 198.165 161.755 197.605 162.51 197.201C163.265 196.791 164.121 196.586 165.078 196.586C166.543 196.586 167.679 196.938 168.486 197.641C169.3 198.344 169.707 199.337 169.707 200.619C169.707 201.322 169.525 202.038 169.16 202.768C168.796 203.497 168.171 204.346 167.285 205.316L164.053 208.725H170.166V211ZM172.168 209.613C172.168 209.164 172.318 208.799 172.617 208.52C172.923 208.24 173.304 208.1 173.76 208.1C174.222 208.1 174.603 208.24 174.902 208.52C175.208 208.799 175.361 209.164 175.361 209.613C175.361 210.056 175.212 210.417 174.912 210.697C174.613 210.971 174.229 211.107 173.76 211.107C173.298 211.107 172.917 210.971 172.617 210.697C172.318 210.417 172.168 210.056 172.168 209.613ZM187.471 211H177.725V209.066L182.324 204.164C182.956 203.474 183.421 202.872 183.721 202.357C184.027 201.843 184.18 201.355 184.18 200.893C184.18 200.261 184.02 199.766 183.701 199.408C183.382 199.044 182.926 198.861 182.334 198.861C181.696 198.861 181.191 199.083 180.82 199.525C180.456 199.962 180.273 200.538 180.273 201.254H177.441C177.441 200.388 177.646 199.597 178.057 198.881C178.473 198.165 179.059 197.605 179.814 197.201C180.57 196.791 181.426 196.586 182.383 196.586C183.848 196.586 184.984 196.938 185.791 197.641C186.605 198.344 187.012 199.337 187.012 200.619C187.012 201.322 186.829 202.038 186.465 202.768C186.1 203.497 185.475 204.346 184.59 205.316L181.357 208.725H187.471V211ZM199.434 209.613C199.434 209.164 199.583 208.799 199.883 208.52C200.189 208.24 200.57 208.1 201.025 208.1C201.488 208.1 201.868 208.24 202.168 208.52C202.474 208.799 202.627 209.164 202.627 209.613C202.627 210.056 202.477 210.417 202.178 210.697C201.878 210.971 201.494 211.107 201.025 211.107C200.563 211.107 200.182 210.971 199.883 210.697C199.583 210.417 199.434 210.056 199.434 209.613ZM205.254 209.613C205.254 209.164 205.404 208.799 205.703 208.52C206.009 208.24 206.39 208.1 206.846 208.1C207.308 208.1 207.689 208.24 207.988 208.52C208.294 208.799 208.447 209.164 208.447 209.613C208.447 210.056 208.298 210.417 207.998 210.697C207.699 210.971 207.314 211.107 206.846 211.107C206.383 211.107 206.003 210.971 205.703 210.697C205.404 210.417 205.254 210.056 205.254 209.613ZM211.074 209.613C211.074 209.164 211.224 208.799 211.523 208.52C211.829 208.24 212.21 208.1 212.666 208.1C213.128 208.1 213.509 208.24 213.809 208.52C214.115 208.799 214.268 209.164 214.268 209.613C214.268 210.056 214.118 210.417 213.818 210.697C213.519 210.971 213.135 211.107 212.666 211.107C212.204 211.107 211.823 210.971 211.523 210.697C211.224 210.417 211.074 210.056 211.074 209.613ZM216.895 209.613C216.895 209.164 217.044 208.799 217.344 208.52C217.65 208.24 218.031 208.1 218.486 208.1C218.949 208.1 219.329 208.24 219.629 208.52C219.935 208.799 220.088 209.164 220.088 209.613C220.088 210.056 219.938 210.417 219.639 210.697C219.339 210.971 218.955 211.107 218.486 211.107C218.024 211.107 217.643 210.971 217.344 210.697C217.044 210.417 216.895 210.056 216.895 209.613ZM222.715 209.613C222.715 209.164 222.865 208.799 223.164 208.52C223.47 208.24 223.851 208.1 224.307 208.1C224.769 208.1 225.15 208.24 225.449 208.52C225.755 208.799 225.908 209.164 225.908 209.613C225.908 210.056 225.758 210.417 225.459 210.697C225.16 210.971 224.775 211.107 224.307 211.107C223.844 211.107 223.464 210.971 223.164 210.697C222.865 210.417 222.715 210.056 222.715 209.613ZM228.535 209.613C228.535 209.164 228.685 208.799 228.984 208.52C229.29 208.24 229.671 208.1 230.127 208.1C230.589 208.1 230.97 208.24 231.27 208.52C231.576 208.799 231.729 209.164 231.729 209.613C231.729 210.056 231.579 210.417 231.279 210.697C230.98 210.971 230.596 211.107 230.127 211.107C229.665 211.107 229.284 210.971 228.984 210.697C228.685 210.417 228.535 210.056 228.535 209.613ZM127.412 232.926C126.715 233.772 125.752 234.195 124.521 234.195C123.389 234.195 122.523 233.87 121.924 233.219C121.331 232.568 121.029 231.614 121.016 230.357V223.434H123.838V230.26C123.838 231.36 124.339 231.91 125.342 231.91C126.299 231.91 126.956 231.578 127.314 230.914V223.434H130.146V234H127.49L127.412 232.926ZM134.873 223.434L134.961 224.654C135.716 223.71 136.729 223.238 137.998 223.238C139.118 223.238 139.951 223.567 140.498 224.225C141.045 224.882 141.325 225.865 141.338 227.174V234H138.516V227.242C138.516 226.643 138.385 226.21 138.125 225.943C137.865 225.67 137.432 225.533 136.826 225.533C136.032 225.533 135.436 225.872 135.039 226.549V234H132.217V223.434H134.873ZM146.465 234H143.633V223.434H146.465V234ZM143.467 220.699C143.467 220.276 143.607 219.928 143.887 219.654C144.173 219.381 144.561 219.244 145.049 219.244C145.531 219.244 145.915 219.381 146.201 219.654C146.488 219.928 146.631 220.276 146.631 220.699C146.631 221.129 146.484 221.48 146.191 221.754C145.905 222.027 145.524 222.164 145.049 222.164C144.574 222.164 144.189 222.027 143.896 221.754C143.61 221.48 143.467 221.129 143.467 220.699ZM152.178 220.836V223.434H153.984V225.504H152.178V230.777C152.178 231.168 152.253 231.448 152.402 231.617C152.552 231.786 152.839 231.871 153.262 231.871C153.574 231.871 153.851 231.848 154.092 231.803V233.941C153.538 234.111 152.969 234.195 152.383 234.195C150.404 234.195 149.395 233.196 149.355 231.197V225.504H147.812V223.434H149.355V220.836H152.178ZM170.166 234H160.42V232.066L165.02 227.164C165.651 226.474 166.117 225.872 166.416 225.357C166.722 224.843 166.875 224.355 166.875 223.893C166.875 223.261 166.715 222.766 166.396 222.408C166.077 222.044 165.622 221.861 165.029 221.861C164.391 221.861 163.887 222.083 163.516 222.525C163.151 222.962 162.969 223.538 162.969 224.254H160.137C160.137 223.388 160.342 222.597 160.752 221.881C161.169 221.165 161.755 220.605 162.51 220.201C163.265 219.791 164.121 219.586 165.078 219.586C166.543 219.586 167.679 219.938 168.486 220.641C169.3 221.344 169.707 222.337 169.707 223.619C169.707 224.322 169.525 225.038 169.16 225.768C168.796 226.497 168.171 227.346 167.285 228.316L164.053 231.725H170.166V234ZM172.168 232.613C172.168 232.164 172.318 231.799 172.617 231.52C172.923 231.24 173.304 231.1 173.76 231.1C174.222 231.1 174.603 231.24 174.902 231.52C175.208 231.799 175.361 232.164 175.361 232.613C175.361 233.056 175.212 233.417 174.912 233.697C174.613 233.971 174.229 234.107 173.76 234.107C173.298 234.107 172.917 233.971 172.617 233.697C172.318 233.417 172.168 233.056 172.168 232.613ZM180.596 225.641H182.1C182.816 225.641 183.346 225.462 183.691 225.104C184.036 224.745 184.209 224.27 184.209 223.678C184.209 223.105 184.036 222.659 183.691 222.34C183.353 222.021 182.884 221.861 182.285 221.861C181.745 221.861 181.292 222.011 180.928 222.311C180.563 222.604 180.381 222.988 180.381 223.463H177.559C177.559 222.721 177.757 222.057 178.154 221.471C178.558 220.878 179.118 220.416 179.834 220.084C180.557 219.752 181.351 219.586 182.217 219.586C183.721 219.586 184.899 219.947 185.752 220.67C186.605 221.386 187.031 222.376 187.031 223.639C187.031 224.29 186.833 224.889 186.436 225.436C186.038 225.982 185.518 226.402 184.873 226.695C185.674 226.982 186.27 227.411 186.66 227.984C187.057 228.557 187.256 229.234 187.256 230.016C187.256 231.279 186.794 232.291 185.869 233.053C184.951 233.814 183.734 234.195 182.217 234.195C180.798 234.195 179.635 233.821 178.73 233.072C177.832 232.324 177.383 231.334 177.383 230.104H180.205C180.205 230.637 180.404 231.074 180.801 231.412C181.204 231.751 181.699 231.92 182.285 231.92C182.956 231.92 183.48 231.744 183.857 231.393C184.242 231.035 184.434 230.562 184.434 229.977C184.434 228.557 183.652 227.848 182.09 227.848H180.596V225.641ZM199.434 232.613C199.434 232.164 199.583 231.799 199.883 231.52C200.189 231.24 200.57 231.1 201.025 231.1C201.488 231.1 201.868 231.24 202.168 231.52C202.474 231.799 202.627 232.164 202.627 232.613C202.627 233.056 202.477 233.417 202.178 233.697C201.878 233.971 201.494 234.107 201.025 234.107C200.563 234.107 200.182 233.971 199.883 233.697C199.583 233.417 199.434 233.056 199.434 232.613ZM205.254 232.613C205.254 232.164 205.404 231.799 205.703 231.52C206.009 231.24 206.39 231.1 206.846 231.1C207.308 231.1 207.689 231.24 207.988 231.52C208.294 231.799 208.447 232.164 208.447 232.613C208.447 233.056 208.298 233.417 207.998 233.697C207.699 233.971 207.314 234.107 206.846 234.107C206.383 234.107 206.003 233.971 205.703 233.697C205.404 233.417 205.254 233.056 205.254 232.613ZM211.074 232.613C211.074 232.164 211.224 231.799 211.523 231.52C211.829 231.24 212.21 231.1 212.666 231.1C213.128 231.1 213.509 231.24 213.809 231.52C214.115 231.799 214.268 232.164 214.268 232.613C214.268 233.056 214.118 233.417 213.818 233.697C213.519 233.971 213.135 234.107 212.666 234.107C212.204 234.107 211.823 233.971 211.523 233.697C211.224 233.417 211.074 233.056 211.074 232.613ZM216.895 232.613C216.895 232.164 217.044 231.799 217.344 231.52C217.65 231.24 218.031 231.1 218.486 231.1C218.949 231.1 219.329 231.24 219.629 231.52C219.935 231.799 220.088 232.164 220.088 232.613C220.088 233.056 219.938 233.417 219.639 233.697C219.339 233.971 218.955 234.107 218.486 234.107C218.024 234.107 217.643 233.971 217.344 233.697C217.044 233.417 216.895 233.056 216.895 232.613ZM222.715 232.613C222.715 232.164 222.865 231.799 223.164 231.52C223.47 231.24 223.851 231.1 224.307 231.1C224.769 231.1 225.15 231.24 225.449 231.52C225.755 231.799 225.908 232.164 225.908 232.613C225.908 233.056 225.758 233.417 225.459 233.697C225.16 233.971 224.775 234.107 224.307 234.107C223.844 234.107 223.464 233.971 223.164 233.697C222.865 233.417 222.715 233.056 222.715 232.613ZM228.535 232.613C228.535 232.164 228.685 231.799 228.984 231.52C229.29 231.24 229.671 231.1 230.127 231.1C230.589 231.1 230.97 231.24 231.27 231.52C231.576 231.799 231.729 232.164 231.729 232.613C231.729 233.056 231.579 233.417 231.279 233.697C230.98 233.971 230.596 234.107 230.127 234.107C229.665 234.107 229.284 233.971 228.984 233.697C228.685 233.417 228.535 233.056 228.535 232.613Z" fill="#DF6D4D"/>
</svg>
