<svg width="350" height="350" viewBox="0 0 350 350" fill="none" xmlns="http://www.w3.org/2000/svg">
<path d="M104.605 172.969H106.41C107.27 172.969 107.906 172.754 108.32 172.324C108.734 171.895 108.941 171.324 108.941 170.613C108.941 169.926 108.734 169.391 108.32 169.008C107.914 168.625 107.352 168.434 106.633 168.434C105.984 168.434 105.441 168.613 105.004 168.973C104.566 169.324 104.348 169.785 104.348 170.355H100.961C100.961 169.465 101.199 168.668 101.676 167.965C102.16 167.254 102.832 166.699 103.691 166.301C104.559 165.902 105.512 165.703 106.551 165.703C108.355 165.703 109.77 166.137 110.793 167.004C111.816 167.863 112.328 169.051 112.328 170.566C112.328 171.348 112.09 172.066 111.613 172.723C111.137 173.379 110.512 173.883 109.738 174.234C110.699 174.578 111.414 175.094 111.883 175.781C112.359 176.469 112.598 177.281 112.598 178.219C112.598 179.734 112.043 180.949 110.934 181.863C109.832 182.777 108.371 183.234 106.551 183.234C104.848 183.234 103.453 182.785 102.367 181.887C101.289 180.988 100.75 179.801 100.75 178.324H104.137C104.137 178.965 104.375 179.488 104.852 179.895C105.336 180.301 105.93 180.504 106.633 180.504C107.438 180.504 108.066 180.293 108.52 179.871C108.98 179.441 109.211 178.875 109.211 178.172C109.211 176.469 108.273 175.617 106.398 175.617H104.605V172.969ZM129.73 171.727L126.051 170.684L126.742 168.562L130.387 170.027L130.152 165.938H132.449L132.215 170.109L135.766 168.668L136.457 170.812L132.707 171.855L135.168 174.973L133.305 176.297L131.172 172.875L129.062 176.18L127.199 174.914L129.73 171.727ZM150.227 174.609L151.211 165.938H160.773V168.762H153.988L153.566 172.43C154.371 172 155.227 171.785 156.133 171.785C157.758 171.785 159.031 172.289 159.953 173.297C160.875 174.305 161.336 175.715 161.336 177.527C161.336 178.629 161.102 179.617 160.633 180.492C160.172 181.359 159.508 182.035 158.641 182.52C157.773 182.996 156.75 183.234 155.57 183.234C154.539 183.234 153.582 183.027 152.699 182.613C151.816 182.191 151.117 181.602 150.602 180.844C150.094 180.086 149.824 179.223 149.793 178.254H153.145C153.215 178.965 153.461 179.52 153.883 179.918C154.312 180.309 154.871 180.504 155.559 180.504C156.324 180.504 156.914 180.23 157.328 179.684C157.742 179.129 157.949 178.348 157.949 177.34C157.949 176.371 157.711 175.629 157.234 175.113C156.758 174.598 156.082 174.34 155.207 174.34C154.402 174.34 153.75 174.551 153.25 174.973L152.922 175.277L150.227 174.609ZM186.367 174.258H175.891V171.492H186.367V174.258ZM186.367 179.332H175.891V176.566H186.367V179.332ZM212.84 183H201.145V180.68L206.664 174.797C207.422 173.969 207.98 173.246 208.34 172.629C208.707 172.012 208.891 171.426 208.891 170.871C208.891 170.113 208.699 169.52 208.316 169.09C207.934 168.652 207.387 168.434 206.676 168.434C205.91 168.434 205.305 168.699 204.859 169.23C204.422 169.754 204.203 170.445 204.203 171.305H200.805C200.805 170.266 201.051 169.316 201.543 168.457C202.043 167.598 202.746 166.926 203.652 166.441C204.559 165.949 205.586 165.703 206.734 165.703C208.492 165.703 209.855 166.125 210.824 166.969C211.801 167.812 212.289 169.004 212.289 170.543C212.289 171.387 212.07 172.246 211.633 173.121C211.195 173.996 210.445 175.016 209.383 176.18L205.504 180.27H212.84V183ZM226.41 175.945C226.41 178.305 225.922 180.109 224.945 181.359C223.969 182.609 222.539 183.234 220.656 183.234C218.797 183.234 217.375 182.621 216.391 181.395C215.406 180.168 214.902 178.41 214.879 176.121V172.98C214.879 170.598 215.371 168.789 216.355 167.555C217.348 166.32 218.773 165.703 220.633 165.703C222.492 165.703 223.914 166.316 224.898 167.543C225.883 168.762 226.387 170.516 226.41 172.805V175.945ZM223.023 172.5C223.023 171.086 222.828 170.059 222.438 169.418C222.055 168.77 221.453 168.445 220.633 168.445C219.836 168.445 219.246 168.754 218.863 169.371C218.488 169.98 218.289 170.938 218.266 172.242V176.391C218.266 177.781 218.453 178.816 218.828 179.496C219.211 180.168 219.82 180.504 220.656 180.504C221.484 180.504 222.082 180.18 222.449 179.531C222.816 178.883 223.008 177.891 223.023 176.555V172.5Z" fill="#DF6D4D"/>
<rect x="65" y="151" width="220" height="48" rx="5" stroke="#EFB4A3" stroke-width="6"/>
<path d="M112.855 117H101.16V114.68L106.68 108.797C107.438 107.969 107.996 107.246 108.355 106.629C108.723 106.012 108.906 105.426 108.906 104.871C108.906 104.113 108.715 103.52 108.332 103.09C107.949 102.652 107.402 102.434 106.691 102.434C105.926 102.434 105.32 102.699 104.875 103.23C104.438 103.754 104.219 104.445 104.219 105.305H100.82C100.82 104.266 101.066 103.316 101.559 102.457C102.059 101.598 102.762 100.926 103.668 100.441C104.574 99.9492 105.602 99.7031 106.75 99.7031C108.508 99.7031 109.871 100.125 110.84 100.969C111.816 101.812 112.305 103.004 112.305 104.543C112.305 105.387 112.086 106.246 111.648 107.121C111.211 107.996 110.461 109.016 109.398 110.18L105.52 114.27H112.855V117ZM133.867 107.449H138.098V110.508H133.867V115.289H130.645V110.508H126.402V107.449H130.645V102.867H133.867V107.449ZM163.645 117H151.949V114.68L157.469 108.797C158.227 107.969 158.785 107.246 159.145 106.629C159.512 106.012 159.695 105.426 159.695 104.871C159.695 104.113 159.504 103.52 159.121 103.09C158.738 102.652 158.191 102.434 157.48 102.434C156.715 102.434 156.109 102.699 155.664 103.23C155.227 103.754 155.008 104.445 155.008 105.305H151.609C151.609 104.266 151.855 103.316 152.348 102.457C152.848 101.598 153.551 100.926 154.457 100.441C155.363 99.9492 156.391 99.7031 157.539 99.7031C159.297 99.7031 160.66 100.125 161.629 100.969C162.605 101.812 163.094 103.004 163.094 104.543C163.094 105.387 162.875 106.246 162.438 107.121C162 107.996 161.25 109.016 160.188 110.18L156.309 114.27H163.645V117ZM188.594 108.258H178.117V105.492H188.594V108.258ZM188.594 113.332H178.117V110.566H188.594V113.332ZM213.391 110.578H215.324V113.309H213.391V117H210.004V113.309H203.008L202.855 111.176L209.969 99.9375H213.391V110.578ZM206.23 110.578H210.004V104.555L209.781 104.941L206.23 110.578Z" fill="#DF6D4D"/>
<rect x="65" y="85" width="220" height="48" rx="5" stroke="#EFB4A3" stroke-width="6"/>
<path d="M248 111.132C249.897 112.925 252.211 114.146 254.137 115.901C254.662 116.379 257.319 119.298 257.44 118.975C259.221 114.215 262.704 109.629 265.111 105.139C266.171 103.164 268.541 100.14 270 98" stroke="#DF6D4D" stroke-width="5" stroke-linecap="round" stroke-linejoin="round"/>
<path d="M111.18 242.578H113.113V245.309H111.18V249H107.793V245.309H100.797L100.645 243.176L107.758 231.938H111.18V242.578ZM104.02 242.578H107.793V236.555L107.57 236.941L104.02 242.578ZM133.621 243.059H127.023V240.328H133.621V243.059ZM148.656 240.609L149.641 231.938H159.203V234.762H152.418L151.996 238.43C152.801 238 153.656 237.785 154.562 237.785C156.188 237.785 157.461 238.289 158.383 239.297C159.305 240.305 159.766 241.715 159.766 243.527C159.766 244.629 159.531 245.617 159.062 246.492C158.602 247.359 157.938 248.035 157.07 248.52C156.203 248.996 155.18 249.234 154 249.234C152.969 249.234 152.012 249.027 151.129 248.613C150.246 248.191 149.547 247.602 149.031 246.844C148.523 246.086 148.254 245.223 148.223 244.254H151.574C151.645 244.965 151.891 245.52 152.312 245.918C152.742 246.309 153.301 246.504 153.988 246.504C154.754 246.504 155.344 246.23 155.758 245.684C156.172 245.129 156.379 244.348 156.379 243.34C156.379 242.371 156.141 241.629 155.664 241.113C155.188 240.598 154.512 240.34 153.637 240.34C152.832 240.34 152.18 240.551 151.68 240.973L151.352 241.277L148.656 240.609ZM184.797 240.258H174.32V237.492H184.797V240.258ZM184.797 245.332H174.32V242.566H184.797V245.332ZM206.301 243.059H199.703V240.328H206.301V243.059ZM217.105 249H213.719V235.945L209.676 237.199V234.445L216.742 231.914H217.105V249Z" fill="#DF6D4D"/>
<rect x="65" y="217" width="220" height="48" rx="5" stroke="#EFB4A3" stroke-width="6"/>
<path d="M244 164.5C249.677 168.574 259.815 177.307 265.235 181.723C266.638 182.866 270.23 185.485 270.23 185.485" stroke="#DF6D4D" stroke-width="5" stroke-linecap="round" stroke-linejoin="round"/>
<path d="M248 188.75C254.107 179.128 261.03 168.538 269.645 161" stroke="#DF6D4D" stroke-width="5" stroke-linecap="round" stroke-linejoin="round"/>
<path d="M244 244.132C245.897 245.925 248.211 247.146 250.137 248.901C250.662 249.379 253.319 252.298 253.44 251.975C255.221 247.215 258.704 242.629 261.111 238.139C262.171 236.164 264.541 233.14 266 231" stroke="#DF6D4D" stroke-width="5" stroke-linecap="round" stroke-linejoin="round"/>
</svg>
