<svg width="350" height="350" viewBox="0 0 350 350" fill="none" xmlns="http://www.w3.org/2000/svg">
<path d="M254 213L258.041 225.092L271.119 225.092L260.539 232.566L264.58 244.658L254 237.184L243.42 244.658L247.461 232.566L236.881 225.092L249.959 225.092L254 213Z" fill="#5EA67D"/>
<path d="M211.5 109L215.429 121.092L228.143 121.092L217.857 128.566L221.786 140.658L211.5 133.184L201.214 140.658L205.143 128.566L194.857 121.092L207.571 121.092L211.5 109Z" fill="#5EA67D"/>
<path d="M211.5 213L215.429 225.092L228.143 225.092L217.857 232.566L221.786 244.658L211.5 237.184L201.214 244.658L205.143 232.566L194.857 225.092L207.571 225.092L211.5 213Z" fill="#5EA67D"/>
<path d="M211.5 161L215.429 173.092L228.143 173.092L217.857 180.566L221.786 192.658L211.5 185.184L201.214 192.658L205.143 180.566L194.857 173.092L207.571 173.092L211.5 161Z" fill="#5EA67D"/>
<path d="M254 161L258.041 173.092L271.119 173.092L260.539 180.566L264.58 192.658L254 185.184L243.42 192.658L247.461 180.566L236.881 173.092L249.959 173.092L254 161Z" fill="#5EA67D"/>
<path d="M296.5 161L300.429 173.092L313.143 173.092L302.857 180.566L306.786 192.658L296.5 185.184L286.214 192.658L290.143 180.566L279.857 173.092L292.571 173.092L296.5 161Z" fill="#5EA67D"/>
<line x1="171" y1="83" x2="171" y2="268" stroke="#5EA67D" stroke-width="4" stroke-dasharray="4 3"/>
<path d="M46.9512 190H43V174.77L38.2832 176.232V173.02L46.5273 170.066H46.9512V190ZM68.5391 178.857H73.4746V182.426H68.5391V188.004H64.7793V182.426H59.8301V178.857H64.7793V173.512H68.5391V178.857ZM86.6816 178.297H88.7871C89.7897 178.297 90.5326 178.046 91.0156 177.545C91.4987 177.044 91.7402 176.378 91.7402 175.549C91.7402 174.747 91.4987 174.122 91.0156 173.676C90.5417 173.229 89.8854 173.006 89.0469 173.006C88.2904 173.006 87.6569 173.215 87.1465 173.635C86.6361 174.045 86.3809 174.583 86.3809 175.248H82.4297C82.4297 174.209 82.7077 173.279 83.2637 172.459C83.8288 171.63 84.6126 170.982 85.6152 170.518C86.627 170.053 87.7389 169.82 88.9512 169.82C91.0566 169.82 92.7064 170.326 93.9004 171.338C95.0944 172.34 95.6914 173.726 95.6914 175.494C95.6914 176.406 95.4134 177.244 94.8574 178.01C94.3014 178.775 93.5723 179.363 92.6699 179.773C93.791 180.174 94.625 180.776 95.1719 181.578C95.7279 182.38 96.0059 183.328 96.0059 184.422C96.0059 186.19 95.3587 187.607 94.0645 188.674C92.7793 189.74 91.0749 190.273 88.9512 190.273C86.9642 190.273 85.3372 189.749 84.0703 188.701C82.8125 187.653 82.1836 186.268 82.1836 184.545H86.1348C86.1348 185.292 86.4128 185.903 86.9688 186.377C87.5339 186.851 88.2266 187.088 89.0469 187.088C89.9857 187.088 90.7194 186.842 91.248 186.35C91.7858 185.848 92.0547 185.188 92.0547 184.367C92.0547 182.38 90.9609 181.387 88.7734 181.387H86.6816V178.297ZM113.848 178.857H118.783V182.426H113.848V188.004H110.088V182.426H105.139V178.857H110.088V173.512H113.848V178.857ZM141.615 190H127.971V187.293L134.41 180.43C135.294 179.464 135.946 178.62 136.365 177.9C136.794 177.18 137.008 176.497 137.008 175.85C137.008 174.965 136.785 174.273 136.338 173.771C135.891 173.261 135.253 173.006 134.424 173.006C133.531 173.006 132.824 173.316 132.305 173.936C131.794 174.546 131.539 175.353 131.539 176.355H127.574C127.574 175.143 127.861 174.036 128.436 173.033C129.019 172.031 129.839 171.247 130.896 170.682C131.954 170.107 133.152 169.82 134.492 169.82C136.543 169.82 138.133 170.312 139.264 171.297C140.403 172.281 140.973 173.671 140.973 175.467C140.973 176.451 140.717 177.454 140.207 178.475C139.697 179.495 138.822 180.685 137.582 182.043L133.057 186.814H141.615V190Z" fill="#5EA67D"/>
</svg>
